<svg xmlns="http://www.w3.org/2000/svg" xmlns:xlink="http://www.w3.org/1999/xlink" viewBox="0 0 690 460"><defs><style>.cls-1{fill:none;}.cls-2{opacity:0.06;}.cls-3{opacity:0.11;}.cls-4{fill:#9b9b9b;}.cls-5{fill:#bcbcbc;}.cls-6{fill:#f9c273;}.cls-7{fill:#f7a139;}.cls-8{fill:#ffd8a9;}.cls-9{opacity:0.08;}.cls-10{fill:#777;}.cls-11{fill:#aaa;}.cls-12{fill:#e59342;}.cls-13{fill:#752912;}.cls-14{fill:#301c3a;}.cls-15{fill:#bf6d50;}.cls-16{fill:#fff8b3;}.cls-17{fill:#ed457d;}.cls-18{fill:#b52652;}.cls-19{fill:#d3dae5;}.cls-20{fill:#5e416b;}.cls-21{fill:#a94fd3;}.cls-22{fill:#821c08;}.cls-22,.cls-26,.cls-42{opacity:0.19;}.cls-23{fill:#fa0;}.cls-24{fill:#fcdf90;}.cls-25{fill:#e0956c;}.cls-27{fill:#701608;}.cls-28{fill:#dd6b5b;}.cls-110,.cls-29{fill:#fff;}.cls-30{fill:#c4735b;}.cls-31{fill:#f9feff;}.cls-32{fill:#7c3929;}.cls-33{fill:#fefffe;}.cls-34{fill:#773220;}.cls-35{fill:#ed3b66;}.cls-36{fill:#ad5c49;}.cls-37{fill:#ffc19f;}.cls-38{fill:#f43454;}.cls-39{fill:#1b6168;}.cls-40{fill:#ba2922;}.cls-41{fill:#f9e9a7;}.cls-42{fill:#7f0404;}.cls-43{fill:#ff9797;}.cls-44{fill:#63190d;}.cls-45{fill:#f29d77;}.cls-46{fill:#fcf7eb;}.cls-47{fill:#114244;}.cls-48{fill:#bfefef;}.cls-49{fill:#2d8f91;}.cls-50{fill:#19555b;}.cls-51{fill:#ff3636;}.cls-52{fill:#c42e10;}.cls-53{opacity:0.16;}.cls-54{fill:#723c27;}.cls-55{fill:#6d261d;}.cls-55,.cls-78{opacity:0.2;}.cls-56{fill:#cdccce;}.cls-57{fill:#e84d9e;}.cls-58,.cls-60,.cls-90,.cls-94{opacity:0.18;}.cls-59{fill:#dbdbdb;}.cls-60{fill:#03193f;}.cls-61{fill:#ea872d;}.cls-62{fill:#ffbe71;}.cls-63{fill:#ffe652;}.cls-64{fill:#28afc6;}.cls-65{fill:#ff6417;}.cls-66{fill:#38c7f9;}.cls-67{fill:#ff557a;}.cls-68{fill:#a3a3a3;}.cls-69{fill:#0984af;}.cls-70{fill:#02344c;}.cls-71{fill:#ef9e3f;}.cls-72{fill:#fc2727;}.cls-73{fill:#3f8cb2;}.cls-74{fill:#f29972;}.cls-75{fill:#e88e2d;}.cls-76{fill:#eab868;}.cls-77{fill:#ef9b35;}.cls-78{fill:#4c0a03;}.cls-79{fill:#007be0;}.cls-80{fill:#d8d7d6;}.cls-81{fill:#f9e098;}.cls-82{fill:#ff3964;}.cls-83{fill:#f9235c;}.cls-84{fill:#00878e;}.cls-85{fill:#00adad;}.cls-86{fill:#40d3cf;}.cls-87{fill:#f23648;}.cls-88{fill:#ff5076;}.cls-89{fill:#636768;}.cls-90{fill:#720303;}.cls-91{fill:#98f4f4;}.cls-92{fill:#5aaf3b;}.cls-93{fill:#eeedef;}.cls-94{fill:#024866;}.cls-95{fill:#ff5252;}.cls-96{fill:#ff3131;}.cls-97{fill:#f56213;}.cls-98{fill:#0078db;}.cls-99{fill:#15b2cc;}.cls-100{fill:#28c2c6;}.cls-101{fill:#224966;}.cls-102{fill:#b70909;}.cls-103{fill:#b50000;}.cls-104{fill:#45cece;}.cls-105{fill:#00c1db;}.cls-106{fill:#33bc84;}.cls-107{clip-path:url(#clip-path);}.cls-108{clip-path:url(#clip-path-2);}.cls-109{fill:#0071bc;}.cls-110{stroke:#4dd0e1;stroke-miterlimit:10;stroke-width:2.09px;}.cls-111{clip-path:url(#clip-path-4);}.cls-112{clip-path:url(#clip-path-5);}.cls-113{clip-path:url(#clip-path-6);}</style><clipPath id="clip-path"><rect class="cls-1" x="-716" y="-835" width="1918" height="601"/></clipPath><clipPath id="clip-path-2"><rect class="cls-1" x="-715.5" y="-1174" width="1917.5" height="1278"/></clipPath><clipPath id="clip-path-4"><rect class="cls-1" x="1230" y="-1462" width="1920" height="600"/></clipPath><clipPath id="clip-path-5"><rect class="cls-1" x="1230" y="-2218" width="1920" height="1356"/></clipPath><clipPath id="clip-path-6"><rect class="cls-1" x="-717.5" y="-1462" width="1921" height="600"/></clipPath></defs><g id="EventElements"><g id="craft"><ellipse class="cls-2" cx="345.1" cy="329.71" rx="252.19" ry="111.11"/><polygon class="cls-3" points="256.78 215.5 205.37 215.5 197.29 227.96 263.82 227.96 256.78 215.5"/><path class="cls-4" d="M204,182.22a2.3,2.3,0,0,1-2.3-2.3V140.38a2.3,2.3,0,1,1,4.6,0v39.54A2.3,2.3,0,0,1,204,182.22Z"/><path class="cls-4" d="M206.77,217.85a2.3,2.3,0,0,1-2.3-2.3V188.18a2.31,2.31,0,1,1,4.61,0v27.37A2.3,2.3,0,0,1,206.77,217.85Z"/><path class="cls-4" d="M255.57,217.85a2.3,2.3,0,0,1-2.3-2.3V188.18a2.3,2.3,0,1,1,4.6,0v27.37A2.3,2.3,0,0,1,255.57,217.85Z"/><path class="cls-5" d="M198.52,228.16a2.3,2.3,0,0,1-2.3-2.3V188.18a2.31,2.31,0,1,1,4.61,0v37.68A2.3,2.3,0,0,1,198.52,228.16Z"/><path class="cls-5" d="M263.82,228.16a2.3,2.3,0,0,1-2.31-2.3V188.18a2.31,2.31,0,1,1,4.61,0v37.68A2.3,2.3,0,0,1,263.82,228.16Z"/><path class="cls-4" d="M256.23,182.22a2.3,2.3,0,0,1-2.3-2.3V140.38a2.31,2.31,0,1,1,4.61,0v39.54A2.3,2.3,0,0,1,256.23,182.22Z"/><path class="cls-6" d="M261.82,179.92H201.19a3.81,3.81,0,0,0-2.77,1.19l-5.51,5.83h76.86l-5.1-5.74A3.8,3.8,0,0,0,261.82,179.92Z"/><rect class="cls-7" x="192.76" y="186.08" width="77.16" height="7.53" rx="0.33"/><rect class="cls-8" x="198.37" y="112.51" width="65.93" height="38.93" rx="1.4"/><rect class="cls-6" x="197.48" y="114.49" width="67.72" height="41.23" rx="1.4"/><path class="cls-5" d="M143.81,397.6a3.45,3.45,0,0,1-3.45-3.45V332.24a3.46,3.46,0,0,1,6.91,0v61.91A3.45,3.45,0,0,1,143.81,397.6Z"/><path class="cls-5" d="M554.31,392.82a3.46,3.46,0,0,1-3.46-3.46V327.45a3.46,3.46,0,0,1,6.92,0v61.91A3.46,3.46,0,0,1,554.31,392.82Z"/><polygon class="cls-9" points="121.15 316.78 63.45 316.78 23.35 331.87 78.79 331.87 121.15 316.78"/><path class="cls-10" d="M104.44,283.83H70.84a12.11,12.11,0,0,1-12.09-12.1L56.68,218.2a2.3,2.3,0,0,1,2.21-2.39,2.17,2.17,0,0,1,2.4,2.21l2.07,53.62a7.52,7.52,0,0,0,7.48,7.58h33.6a2.31,2.31,0,0,1,0,4.61Z"/><path class="cls-10" d="M65.29,317.79a2.41,2.41,0,0,1-.64-.09,2.31,2.31,0,0,1-1.57-2.86l8.27-28.49c1.22-4.2,6.07-7.13,11.79-7.13H101.6c5.73,0,10.57,2.93,11.79,7.13l8.26,28.5a2.3,2.3,0,0,1-4.43,1.27L109,287.64c-.63-2.17-3.8-3.81-7.37-3.81H83.14c-3.57,0-6.73,1.64-7.36,3.81l-8.27,28.49A2.31,2.31,0,0,1,65.29,317.79Z"/><path class="cls-11" d="M63.46,298.09H29.87A12.11,12.11,0,0,1,17.77,286L15.7,232.46a2.31,2.31,0,0,1,2.22-2.39H18a2.3,2.3,0,0,1,2.3,2.21l2.07,53.63a7.51,7.51,0,0,0,7.49,7.57H63.46a2.31,2.31,0,0,1,0,4.61Z"/><path class="cls-12" d="M107.88,280H65.77c-.08,0-.16,0-.24,0S35.65,292.8,35.66,293.78l33.91.69a11.37,11.37,0,0,0,4.43-.8Z"/><path class="cls-12" d="M73.85,293.67l33.62-13.05a1.61,1.61,0,0,0,1-1.5V277a1.61,1.61,0,0,0-2.19-1.5L72.69,288.55a1.6,1.6,0,0,0-1,1.5v2.12A1.61,1.61,0,0,0,73.85,293.67Z"/><path class="cls-6" d="M106.64,275.38H64L31,287.9a2.73,2.73,0,0,0-1.8,2.61L70.13,289a9.57,9.57,0,0,0,3.26-.66Z"/><path class="cls-6" d="M64.41,218.08l1.23,26.44a4.68,4.68,0,0,1-3.16,4.65L30,260.3a4.68,4.68,0,0,1-6.2-4.22l-1.23-28.21a4.69,4.69,0,0,1,3.38-4.7l32.49-9.38A4.68,4.68,0,0,1,64.41,218.08Z"/><path class="cls-7" d="M60.2,218.08l1.23,26.44a4.68,4.68,0,0,1-3.16,4.65L29.32,260.48c-7,1.22-9.59-1.28-9.73-4.4l-1.23-28.21a4.83,4.83,0,0,1,3.44-4.78l32.43-9.3A4.68,4.68,0,0,1,60.2,218.08Z"/><path class="cls-6" d="M64.41,218.08l1.23,26.44a4.68,4.68,0,0,1-3.16,4.65L30,260.3a4.68,4.68,0,0,1-6.2-4.22l-1.23-28.21a4.69,4.69,0,0,1,3.38-4.7l32.49-9.38A4.68,4.68,0,0,1,64.41,218.08Z"/><path class="cls-8" d="M26,223.17l32.49-9.38a4.34,4.34,0,0,1,.52-.08l.35-.1H54.9l-33.1,9.48a4.81,4.81,0,0,0-2.56,1.85s3.75.47,4,.44A4.58,4.58,0,0,1,26,223.17Z"/><path class="cls-13" d="M103.06,195.1c.39-1.82,3.64-5.95,1.79-23.4-2.82-2.66-87.14-.23-89.69,2.7,2.81,17.12,6.39,22.45,6,25.34-.18,1.42-2.45,2-3.72.68a5.58,5.58,0,0,0,1.75,5.52,6.76,6.76,0,0,0,7.85.4c-.34,5,23.67,7.47,35.9,7.25,17.83-.32,35-5.79,34.16-10.73a7,7,0,0,0,7.77-1.17c1.42-1.25,2-4.76,1.38-5.41C105.14,197.76,102.53,197.5,103.06,195.1Z"/><path class="cls-14" d="M83.59,278.08c2.28-1.47,17.16,4,13,5.54-4.52,1.69-27.29,7.56-27.71,4.87s-3-8.56,1.35-9.25S82.29,278.92,83.59,278.08Z"/><path class="cls-15" d="M113.61,278.2c-2.39-7.84-4-9.24-7.08-10.79-2.39-1.2-5.7-1.11-8.15-1.36-10,4.25-4.16,17.31-3.29,18.78,2.55-.54,3.47.54,3.47.54,3,10.24,6.41,22,7.37,25.1,1.3-.08,13.53-3.69,14.15-4C119.16,302,115.44,284.2,113.61,278.2Z"/><path class="cls-16" d="M105,316.55c0,.25,17.25-1.37,17.26-1.67.12-2.59-.47-8.77-.45-10.27l-18.38,2.73C104,310.09,104.66,314.81,105,316.55Z"/><path class="cls-17" d="M124,313.14c-.23-.88-.72-2-1.1-3-.28-.76-7.64-.68-7.67,1.13a9.56,9.56,0,0,0,0,1.24c-1.26,0-2.63,0-4.07-.08a70.44,70.44,0,0,1-7.91-.72c-.15,2.86.07,7.81-.06,11,0,0,32.79,6.34,38,1.6C142.66,323,134.45,317,124,313.14Z"/><path class="cls-18" d="M103.24,320.7c0,.71,0,1.39,0,2,0,0,32.79,6.34,38,1.6.2-.18.21-.47.06-.82C132.19,325.38,111.39,322.12,103.24,320.7Z"/><path class="cls-19" d="M126.26,314.08a.47.47,0,0,0,.55-.35.47.47,0,0,0-.35-.55,5.59,5.59,0,0,0-5.42,2.13.46.46,0,0,0,.09.64.52.52,0,0,0,.26.1.48.48,0,0,0,.38-.18A4.6,4.6,0,0,1,126.26,314.08Zm2.51,1.17a.45.45,0,0,0,.52-.4.46.46,0,0,0-.41-.51,6.48,6.48,0,0,0-5.46,2,.47.47,0,0,0,0,.65.42.42,0,0,0,.3.12.45.45,0,0,0,.35-.14A5.47,5.47,0,0,1,128.77,315.25Zm2.77.39a7,7,0,0,0-5.68,2,.45.45,0,0,0,0,.65.41.41,0,0,0,.31.14.42.42,0,0,0,.34-.13,6.05,6.05,0,0,1,4.88-1.74.46.46,0,1,0,.16-.9Z"/><path class="cls-20" d="M96.56,269.06a9.88,9.88,0,0,1,11.49-1c1.09-1.71-11.73-5-22.55-8.32C83.08,259,62,262.17,57,263.11c.15,9.16.63,16.12,5.19,19.89,2.62,2.16,19.51-4.92,23.49-4.85,1.68,3.45,4.37,5.64,6.24,5.26C95.22,282.76,92.44,272.8,96.56,269.06Z"/><path class="cls-21" d="M42.87,262.64c10.38-1,23.66,4.83,31.66,3.41,7.53-1.34,8-2.62,18.08-4.28,1.39-1.9-3-3-3.11-3.86-1.68-14-2.83-37.11-4.24-46.17-4.92-.69-27.81-3.22-41.28,3.46C42.33,224.35,41.9,250.91,42.87,262.64Z"/><path class="cls-15" d="M79.05,212.91a8.36,8.36,0,0,0-.37-2.17c-.52-.05-1.09-.11-1.65-.15A94.15,94.15,0,0,0,54.22,212a2.38,2.38,0,0,0,0,.34c-.13,5.15,5.27,9.89,12.13,10.06S78.92,218.06,79.05,212.91Z"/><path class="cls-15" d="M75,197.9l1,15.06c.24,3.25-3.67,6.18-8.75,6.55s-9.44-2-9.67-5.2l-1-15.13Z"/><path class="cls-22" d="M80.74,208.18a7.07,7.07,0,0,0,0-2,179.87,179.87,0,0,0-23.55-2.72,7.35,7.35,0,0,0-.28.83c-.84,5.07,3.82,10,10.41,11.11S79.9,213.25,80.74,208.18Z"/><path class="cls-15" d="M35.56,252.13c0,.74,12.19,4.36,12.28,3.62,1.4-11.1,3.31-29.72,3.92-32.83,0,0-9.89-7.1-13.35.63C36.82,227.1,35.1,241.17,35.56,252.13Z"/><path class="cls-21" d="M32.6,241.54c4.49,1.59,18.75,2.35,22.11,2.06-.59-8.57-2.23-28.14-3.37-28A44.52,44.52,0,0,0,44,215.2C36.81,218.35,35.64,225.63,32.6,241.54Z"/><path class="cls-15" d="M86.94,282.8c-1.78-8-3.24-9.53-6.22-11.32-2.3-1.37-5.6-1.54-8-2C62.4,273,67.21,286.43,68,288c2.58-.34,3.42.81,3.42.81,2.14,10.44,4.68,22.44,5.4,25.6,1.3,0,13.77-2.63,14.41-2.84C90.62,307,88.3,288.91,86.94,282.8Z"/><path class="cls-16" d="M75.38,320.36c0,.25,17.31,0,17.34-.32.32-2.58.22-8.78.35-10.28l-18.53,1.29C74.87,313.84,75.17,318.6,75.38,320.36Z"/><path class="cls-17" d="M95,318.17c-.25-.87-.76-2-1.16-3-.3-.75-7.65-.53-7.65,1.28a11.4,11.4,0,0,0,.07,1.24c-1.26,0-2.62,0-4.07,0a68.37,68.37,0,0,1-7.92-.58c-.09,2.86.22,7.81.15,11,0,0,32.91,5.7,38,.86C113.85,327.62,105.53,321.77,95,318.17Z"/><path class="cls-18" d="M74.39,326.13c0,.7,0,1.39,0,2,0,0,32.91,5.7,38,.86.21-.19.21-.47,0-.82C103.43,330.25,82.57,327.39,74.39,326.13Z"/><path class="cls-19" d="M97.28,319.06a.46.46,0,0,0,.54-.36.46.46,0,0,0-.36-.54,5.57,5.57,0,0,0-5.37,2.23.45.45,0,0,0,.1.64.43.43,0,0,0,.26.09.45.45,0,0,0,.38-.18A4.6,4.6,0,0,1,97.28,319.06Zm2.54,1.13a.45.45,0,0,0,.5-.41.46.46,0,0,0-.41-.51,6.49,6.49,0,0,0-5.42,2.13.46.46,0,0,0,0,.65.42.42,0,0,0,.3.12.44.44,0,0,0,.35-.14A5.45,5.45,0,0,1,99.82,320.19Zm2.78.33A7,7,0,0,0,97,322.61a.46.46,0,0,0,0,.65.45.45,0,0,0,.65,0,6.06,6.06,0,0,1,4.85-1.84.46.46,0,1,0,.15-.9Z"/><path class="cls-20" d="M69.09,289.13c-2.19-7.62-.94-13.69,2.46-16.57,3.77-3.2,9.09-1.95,11.64.79,1.15-2.26-6-4.8-21.06-8.9-2.44-.66-13.09.38-18.12.77-.86,9.12-1.17,16.09,3,20.34,2.36,2.44,7.28,3.1,11.25,3.27C62.34,289,64.52,289,69.09,289.13Z"/><path class="cls-21" d="M69.37,265.69c-7.69-1.64-13-.47-17.57,3.79-3.14,2.94-9.49,3.17-9.29.21s1.15-10.12,1.31-12.55C48.12,257.14,69.92,259.73,69.37,265.69Z"/><path class="cls-15" d="M67.42,258.65c.76,0,.86-8.79.11-8.81-11.36-.35-28.86-4.4-32.06-4.71-.22,4.94-.65,9.14,2.92,11.32C41.73,258.49,56.37,258.75,67.42,258.65Z"/><path class="cls-23" d="M64.48,242.42c-2.39.77-4.74.1-5.26-1.51s1-3.54,3.36-4.31,4.74-.1,5.26,1.51S66.86,241.65,64.48,242.42Z"/><path class="cls-23" d="M72.3,243.62c0,2.5-1.37,4.53-3.06,4.53s-3.06-2-3.06-4.53,1.37-4.54,3.06-4.54S72.3,241.11,72.3,243.62Z"/><path class="cls-23" d="M63.76,234.76c-1.47-2-1.56-4.48-.19-5.47s3.67-.16,5.15,1.87,1.55,4.47.19,5.47S65.23,236.78,63.76,234.76Z"/><path class="cls-23" d="M76.36,237.28c2.38.77,3.89,2.71,3.37,4.31s-2.88,2.29-5.26,1.52-3.89-2.71-3.37-4.32S74,236.51,76.36,237.28Z"/><path class="cls-23" d="M70.78,231.72c1.47-2,3.78-2.86,5.15-1.87s1.28,3.44-.19,5.47-3.78,2.86-5.15,1.87S69.31,233.75,70.78,231.72Z"/><circle class="cls-24" cx="69.55" cy="237.83" r="3.06" transform="translate(-177.9 250.88) rotate(-76.72)"/><path class="cls-25" d="M82.25,242.07c.87,1.58-2.08,4-4.9,4s-7.48-1.5-7.46-3.44C71.22,241.19,80.46,238.81,82.25,242.07Z"/><path class="cls-26" d="M63.62,247.69A34.47,34.47,0,0,1,70.84,242a45.37,45.37,0,0,1,7,1c2.59.6,8.76,2.36,9.11,3.2a1.35,1.35,0,0,1,0,1.13,3.45,3.45,0,0,1-3.32,1.89A3.49,3.49,0,0,1,85,250.37a1.17,1.17,0,0,1,.06,1,2.88,2.88,0,0,1-3.27,2.07,2.39,2.39,0,0,1,.51,1.2,1.15,1.15,0,0,1-.26.89c-.4.5-1.2.77-2.69,1a3.11,3.11,0,0,1,.54,1.11,1,1,0,0,1-.11.72c-.1.18-5.66,2.22-8.38,1.77-.16,0-5.25-.82-5.45-.87.1-.92,4.8-3.66,4-4.14C67.48,253.64,63.62,247.69,63.62,247.69Z"/><path class="cls-15" d="M75.89,252.93c1.62,0,5.28-.24,5.56,1.82.12.85-3.2,1.06-6.36,1.3-1,.08-1.38-.28-4.39-.77-.11.26,1.32,1,3.25,1.28,1,.17,4.42-1.26,5.11,1.27.12.44-4.23,1.43-5.25,1.65-1.62.35-11-.54-11.52-.82-2-1.2-2.71-3.44-1.89-6.49.91-2.31,5.5-7.51,9.77-9.8a48.1,48.1,0,0,1,7.67.64c5.94,2.12,8.85,2.86,8.32,4-1.27,2.67-6,.87-8.55.23a26.59,26.59,0,0,0-5.5-.21c-.25.47,3.39.63,5.38.95,1.62.38,7.18,2.08,6.78,3.11-1.1,2.78-3.32,1.12-7.64.58a21.51,21.51,0,0,0-5.18.24C71.72,252.35,72.7,252.43,75.89,252.93Z"/><path class="cls-15" d="M105.45,177.85c-.42,7.49-4.86,13.1-8.72,13.21s-5.35-5.65-5.58-12.73,2.73-12.93,6.59-13C103,165.18,105.84,170.8,105.45,177.85Z"/><path class="cls-13" d="M99.62,153.63c5.16,28.09-9.12,43.78-32.37,48.05s-46.62,1.24-52.09-27.28c-6-31.43,10.71-44.24,35.5-47.34C74.13,124.13,94.46,125.53,99.62,153.63Z"/><path class="cls-15" d="M90.67,134.45a18.73,18.73,0,0,1,5.41,10.73c1.82,17.73,2.72,23.49,4.3,37.45a25.42,25.42,0,0,1-21.32,27.45c-13,2-28.92-3.27-34.57-8.53-7.35-6.86-22.94-44.37-21.84-49.37,3.7-16.86,12.92-19.6,33.05-22.47C74.52,127,85.46,130.59,90.67,134.45Z"/><path class="cls-13" d="M37.38,166.42c2.65,8.26,3.63,12.13-3.67,17s-14.33-8.1-16.24-21.54C15.1,145.21,21.08,131,50.15,128.83,40.17,140,30.66,145.44,37.38,166.42Z"/><path class="cls-27" d="M63.11,191.61c-.56,4.84,7.48,10.63,14.2,9.62S88,194.14,87.44,189.31c-.71-2.6-5-1.43-11.65-.93S63.45,188.66,63.11,191.61Z"/><path class="cls-28" d="M76.16,196.94c3.11-.26,5.56.29,7.22,1.59a12.23,12.23,0,0,1-6.52,2.84c-2.92.23-5.53,0-7.59-1.79C69.92,198.13,73.38,197.17,76.16,196.94Z"/><path class="cls-29" d="M66.26,189.24c2.24-.87,5.84-.7,9.14-1,3.72-.28,6.42-1,8.78-.63-.72,2.06-3.74,3.59-8,4C71.22,192.05,67.1,191.31,66.26,189.24Z"/><path class="cls-30" d="M79.55,183.66a.35.35,0,0,1-.38-.27,2.55,2.55,0,0,0-5,.44.36.36,0,0,1-.71,0,3.26,3.26,0,0,1,6.37-.59.35.35,0,0,1-.25.44Z"/><path class="cls-15" d="M22.11,190.34c4.23,7.89,12.74,11.7,17.79,9.85s4.21-8.9,1.7-16.93c-2.8-8.93-7.31-12.81-13.42-11.6C21,173.08,18.13,182.92,22.11,190.34Z"/><path class="cls-25" d="M31,191c1.71,3.73,5.85,4.93,7.28,3.87,1.15-.85,1-3,0-6.7-1.26-4.28-3.19-6.63-5.64-5.65S29,186.59,31,191Z"/><path class="cls-31" d="M82.93,171.62c-1.81,3.88-1.1,7.86,1,9.18,3.15,2,10.06,1.89,12.25-1.71s.3-9.21-4-11.29C88.39,166,84.67,167.87,82.93,171.62Z"/><path class="cls-32" d="M95.56,169.22c-3.75-5.31-11.09-2.57-12.69,2.53,1.8-3.88,5.73-5.43,9.21-3.74a8.69,8.69,0,0,1,4.48,5.59,7.77,7.77,0,0,1-.52,5.68C97.13,178.28,98.32,173.12,95.56,169.22Z"/><path class="cls-13" d="M87.55,173.48a5.2,5.2,0,0,0,3.06,6.16A4.2,4.2,0,0,0,96,176.31a5.22,5.22,0,0,0-3.07-6.16A4.18,4.18,0,0,0,87.55,173.48Z"/><path class="cls-33" d="M87.85,173a1.45,1.45,0,0,0,.85,1.71,1.16,1.16,0,0,0,1.48-.93,1.42,1.42,0,0,0-.85-1.7A1.16,1.16,0,0,0,87.85,173Z"/><path class="cls-31" d="M65,172.86c3,3.62,3.1,7.93.92,9.78-3.28,2.78-11.53,4.28-15,1S48.46,174.15,53.1,171A8.73,8.73,0,0,1,65,172.86Z"/><path class="cls-32" d="M49.38,173.26C52.62,166.88,62,168,65.06,173a8.83,8.83,0,0,0-11.82-1.78,9.32,9.32,0,0,0-4.06,6.85,7.47,7.47,0,0,0,1.92,5.8C49.58,183.05,47,178,49.38,173.26Z"/><path class="cls-13" d="M56.25,176.68a5.27,5.27,0,1,0,6.52-3.63A5.26,5.26,0,0,0,56.25,176.68Z"/><path class="cls-33" d="M56.63,176.17a1.46,1.46,0,1,0,1.81-1A1.46,1.46,0,0,0,56.63,176.17Z"/><path class="cls-34" d="M96.77,159.25a1,1,0,0,0,.78-.4,1.22,1.22,0,0,0-.11-1.62c-3.18-3-8.82-3.8-13.41-1.84a1.18,1.18,0,0,0-.6,1.48,1,1,0,0,0,1.36.66c3.85-1.64,8.7-1,11.28,1.44A1,1,0,0,0,96.77,159.25Z"/><path class="cls-34" d="M46.15,162.75a1.26,1.26,0,0,1-1-.27,1.24,1.24,0,0,1-.15-1.75c3.19-3.83,9.67-5.7,15.38-4.48a1.24,1.24,0,0,1-.52,2.43c-4.79-1-10.36.54-13,3.64A1.23,1.23,0,0,1,46.15,162.75Z"/><path class="cls-13" d="M105.77,159.6c0,.7-.15,2.07-1.43,2.24s-2.33-.94-2.72-7.75c-.08-1.43-.22-2.78-.44-4.51-1.45-11.61-6-18.09-21.83-18.66-2.51-.09-9,2.06-11.74,3.08,16.93-.19,24.49,3.38,27.61,9.27,3.53,6.67.07,31,10.68,28.25-2-.72-3.19-4.38-2.83-5.21C106.24,166.29,108.13,162.81,105.77,159.6Z"/><path class="cls-13" d="M26.56,154.33c-.83,2.9-2.46,4.14-4.39,4.31-1.44.12-3.19-1.7-1.1-3.92-2.73,1.66-1.63,4.27.06,4.89a5,5,0,0,0,5.7-2.62,35.48,35.48,0,0,0,.71,3.59c1.63,6.35,1.57,8.71-.74,9.42s-3-2.37-.66-2.81c-2.82-1.27-6,2.54-3.91,6.61,1.42,2.75,7,4.37,10-.41,4.22,2.62,2.54,7.24-1.14,7,1.95,2.8,11.54,2.6,9.93-5.64-1.31-6.7-4.55-12-4.16-20.28.27-5.55,5.62-12.91,14.83-13.31C40.11,129.17,25.44,140.32,26.56,154.33Z"/><path class="cls-13" d="M95.2,124.74c-.25,1.61-1.27,3.36-3.11,3.06,1.66-5.36-1.28-7.79-4.13-8.54-3.57-1-7.87,1.78-6,4.5a1.76,1.76,0,1,1,3.37.73c-.63,1.9-16.34-1-22.39-1.18-7.74-.26-31.69.19-35.8,13.64,1.9.07,14.38,5.76,15.84,6.79s14.46,11.77,31.22,10.85c-3.57-.85-14.36-2.46-23.45-9.93,2.48,1.28,6,3.34,10,4C93.62,154.38,102.08,133.92,95.2,124.74Z"/><path class="cls-35" d="M34.81,158.17c2.44-.39,4.31-1.41,4.17-2.28s-2.23-1.24-4.68-.85-4.31,1.41-4.17,2.28S32.36,158.57,34.81,158.17Zm.66,1.58c-2.45.4-4.32,1.42-4.18,2.28s2.23,1.25,4.68.86,4.31-1.42,4.17-2.28S37.91,159.36,35.47,159.75Z"/><path class="cls-11" d="M78.56,332.13a2.32,2.32,0,0,1-2.22-1.67L68.09,302c-.63-2.17-3.79-3.81-7.36-3.81H42.26c-3.56,0-6.73,1.64-7.36,3.81l-8.27,28.49a2.3,2.3,0,1,1-4.42-1.28l8.26-28.5c1.22-4.19,6.07-7.13,11.79-7.13H60.73c5.72,0,10.57,2.94,11.79,7.14l8.25,28.49A2.32,2.32,0,0,1,79.19,332,2.28,2.28,0,0,1,78.56,332.13Z"/><path class="cls-7" d="M69,294.59H31.77a2.79,2.79,0,0,1,0-5.57H69a2.79,2.79,0,1,1,0,5.57Z"/><path class="cls-36" d="M186.84,134.39c-9.42-20.27-9.19-44.47-.08-77.61l.23.95c.12-.6.24-1.18.37-1.79L268,54l.45,1.73.86-.6c11.85,32.8,13.75,52.72,13.61,65.26-.63-5.95-2.41-26.85-12.39-56.53,9.53,37.62,13,58.25,5.82,65.06,4.37-8.41-.82-30.85-2.15-33.64.42,8.14,2.44,23.64-1.32,35.71-19.07,11.88-64.34,12.41-76,6.47-.55-.94-3.16-23.74-3.64-26.88-.6,1.12,1.17,26,1,27-7.34-6.18-14.91-25.95-10.06-62.81C179.2,100,182.27,118.51,186.84,134.39Z"/><path class="cls-37" d="M184.25,150.35l3.95,3.38,22-16-8.36-11.33-15.17,11.91C182.93,141.26,181.23,146.71,184.25,150.35Z"/><path class="cls-38" d="M191.39,133.24c4,4.58,15.6,14.55,21.72,13.65,2.78-2.22,4.85-26.31,4.87-26.76-6.13.58-11.95,1.78-13.7,2.87C200.51,125.33,198.66,127,191.39,133.24Z"/><path class="cls-37" d="M195.39,146.07a.38.38,0,0,1-.1.14.36.36,0,0,1-.15.09.5.5,0,0,1,.1-.14A.56.56,0,0,1,195.39,146.07Z"/><path class="cls-37" d="M281,147l-3.45,3.51-22.21-12.82,7.12-12.14,16.34,10.25C282.78,138.26,283.6,143,281,147Z"/><path class="cls-3" d="M272,241c.19,3.57-15.24,7.29-34.46,8.3s-34.94-1.07-35.13-4.64,15.24-7.29,34.45-8.31S271.81,237.37,272,241Z"/><path class="cls-39" d="M259,169.18l-51.82,2.73c-.48,3.11-.94,12.85.26,14.93,1.39,2.42,6,3.74,16.7,4.57a137.66,137.66,0,0,0,20-1.06c10.6-1.95,15-3.74,16.14-6.29C261.27,181.87,259.79,172.23,259,169.18Z"/><path class="cls-38" d="M270.85,129.42c-3.53,5-14,16.11-20.16,15.85-3-1.92-7.62-25.86-7.69-26.3,6.17.14,12.11.72,14,1.61C261,122.51,263,124,270.85,129.42Z"/><path class="cls-38" d="M204.3,176.59c17.42,5.06,43.17,4.45,57.32-3.69,0,0-9.14-43.08-11.84-53.64-10.26-.81-30.27-.11-40.77,2.25C208.19,135.21,206.39,157.07,204.3,176.59Z"/><path class="cls-37" d="M242.71,120.94a7.13,7.13,0,0,0-.36-2,197.29,197.29,0,0,0-25.3,1.31,6.61,6.61,0,0,0-.15.89c0,5.35,5.86,9.64,13,9.58S242.75,126.28,242.71,120.94Z"/><path class="cls-37" d="M239,106.32l.63,15.07c.13,3.24-3.88,6-9,6.25s-9.31-2.24-9.44-5.48l-.63-15.07Z"/><path class="cls-37" d="M225.2,178.9c-5.74-.15-8.67,3.17-9.22,7.11-.63,4.43-.54,22.55-.45,35.81,3.4.65,12.67.86,13.52.48,1.85-14.16,3.94-27.67,4.29-36.31C233.5,182,230.13,179,225.2,178.9Z"/><path class="cls-37" d="M253,184.73c-.63-3.93-3.37-7.64-9.35-6.95-4.9.56-8.21,3.86-8,7.89.51,8.63,3,22.78,5.09,36.91.86.37,9.84-.08,13.24-.78C253.8,208.54,253.65,189.15,253,184.73Z"/><path class="cls-40" d="M258.15,244.73a15.7,15.7,0,0,1-9.34,4.22A14.11,14.11,0,0,1,238,245c-2.06-2.1.13-14,1.2-20.79.69-4.42,14.28-6.24,15.88-.53C257.87,233.67,260,242.83,258.15,244.73Z"/><path class="cls-38" d="M258.17,242.44a14,14,0,0,1-9.84,4.69,13.83,13.83,0,0,1-10.4-3.64c-2.06-2,.17-13.16,1.25-19.47.71-4.15,14.3-5.89,15.89-.55C257.84,232.78,259.8,240.49,258.17,242.44Z"/><path class="cls-41" d="M253.94,218.4l.31-7-15.7.82,1.17,8.11c0,8.23-.52,11.59.2,13.74,1.61,4.75,13.65,5,15.71-1C256.34,231,255.21,228.2,253.94,218.4Z"/><path class="cls-38" d="M238.18,228.26a.62.62,0,0,1-.15-1c1.51-1.61,4.8-2.8,8.57-3.13l.37,0c3.74-.27,7.08.4,9.2,1.85a.61.61,0,0,1,.12,1,.85.85,0,0,1-.56.25,1,1,0,0,1-.6-.15c-1.78-1.19-4.74-1.78-8-1.55a3.11,3.11,0,0,0-.33,0c-3.31.28-6.23,1.31-7.45,2.61A1,1,0,0,1,238.18,228.26Z"/><path class="cls-40" d="M233.46,245.88a15.69,15.69,0,0,1-9.45,4,14.1,14.1,0,0,1-10.71-4.19c-2-2.16.5-14,1.75-20.75.81-4.41,14.44-5.87,15.89-.12C233.47,234.82,235.34,244,233.46,245.88Z"/><path class="cls-38" d="M233.54,243.59a14.38,14.38,0,0,1-20.26.51c-2-2,.52-13.15,1.77-19.43.82-4.12,14.44-5.51,15.89-.13C233.46,233.93,235.23,241.68,233.54,243.59Z"/><path class="cls-41" d="M230,219.45l.5-7-15.72.4,1,8.13c-.23,8.24-.84,11.58-.17,13.75,1.48,4.79,13.52,5.31,15.73-.59C232,232.1,231,229.28,230,219.45Z"/><path class="cls-38" d="M213.94,228.89a.62.62,0,0,1-.13-1c1.55-1.57,4.87-2.67,8.64-2.9l.38,0c3.74-.16,7.07.6,9.15,2.1a.62.62,0,0,1,.09,1,.89.89,0,0,1-.57.23,1,1,0,0,1-.59-.17c-1.75-1.24-4.69-1.9-8-1.76l-.33,0c-3.31.19-6.26,1.15-7.52,2.42A1,1,0,0,1,213.94,228.89Z"/><path class="cls-42" d="M243.67,114.77c-1.53,4.83-10.17,6.41-19.32,3.54s-15.33-9.13-13.81-14,10.17-6.41,19.32-3.53S245.19,109.94,243.67,114.77Z"/><path class="cls-37" d="M184.35,93.53c2.41,8.2,10.62,13.14,16.64,12.14s7-7.82,5.65-15.76-7.27-13.58-13.29-12.56C185.12,78.75,182.08,85.82,184.35,93.53Z"/><path class="cls-25" d="M192,95.31c.58,3.48,3.54,5.88,6.61,5.38s5.09-3.75,4.51-7.23-3.54-5.89-6.61-5.38S191.39,91.83,192,95.31Z"/><path class="cls-37" d="M274.31,91.4c-2,8.32-9.92,13.68-16,13S251,97,251.86,89,258.41,75,264.48,75.72C272.77,76.69,276.17,83.59,274.31,91.4Z"/><path class="cls-25" d="M266.63,93.36c-.4,3.5-3.22,6.06-6.32,5.71s-5.27-3.47-4.88-7,3.23-6.06,6.32-5.71S267,89.85,266.63,93.36Z"/><path class="cls-36" d="M270.37,64.91c.71,27.14-16.15,39.79-40.2,40.42s-43.55-11.06-44.26-38.2,18.3-33.95,42.36-34.58S269.66,37.78,270.37,64.91Z"/><path class="cls-37" d="M261.21,54.17c2.17,4.49,1.86,44.64-2.63,50.35-4.76,6.06-24.59,12.26-28.78,12.37-4.5.12-24.2-4.46-28.17-10.88-4.7-7.6-7.63-43.23-6.31-47.52,4.48-14.47,17-15.28,33.27-15.71C243.87,42.39,255.57,42.5,261.21,54.17Z"/><path class="cls-43" d="M202.43,93.72c0,1.58,2.16,2.9,4.87,2.94s4.92-1.21,4.94-2.79-2.15-2.89-4.86-2.93S202.46,92.15,202.43,93.72Z"/><path class="cls-43" d="M247.46,92.16c.2,1.57,2.53,2.56,5.22,2.22s4.71-1.88,4.51-3.45-2.54-2.56-5.22-2.22S247.26,90.59,247.46,92.16Z"/><path class="cls-27" d="M242.4,95.69c-.66-2.68-4.78-1.76-11.56-1.45l-2.09.11c-6.79.4-11-.08-11.35,2.65-.73,5.26,6.12,10.6,13,10.26h.12C237.42,106.87,243.67,100.84,242.4,95.69Z"/><path class="cls-28" d="M230.54,107.36h-.12a14.18,14.18,0,0,1-6.81-1.47l-.13-.07.1-.1a10.53,10.53,0,0,1,13.59-.72l.11.1-.13.07A14.08,14.08,0,0,1,230.54,107.36Z"/><path class="cls-29" d="M230,97.77c-4.75.25-8.77-1-9.37-2.94l0-.12,18.42-1,0,.13C238.58,95.84,234.71,97.52,230,97.77Z"/><path class="cls-30" d="M232.59,91.52a.37.37,0,0,1-.38-.29,2.68,2.68,0,0,0-5.24.26.37.37,0,0,1-.41.34.38.38,0,0,1-.34-.4,3.43,3.43,0,0,1,6.72-.37.37.37,0,0,1-.29.45Z"/><path class="cls-34" d="M253.57,65.69a1.08,1.08,0,0,1-.69-.32c-2.4-2.5-7.24-3.51-11.27-2.34a1.06,1.06,0,0,1-.58-2c4.8-1.39,10.43-.17,13.38,2.91a1.06,1.06,0,0,1,0,1.5A1.07,1.07,0,0,1,253.57,65.69Z"/><path class="cls-34" d="M203.13,68.93a1.06,1.06,0,0,1-1-1.73c2.73-3.27,8.27-4.87,13.15-3.82a1.06,1.06,0,1,1-.44,2.07c-4.1-.88-8.86.45-11.08,3.11A1.08,1.08,0,0,1,203.13,68.93Z"/><path class="cls-36" d="M272.11,72.54c-4.79-1.31-5.68-6.2-6.56-14,2.64-.82-2-19.79-15.65-24.89-17.85-6.67-39.6-3.05-48.52,4.16-9.5,7.68-10.72,16.63-11.77,27.28-.85,8.65,3,14.69-3,20.17,7.32-.22,11.29-6.45,12.18-12,1-6.13-2.18-11.5-1.45-13.93.42-1.4,7.9-8,9.91-8.19,4.38-.49,8.94,11.75,24.45,10.22-6.54-3-10.36-7.58-14.37-14.3a24,24,0,0,1,3.88,2.46c13.67,10.55,27.89,12.47,38.77,10.59,1.36,11.48-3.43,17.74,10.77,21-1.38-1.49-3.6-6.14-4.17-9.91C268.1,72.05,269.75,75,272.11,72.54Z"/><path class="cls-31" d="M237.54,77.76c-2.41,3.92-1.87,8.08.49,9.56,3.56,2.22,11.73,2.51,14.59-1.1s1-9.54-3.9-11.93A8.52,8.52,0,0,0,237.54,77.76Z"/><path class="cls-32" d="M252.64,76c-4-5.7-12.91-3.26-15.18,1.94a8.62,8.62,0,0,1,11.16-3.38,9.07,9.07,0,0,1,4.88,6,7.27,7.27,0,0,1-1,5.87C253.82,85.43,255.61,80.14,252.64,76Z"/><path class="cls-44" d="M238.67,81a5.14,5.14,0,1,0,6.55-3.17A5.14,5.14,0,0,0,238.67,81Z"/><path class="cls-33" d="M239.07,80.54a1.42,1.42,0,1,0,1.82-.87A1.42,1.42,0,0,0,239.07,80.54Z"/><path class="cls-31" d="M219.6,78.53c2.75,3.7,2.57,7.9.35,9.57-3.36,2.53-11.47,3.52-14.63.17s-1.86-9.41,2.84-12.22A8.52,8.52,0,0,1,219.6,78.53Z"/><path class="cls-32" d="M204.41,78c3.52-6,12.57-4.37,15.28.62a8.6,8.6,0,0,0-11.4-2.4A9,9,0,0,0,204,82.69a7.28,7.28,0,0,0,1.54,5.76C204.06,87.59,201.81,82.47,204.41,78Z"/><path class="cls-44" d="M209.23,82.29a5.14,5.14,0,1,0,6.54-3.16A5.14,5.14,0,0,0,209.23,82.29Z"/><path class="cls-33" d="M209.62,81.82a1.43,1.43,0,1,0,1.82-.88A1.44,1.44,0,0,0,209.62,81.82Z"/><path class="cls-23" d="M188,62.61c5.37-19,17.87-29.74,39.72-31,17.93-1.08,32.08,8.24,40.06,27.54-10.25-15.31-23.33-22.46-41.51-21C209.6,39.48,196.82,47.08,188,62.61Z"/><path class="cls-45" d="M261,141.09c-.82,1.08,1.51,2.52,2.93,2.63,1.13.09,5.75-4.59,4.85-5.28C266.92,138.39,261.77,140,261,141.09Z"/><path class="cls-45" d="M204.22,143.5c.93,1-1.24,2.67-2.63,2.93-1.12.21-6.21-4-5.38-4.74C198,141.44,203.29,142.51,204.22,143.5Z"/><path class="cls-29" d="M256.36,144.61l-1.06-2.13a45.89,45.89,0,0,1-5.52,2.09l-.37-.71a3.61,3.61,0,1,0-3.63,1.16c0,.25,0,.49.05.73a48.93,48.93,0,0,1-6,1.34l.13,2.33a23.78,23.78,0,0,0,4-.74c.61-.14,1.26-.31,1.92-.48.33,3.39.93,11.92.93,11.92a9.43,9.43,0,0,0,3.34-.51c-.41-2.37-.84-4.74-1.08-5.92.32-.08,2-.57,2.1-.61.46,1.16,1.32,3.32,2.19,5.56,1.52-.53,2.75-1.1,2.92-1.5-1.06-2.33-3.95-7.95-5.34-10.45A44.75,44.75,0,0,0,256.36,144.61Z"/><path class="cls-46" d="M271.08,136.4l-1.48-1.86a45.29,45.29,0,0,1-5,3.24l-.51-.62a3.61,3.61,0,1,0-3.3,1.91l.2.71a39.83,39.83,0,0,1-5.73,2.7l.95,2.17a33.09,33.09,0,0,0,5.36-2.5c1.05,3.25,3.47,11.45,3.47,11.45a9.12,9.12,0,0,0,3.15-1.22c-.91-2.22-1.84-4.44-2.33-5.54.3-.15,1.84-1,1.92-1.05.7,1,2,3,3.34,5,1.37-.85,2.45-1.66,2.53-2.09-1.54-2-5.57-6.92-7.46-9.06A46.93,46.93,0,0,0,271.08,136.4Z"/><path class="cls-46" d="M208.94,143.23a44.65,44.65,0,0,1-5.64-1.41c0-.26.07-.52.1-.8a3.6,3.6,0,1,0-3.65-1.1c-.12.22-.25.42-.37.63a34.46,34.46,0,0,1-5.73-2.39l-1.29,2A33.72,33.72,0,0,0,198,142.6c-1.65,3-6,10.36-6,10.36a9.36,9.36,0,0,0,3,1.46c1-2.18,2-4.37,2.46-5.49.31.12,2,.67,2.08.69-.27,1.22-.79,3.48-1.34,5.82,1.55.43,2.88.66,3.25.43.45-2.53,1.25-8.8,1.52-11.64a46.63,46.63,0,0,0,5.65,1.35Z"/><path class="cls-29" d="M224.58,146.81c-1-.21-3.6-.47-5.84-.93l0-.81a3.61,3.61,0,1,0-3.73-.78c-.11.23-.21.45-.32.67-2.67-.68-4.74-1.38-5.82-1.76l-.85,2.26a43.3,43.3,0,0,0,5.51,1.65c-1.38,3.12-5.06,10.84-5.06,10.84a9.43,9.43,0,0,0,3.16,1.2c.81-2.27,1.6-4.54,2-5.69.32.09,2,.5,2.13.5-.17,1.24-.48,3.54-.83,5.92,1.58.29,2.93.4,3.28.14.22-2.55.48-8.87.5-11.73a45.68,45.68,0,0,0,5.74.86Z"/><path class="cls-46" d="M240.51,147a44.51,44.51,0,0,1-5.91.37l-.15-.79a3.59,3.59,0,1,0-3.81,0c0,.24-.11.47-.17.71a33.82,33.82,0,0,1-6.17-.58l-.64,2.29a33.42,33.42,0,0,0,6.15.65c-.69,3.34-2.64,11.66-2.64,11.66a9,9,0,0,0,3.34.5c.31-2.39.6-4.77.71-6,.34,0,2.08,0,2.19,0,.1,1.24.29,3.56.46,6,1.6-.06,2.94-.23,3.23-.57-.33-2.53-1.43-8.76-2-11.56a45.29,45.29,0,0,0,5.79-.39Z"/><path class="cls-37" d="M197.73,153.08c.33.6-1.27,2.4-2.32,2.18-.79-.16-1.64-.74-1.22,0s-1.2,1.72-2.4,1.33c-1.4-.46-6.56-4.17-8-7.08-1-1.85-.15-2.75,1.83-4.71,1.72-1.37,6.15-3,11-3.14,2.77,1.79,5.58,3.52,7.18,4.76,3.54,3.18,5.54,4.43,4.76,5.12-2,1.81-5.13-.81-7-2.19a21.77,21.77,0,0,0-4.51-1.75c-.39.24,3.49,2.38,4.87,3.52.37,1.16-1.78,2.71-3.17,2s-3.19-1.91-4.11-2.42A24,24,0,0,0,197.73,153.08Z"/><path class="cls-37" d="M268.42,149.93c-.27.64,1.51,2.26,2.53,1.93.77-.25,1.55-.91,1.21-.12s1.38,1.58,2.53,1.07c1.34-.6,6.08-4.84,7.26-7.89.75-1.94-.14-2.74-2.31-4.49-1.85-1.18-6.43-2.36-11.22-2-2.56,2.07-5.18,4.08-6.64,5.49-3.19,3.53-5,5-4.2,5.59,2.22,1.59,5-1.35,6.75-2.92a22.9,22.9,0,0,1,4.3-2.22c.42.21-3.21,2.75-4.47,4-.24,1.19,2.06,2.51,3.35,1.61s3-2.24,3.84-2.84A23.05,23.05,0,0,1,268.42,149.93Z"/><path class="cls-37" d="M269.57,142.17a.48.48,0,0,0,.12.13.5.5,0,0,0,.15.07.56.56,0,0,0-.11-.13A.37.37,0,0,0,269.57,142.17Z"/><polygon class="cls-9" points="566.37 316.78 624.08 316.78 664.17 331.87 608.73 331.87 566.37 316.78"/><path class="cls-10" d="M616.67,283.83H583.08a2.31,2.31,0,0,1,0-4.61h33.59a7.5,7.5,0,0,0,7.49-7.49L626.23,218a2.16,2.16,0,0,1,2.39-2.21,2.31,2.31,0,0,1,2.22,2.39l-2.07,53.62A12.1,12.1,0,0,1,616.67,283.83Z"/><path class="cls-10" d="M622.23,317.79a2.32,2.32,0,0,1-2.22-1.66l-8.27-28.49c-.63-2.17-3.79-3.81-7.35-3.81H585.92c-3.57,0-6.73,1.64-7.36,3.81l-8.25,28.48a2.3,2.3,0,1,1-4.43-1.27l8.25-28.49c1.22-4.21,6.07-7.14,11.79-7.14h18.47c5.72,0,10.56,2.93,11.78,7.13l8.27,28.49a2.31,2.31,0,0,1-1.57,2.86A2.35,2.35,0,0,1,622.23,317.79Z"/><path class="cls-11" d="M657.66,298.09h-33.6a2.31,2.31,0,0,1,0-4.61h33.6a7.49,7.49,0,0,0,7.48-7.48l2.07-53.72a2.3,2.3,0,0,1,2.31-2.21h.09a2.3,2.3,0,0,1,2.21,2.39l-2.07,53.63A12.08,12.08,0,0,1,657.66,298.09Z"/><path class="cls-12" d="M579.64,280h42.11c.08,0,.17,0,.24,0s29.88,12.84,29.87,13.82l-33.91.69a11.4,11.4,0,0,1-4.43-.8Z"/><path class="cls-12" d="M613.67,293.67l-33.62-13.05a1.61,1.61,0,0,1-1-1.5V277a1.61,1.61,0,0,1,2.19-1.5l33.62,13.06a1.6,1.6,0,0,1,1,1.5v2.12A1.61,1.61,0,0,1,613.67,293.67Z"/><path class="cls-6" d="M580.89,275.38h42.66l32.94,12.52a2.73,2.73,0,0,1,1.8,2.61L617.39,289a9.57,9.57,0,0,1-3.26-.66Z"/><path class="cls-6" d="M623.11,218.08l-1.23,26.44a4.7,4.7,0,0,0,3.16,4.65l32.48,11.13a4.68,4.68,0,0,0,6.2-4.22L665,227.87a4.68,4.68,0,0,0-3.38-4.7l-32.49-9.38A4.68,4.68,0,0,0,623.11,218.08Z"/><path class="cls-7" d="M627.32,218.08l-1.23,26.44a4.7,4.7,0,0,0,3.16,4.65l29,11.31c7,1.22,9.59-1.28,9.73-4.4l1.23-28.21a4.83,4.83,0,0,0-3.44-4.78l-32.43-9.3A4.68,4.68,0,0,0,627.32,218.08Z"/><path class="cls-6" d="M623.11,218.08l-1.23,26.44a4.7,4.7,0,0,0,3.16,4.65l32.48,11.13a4.68,4.68,0,0,0,6.2-4.22L665,227.87a4.68,4.68,0,0,0-3.38-4.7l-32.49-9.38A4.68,4.68,0,0,0,623.11,218.08Z"/><path class="cls-8" d="M661.57,223.17l-32.49-9.38a4.34,4.34,0,0,0-.52-.08l-.34-.1h4.41l33.09,9.48a4.77,4.77,0,0,1,2.56,1.85s-3.75.47-4,.44A4.58,4.58,0,0,0,661.57,223.17Z"/><path class="cls-47" d="M608.87,280.46c-.42,2.69-.11,5.36,4.23,6.05s11.34.17,11.77-2.52-3-6.45-7.36-7.14S609.3,277.78,608.87,280.46Z"/><path class="cls-47" d="M582.52,276.93c-.63,2.65-.53,5.34,3.75,6.36s11.29,1,11.92-1.6-2.51-6.67-6.78-7.69S583.16,274.29,582.52,276.93Z"/><path class="cls-15" d="M574.16,275.82c2.4-7.84,4-9.25,7.08-10.8,2.39-1.19,5.7-1.11,8.15-1.36,10,4.25,4.16,17.31,3.29,18.78-2.55-.54-3.47.54-3.47.54-3,10.24-6.41,22-7.37,25.1-1.3-.07-13.53-3.69-14.15-3.95C568.61,299.61,572.33,281.81,574.16,275.82Z"/><path class="cls-48" d="M582.76,314.17c0,.24-17.24-1.38-17.26-1.67-.12-2.6.47-8.78.45-10.28L584.33,305C583.78,307.7,583.12,312.43,582.76,314.17Z"/><path class="cls-49" d="M563.81,310.75c.23-.87.72-2,1.1-3,.28-.75,7.64-.67,7.67,1.13a12,12,0,0,1,0,1.25c1.26,0,2.62,0,4.06-.08a70.32,70.32,0,0,0,7.92-.73c.14,2.86-.08,7.81.05,11,0,0-32.79,6.33-38,1.6C545.11,320.57,553.32,314.56,563.81,310.75Z"/><path class="cls-50" d="M584.53,318.31c0,.71,0,1.39,0,2,0,0-32.79,6.33-38,1.6-.21-.19-.22-.47-.06-.83C555.58,323,576.38,319.73,584.53,318.31Z"/><path class="cls-19" d="M566,313.48a.45.45,0,0,0,.38.18.43.43,0,0,0,.26-.09.47.47,0,0,0,.09-.65,5.56,5.56,0,0,0-5.42-2.12.44.44,0,0,0-.34.54.46.46,0,0,0,.54.35A4.6,4.6,0,0,1,566,313.48Zm-2.32,1.14a.54.54,0,0,0,.35.14.48.48,0,0,0,.3-.13.46.46,0,0,0,0-.65,6.43,6.43,0,0,0-5.46-2,.46.46,0,0,0-.4.51.45.45,0,0,0,.51.4A5.44,5.44,0,0,1,563.68,314.62Zm-7.82-.84a.44.44,0,0,0,.53.37,6,6,0,0,1,4.89,1.75.46.46,0,0,0,.33.13.55.55,0,0,0,.32-.14.46.46,0,0,0,0-.65,7,7,0,0,0-5.68-2A.45.45,0,0,0,555.86,313.78Z"/><path class="cls-39" d="M591.89,283.94c1.55-7.72,2.7-12.78-.68-17.27-2.24-3-8.08-2.94-11.48-1-1.1-1.72,11.72-5.05,22.54-8.33,2.42-.73,23.51,2.42,28.46,3.36-.15,9.17-.62,16.13-5.19,19.9-2.61,2.15-16.93,2.78-20.91,2.86C598.87,283.59,596,283.83,591.89,283.94Z"/><path class="cls-15" d="M559.81,196c-1-.77,4.89-9,5.92-8.27,15.39,10.62,35.44,22.75,39.75,25l-8.44,11C588.28,217.45,572.75,206.23,559.81,196Z"/><path class="cls-51" d="M586,199.63c-2.56,3.83-6.76,12-9.15,16.18,8.27,5.51,19.18,12.9,19.92,12.91,7.62,0,11.93-18.18,12.62-18.9C604.9,207.75,594.24,204.75,586,199.63Z"/><path class="cls-51" d="M643.67,258.47c-10.43-.29-23.27,6.46-31.35,5.59-7.6-.81-8.36-3.5-18.5-4.46-1.51-1.8,2.4-1.46,2.42-2.35.24-13,.34-35.61,1.62-46.62,4.85-1,29.76-4.22,43.78,1.61C642.38,223.43,643.83,246.7,643.67,258.47Z"/><path class="cls-52" d="M605.82,211.76a4.59,4.59,0,0,1,1.18-2.94c.52-.09,15.55-.74,23.53.26a3.09,3.09,0,0,1,.06.34c.49,5.14-4.57,10.24-11.41,10.88S606.31,216.89,605.82,211.76Z"/><path class="cls-15" d="M608.83,197.18l.31,15.1c.06,3.25,4.21,5.82,9.32,5.73s9.21-2.8,9.15-6.06l-.31-15.16Z"/><path class="cls-22" d="M606.37,207.22a6,6,0,0,1-.11-1.63A151.47,151.47,0,0,1,625.75,202a5.65,5.65,0,0,1,.29.67c1,4.19-2.61,8.61-8,9.87S607.36,211.4,606.37,207.22Z"/><g class="cls-53"><path d="M602.09,271.75c3.59-5.6,12.5-7.18,19.43-8.76l3.18.38c.07,1.07.12,2.1.17,3.11-.76,6.35-2.25,10.82-5.17,14.83-1.51,2.07-17.9,2.37-21.89,2.39C598,277.64,599.77,275.38,602.09,271.75Z"/></g><path class="cls-15" d="M600.83,280.41c1.78-8,3.25-9.53,6.22-11.31,2.3-1.38,5.6-1.55,8-2,10.3,3.46,5.49,16.93,4.74,18.47-2.58-.35-3.42.81-3.42.81-2.14,10.43-4.68,22.43-5.4,25.59-1.3,0-13.77-2.63-14.41-2.84C597.15,304.56,599.47,286.53,600.83,280.41Z"/><path class="cls-48" d="M612.39,318c0,.24-17.3,0-17.34-.33-.32-2.58-.22-8.78-.35-10.28l18.53,1.3C612.9,311.45,612.6,316.21,612.39,318Z"/><path class="cls-49" d="M592.8,315.78c.26-.87.77-2,1.16-3,.3-.75,7.65-.53,7.65,1.28a9.33,9.33,0,0,1-.07,1.24c1.26,0,2.63,0,4.07,0a71.22,71.22,0,0,0,7.93-.57c.08,2.86-.23,7.8-.16,11,0,0-32.91,5.7-38,.87C573.92,325.24,582.24,319.39,592.8,315.78Z"/><path class="cls-50" d="M613.38,323.74c0,.71,0,1.39,0,2,0,0-32.91,5.7-38,.87a.69.69,0,0,1-.05-.83C584.34,327.86,605.2,325,613.38,323.74Z"/><path class="cls-19" d="M594.94,318.55a.46.46,0,0,0,.38.19.51.51,0,0,0,.26-.09.45.45,0,0,0,.1-.64,5.56,5.56,0,0,0-5.37-2.24.47.47,0,0,0-.36.55.46.46,0,0,0,.54.35A4.6,4.6,0,0,1,594.94,318.55Zm-2.34,1.09a.49.49,0,0,0,.35.15.53.53,0,0,0,.3-.12.46.46,0,0,0,0-.65,6.43,6.43,0,0,0-5.42-2.13.45.45,0,0,0-.41.5.45.45,0,0,0,.5.41A5.45,5.45,0,0,1,592.6,319.64Zm-7.81-1a.46.46,0,0,0,.53.39,6,6,0,0,1,4.85,1.83.47.47,0,0,0,.34.14.43.43,0,0,0,.31-.14.46.46,0,0,0,0-.65,7.05,7.05,0,0,0-5.64-2.09A.46.46,0,0,0,584.79,318.65Z"/><path class="cls-39" d="M618.68,286.74c2.19-7.62.94-13.68-2.46-16.57-3.77-3.19-9.09-1.94-11.64.8-1.15-2.26,6-4.81,21.06-8.9,2.44-.67,13.09.37,18.12.76.87,9.12,1.17,16.09-3,20.35-2.36,2.43-7.28,3.1-11.25,3.26C625.43,286.62,623.26,286.63,618.68,286.74Z"/><path class="cls-51" d="M618.4,263.3c7.69-1.64,13-.47,17.58,3.79,3.13,3,9.48,3.17,9.29.21s-1.16-10.12-1.31-12.55C639.65,254.75,617.85,257.35,618.4,263.3Z"/><path class="cls-15" d="M592.65,237c-.71-.25,2.09-8.57,2.8-8.35,10.84,3.43,28.71,5.38,31.82,6.14-1.42,4.74-2.39,8.84-6.49,9.72C617,245.31,603.05,240.72,592.65,237Z"/><path class="cls-15" d="M575.69,173.06c.23,8,5.75,14.22,10.76,14.61s7.16-5.6,7.74-13.09-3-13.89-8-14.26C579.35,159.81,575.47,165.57,575.69,173.06Z"/><path class="cls-13" d="M578.27,151.25c-2.68,26.64,13.73,40.4,38.4,42.88s44-7.68,46.64-34.33-14.79-34.65-39.46-37.13S581,124.6,578.27,151.25Z"/><path class="cls-15" d="M582.37,186.13c1.07,11.6,13.83,21.44,24.47,22.37,22.38,1.95,46.86-8.77,50-40S644,134.84,622.09,132.64c-14.63-1.47-26.87-2.41-33.88,6.66C583.88,144.89,581.72,179,582.37,186.13Z"/><path class="cls-13" d="M593.63,111.59c-1.06,3.59.43,6.84,3.33,9.78-1.68-4.7-1.2-10.49,4.36-17.13,3.06,3,6.31,6.17,9.56,9.32a15.63,15.63,0,0,1,.85-6.14c4.9,7.89,10.77,8.21,29.57,14.61,12.86,4.37,14.64,13.32,12.53,18.07-8.73-2.91-22.16.49-31.85-.48-12.14-1.22-21.18-4.28-25.65-8.18C590.91,126.7,587.13,118.06,593.63,111.59Z"/><path class="cls-31" d="M602.25,167.2c1.82,4.14,1,8.33-1.25,9.67-3.36,2-10.67,1.78-12.91-2.07s-.1-9.75,4.49-11.85C596.61,161.1,600.5,163.19,602.25,167.2Z"/><path class="cls-54" d="M589,164.37c4.08-5.52,11.78-2.47,13.36,3-1.81-4.14-5.93-5.87-9.65-4.17A9.21,9.21,0,0,0,587.8,169a8.22,8.22,0,0,0,.42,6C587.09,173.92,586,168.44,589,164.37Z"/><path class="cls-13" d="M597.44,169a5.5,5.5,0,0,1-3.38,6.44c-2.47.78-5-.85-5.57-3.64a5.51,5.51,0,0,1,3.38-6.44C594.34,164.63,596.83,166.26,597.44,169Z"/><path class="cls-33" d="M597.12,168.54a1.52,1.52,0,0,1-.93,1.78,1.23,1.23,0,0,1-1.55-1,1.51,1.51,0,0,1,.94-1.78A1.22,1.22,0,0,1,597.12,168.54Z"/><path class="cls-31" d="M620.69,169.46c-3.08,3.54-3.24,7.82-1.12,9.7,3.21,2.83,11.37,4.49,14.85,1.35s2.64-9.41-1.91-12.65A8.68,8.68,0,0,0,620.69,169.46Z"/><path class="cls-54" d="M636.17,170.19c-3.09-6.41-12.42-5.45-15.58-.6a8.77,8.77,0,0,1,11.78-1.53,9.24,9.24,0,0,1,3.89,6.89,7.41,7.41,0,0,1-2,5.72C635.76,179.92,638.45,174.9,636.17,170.19Z"/><path class="cls-13" d="M629.13,172.83a5.24,5.24,0,1,1-6.4-3.74A5.24,5.24,0,0,1,629.13,172.83Z"/><path class="cls-33" d="M628.76,172.32a1.45,1.45,0,1,1-1.77-1A1.46,1.46,0,0,1,628.76,172.32Z"/><path class="cls-13" d="M590.43,151.71a1.62,1.62,0,0,0,1.14-.11c2.88-1.45,7.47-.82,10.67,1.47a1.62,1.62,0,0,0,1.88-2.63c-4.17-3-10.06-3.7-14-1.72a1.61,1.61,0,0,0-.72,2.16A1.56,1.56,0,0,0,590.43,151.71Z"/><path class="cls-13" d="M639.18,157.69a1.58,1.58,0,0,0,1.22-.5,1.61,1.61,0,0,0-.06-2.28c-3.18-3-9-4.06-13.88-2.43a1.61,1.61,0,1,0,1,3.06c3.74-1.26,8.31-.52,10.64,1.71A1.62,1.62,0,0,0,639.18,157.69Z"/><path class="cls-27" d="M597.39,186.18c.81-2.84,5.18-1.71,12.43-1.13l2.24.2c7.24.68,11.75.31,12.05,3.25.58,5.65-6.94,11.12-14.31,10.5h-.12C602.31,198.33,595.84,191.65,597.39,186.18Z"/><path class="cls-28" d="M602.66,196.53l-.13-.08.13-.1a11.27,11.27,0,0,1,14.51,1.26l.11.12-.15.06a15.11,15.11,0,0,1-7.34,1.33h-.12A15.24,15.24,0,0,1,602.66,196.53Z"/><path class="cls-29" d="M601.13,184.35l0-.13,19.68,1.71,0,.13c-.71,2-5.07,3.24-10.13,2.8S601.48,186.48,601.13,184.35Z"/><path class="cls-30" d="M606.65,180.81a.37.37,0,0,0,.39-.27,2.5,2.5,0,0,1,2.79-1.85,2.47,2.47,0,0,1,2.36,2.36.37.37,0,1,0,.74,0,3.38,3.38,0,0,0-6.6-.67.38.38,0,0,0,.26.46Z"/><path class="cls-13" d="M645,160.81c-1,13.11,3,21.92,8.6,22.46s11.22-14.76,12.49-27.85c1.47-15-5.85-21.78-11.33-23.23S646.07,145.9,645,160.81Z"/><path class="cls-15" d="M664.07,187.28c-3.43,8.18-12.45,12.33-18.54,10.61s-1.74-26.85,9.78-27.44C664.89,170,667.29,179.6,664.07,187.28Z"/><path class="cls-15" d="M657.22,186c-1,3.52-5.45,6-8.34,4.56-1.13-.56,2.63-12.79,4.52-12.52C656.59,178.44,658.22,182.43,657.22,186Z"/><path class="cls-11" d="M609.08,332.13a2.28,2.28,0,0,1-.63-.09,2.32,2.32,0,0,1-1.58-2.86l8.25-28.49c1.22-4.2,6.07-7.14,11.79-7.14h18.46c5.72,0,10.57,2.94,11.8,7.13l8.26,28.5a2.3,2.3,0,1,1-4.42,1.28L652.74,302c-.63-2.17-3.8-3.81-7.37-3.81H626.91c-3.57,0-6.73,1.64-7.36,3.82l-8.25,28.48A2.32,2.32,0,0,1,609.08,332.13Z"/><path class="cls-7" d="M618.66,294.59h37.2a2.79,2.79,0,1,0,0-5.57h-37.2a2.79,2.79,0,1,0,0,5.57Z"/><path class="cls-15" d="M566,191.94a8.3,8.3,0,0,1-8,4.39,19.46,19.46,0,0,1-10.49-3.82c.21-1.33-.18-8,2.29-10.88,2.25-1.6,6.59-1.07,12.51-4.23C564.12,178.74,569.06,186.23,566,191.94Z"/><path class="cls-55" d="M550.54,190.57c.65-.49-.75-8.34,6-9.59.68-.23,3,1.89,3.84,1.4-.95,2.62-1.59,6,.79,8.75C558.83,193.9,551.14,192.85,550.54,190.57Z"/><path class="cls-15" d="M545.24,188.45c0,1.34,2.4,2.5,5.28,2.61s5.17-.88,5.13-2.22-2.4-2.5-5.28-2.61S545.2,187.12,545.24,188.45Z"/><path class="cls-15" d="M546.23,191.87c0,1.18,2,2.21,4.4,2.3s4.32-.8,4.29-2-2-2.21-4.4-2.3S546.2,190.69,546.23,191.87Z"/><path class="cls-56" d="M548.71,149.72c-1.25,0-2.13,2.95-2.07,4.42l1.07,24.33,3.38-.14-.13-2.48s-.14-1.5.55-1.55a1.3,1.3,0,0,0,1-.54,3.81,3.81,0,0,0,.14-1.69L551.19,154C551.12,152.53,550,149.68,548.71,149.72Z"/><path class="cls-57" d="M548.31,170.4a1.63,1.63,0,0,0,1.62,1.62,1.59,1.59,0,0,0,1.44-1.75,1.64,1.64,0,0,0-1.62-1.62A1.6,1.6,0,0,0,548.31,170.4Z"/><path class="cls-58" d="M547.47,173l1.14,1.4c.34.43,1,1.17,1.6,1.24a1.68,1.68,0,0,0,.74-.09c0-.43.06-1.23.56-1.27a1.3,1.3,0,0,0,1-.54,3.81,3.81,0,0,0,.14-1.69l-.27-3.34L547,162.65Z"/><path class="cls-59" d="M556.83,174.57,541.21,157c-1-1-3.51-2.37-4.4-1.41s.23,3.81,1.17,4.88l11.12,13.6s.77,1,1.24,1a1.29,1.29,0,0,0,1.08-.44c.5-.5,1.41.63,1.41.63l1.58,1.8Z"/><path class="cls-51" d="M551.54,178.51l-.13-1.58-4.11.34.08,1a8.33,8.33,0,0,0-.84.17,6.37,6.37,0,1,0,5,.1Zm-1,9.2a3.86,3.86,0,1,1,2-5.06A3.86,3.86,0,0,1,550.49,187.71Z"/><path class="cls-51" d="M557.53,173.74a7.07,7.07,0,0,0-.63.44l-.64-.72-3.09,2.73,1,1.12a6.16,6.16,0,0,0,.06,4.62,6.25,6.25,0,1,0,3.31-8.19Zm4,9.3a3.86,3.86,0,1,1,2-5.06A3.86,3.86,0,0,1,561.48,183Z"/><path class="cls-51" d="M551.17,171a1,1,0,1,1-1.26-.51A1,1,0,0,1,551.17,171Z"/><path class="cls-15" d="M554.81,177.09c-1,3.32,3.29,5.6,6.4,5.57,2.22,0,2.76-4.38,1.09-5.26C560.16,176.82,555.2,175.78,554.81,177.09Z"/><path class="cls-15" d="M544.93,183c-.39,1.31,1.27,3.06,3.69,3.93s4.71.51,5.1-.8-1.27-3.06-3.7-3.92S545.31,181.66,544.93,183Z"/><path class="cls-15" d="M546.27,178.92c-.49,1.29,1,3.16,3.34,4.18s4.62.82,5.11-.47-1-3.16-3.34-4.18S546.76,177.63,546.27,178.92Z"/><path class="cls-60" d="M613.58,231.69c1.47-1.24,10.8-10.09,13.67-12,1.08.29,18,4.27,18.69,11-.72,1.73-16.31,17.38-17.72,19.06C625.42,246.48,616.15,235.34,613.58,231.69Z"/><path class="cls-51" d="M614.48,231.47c2.5-2.52,17.6-16.95,23-20.69,2.2.42,7,2.28,8.13,4.95,1.53,3.6,2.69,10.36,1.62,13.48-1,1.51-15.62,15-18.47,17.92C626,243.9,617.25,234.88,614.48,231.47Z"/><ellipse class="cls-61" cx="345.01" cy="283.41" rx="252.19" ry="111.11"/><ellipse class="cls-62" cx="344.54" cy="268.66" rx="252.19" ry="111.11"/><polygon class="cls-63" points="528.72 221.58 486.35 240.84 442.92 208.49 481.59 194.54 528.72 221.58"/><polygon class="cls-64" points="562.01 228.97 526.21 245.24 489.52 217.9 522.19 206.12 562.01 228.97"/><polygon class="cls-29" points="373.17 197.11 311.69 197.11 315.91 164.03 369.54 164.03 373.17 197.11"/><polygon class="cls-29" points="166.32 251.75 115.66 253.41 122.31 214.53 161.02 214.53 166.32 251.75"/><polygon class="cls-65" points="149.25 264.52 98.58 266.19 105.24 227.31 143.95 227.31 149.25 264.52"/><polygon class="cls-66" points="319.4 347.11 271.83 342.4 275.9 306.14 317.27 311.22 319.4 347.11"/><polygon class="cls-67" points="307.48 319.07 239.17 332.86 236.19 293.92 295.78 281.89 307.48 319.07"/><polygon class="cls-29" points="348.41 365.86 289.25 364.9 293.84 332.05 345.46 332.89 348.41 365.86"/><polygon class="cls-29" points="499.51 340.75 437.7 366.72 405.02 333.35 466.83 307.38 499.51 340.75"/><path class="cls-68" d="M493.82,439.73a1.84,1.84,0,0,1-.33,0,2.31,2.31,0,0,1-2-2.6l4-28.18a2.32,2.32,0,0,1,2.6-2,2.3,2.3,0,0,1,2,2.6l-4,28.18A2.32,2.32,0,0,1,493.82,439.73Z"/><polygon class="cls-3" points="495.06 438.08 542.87 445.1 514.32 451.01 466.69 444.22 495.06 438.08"/><path class="cls-37" d="M498.52,432.05c0,.4-13.53-.53-13.54-1-.14-4.2.94-31.06.91-33.5l16.27,1.55C501.63,403.24,498.8,429.18,498.52,432.05Z"/><path class="cls-29" d="M500.76,433.56c0,.24-18.61,0-18.59-.34.18-2.9.59-9.51.7-12,.81.06,1.13,1.2,2.47,1.39,2.23.33,5.79-1.06,8.93-1.24,4.85-.27,5.82,1.09,5.82,1.09C500.32,426.25,500.65,431.73,500.76,433.56Z"/><path class="cls-69" d="M473.42,434.32c.5-.75,7.91-7.67,9.29-9.68-.68,5.59,2.67,3.85,3.74,2.9,2.22-2,6.13-3.84,9-3.88,2.55,0,4.76,1,5.58,3.52.3,2.84.34,7.78.65,10.94,0,0-21.09,3.88-28.44,1.41C471.69,438.29,472.71,435.38,473.42,434.32Z"/><path class="cls-70" d="M501.61,436.63a4.66,4.66,0,0,1,.05,2c-.4,1.08-9,2.09-15.53,2.27a63.78,63.78,0,0,1-13.37-1c-.27-.06-.39-.91-.25-1.27a130.05,130.05,0,0,0,14.2.14C490.26,438.64,498.64,438.44,501.61,436.63Z"/><path class="cls-19" d="M476.16,430.79a6.29,6.29,0,0,0-.38,1.36.35.35,0,0,0,.31.38h.05a.35.35,0,0,0,.33-.31,5.67,5.67,0,0,1,.33-1.17.35.35,0,0,0-.64-.26Zm2.12-2.05a6.53,6.53,0,0,0-.37,1.36.35.35,0,0,0,.31.38h0a.33.33,0,0,0,.32-.31,6.46,6.46,0,0,1,.34-1.17.35.35,0,0,0-.65-.26Zm2.35-2.2a.36.36,0,0,0-.45.2,6.61,6.61,0,0,0-.37,1.35.34.34,0,0,0,.31.38h.05a.33.33,0,0,0,.32-.31,6.46,6.46,0,0,1,.34-1.17A.35.35,0,0,0,480.63,426.54Z"/><path class="cls-37" d="M475.18,435.31c-.09.42-13.35-2.25-13.29-2.77.45-4.53-2.1-42.94,5-46.53,7.66-3.87,17.29-.23,17.29-.23C483.09,390.18,475.87,432.27,475.18,435.31Z"/><path class="cls-29" d="M479.16,435.67c0,.25-18.61.07-18.59-.23.16-2.91.53-9.51.63-12,.81,0,1.14,1.19,2.48,1.37,2.23.31,5.78-1.09,8.92-1.29,4.85-.3,5.83,1.06,5.83,1.06C478.68,428.37,479,433.84,479.16,435.67Z"/><path class="cls-69" d="M451.82,436.59c.5-.76,7.88-7.72,9.24-9.73-.64,5.59,2.69,3.83,3.76,2.87,2.2-2,6.11-3.87,9-3.93,2.55-.05,4.76.95,5.59,3.5.32,2.83.39,7.77.72,10.93,0,0-21.07,4-28.43,1.57C450.12,440.56,451.13,437.65,451.82,436.59Z"/><path class="cls-70" d="M480,438.74a4.52,4.52,0,0,1,.06,2c-.4,1.08-9,2.14-15.52,2.35a63.37,63.37,0,0,1-13.37-.91c-.27-.06-.4-.9-.26-1.27a130.41,130.41,0,0,0,14.2.07C468.7,440.81,477.07,440.57,480,438.74Z"/><path class="cls-19" d="M454.54,433.05a7.21,7.21,0,0,0-.37,1.36.36.36,0,0,0,.32.38h.05a.34.34,0,0,0,.32-.32,6.37,6.37,0,0,1,.33-1.17.35.35,0,0,0-.2-.45A.35.35,0,0,0,454.54,433.05Zm2.12-2.07a6.88,6.88,0,0,0-.37,1.36.35.35,0,0,0,.31.38h.06a.35.35,0,0,0,.32-.32,6.2,6.2,0,0,1,.32-1.16.34.34,0,0,0-.19-.45A.35.35,0,0,0,456.66,431Zm2.34-2.21a.35.35,0,0,0-.45.2,6,6,0,0,0-.37,1.36.33.33,0,0,0,.31.37h.05a.35.35,0,0,0,.33-.31,5.59,5.59,0,0,1,.32-1.17A.34.34,0,0,0,459,428.77Z"/><path class="cls-5" d="M541.22,446.53a2.31,2.31,0,0,1-2.26-1.89l-5.73-31.41a1.58,1.58,0,0,0-1.34-1.42l-30.08-3.55a1.59,1.59,0,0,0-1.74,1.3,2.32,2.32,0,0,1-2.6,2,2.3,2.3,0,0,1-2-2.6,6.17,6.17,0,0,1,6.86-5.23l30.08,3.54a6.15,6.15,0,0,1,5.33,5.28l5.72,31.3a2.32,2.32,0,0,1-1.86,2.68A3,3,0,0,1,541.22,446.53Z"/><polygon class="cls-6" points="503.91 400.35 537.77 402.78 509.23 408.7 470.5 404.59 503.91 400.35"/><path class="cls-5" d="M513.56,451.12a2.31,2.31,0,0,1-2.29-2l-4-30.57a1.54,1.54,0,0,0-1.32-1.32l-30.08-3.54a1.54,1.54,0,0,0-1.74,1.3l-4,28.18a2.27,2.27,0,0,1-2.6,2,2.31,2.31,0,0,1-2-2.61l4-28.18a6.2,6.2,0,0,1,6.87-5.23l30.08,3.55a6.15,6.15,0,0,1,5.33,5.28l4.05,30.58a2.32,2.32,0,0,1-2,2.59Z"/><polygon class="cls-71" points="470.5 408.7 509.23 412.8 509.23 408.7 470.5 404.59 470.5 408.7"/><path class="cls-37" d="M517.68,318.76v15.1c0,3.26-4.09,5.91-9.19,5.93s-9.27-2.61-9.28-5.86V318.76Z"/><path class="cls-37" d="M436.71,347c-.62-.5,5.06-7.66,5.73-7.2,10,6.79,29.74,16.81,32.84,18.31,0,0-7.1,6.81-13.61,6.82C456.49,365,445,353.72,436.71,347Z"/><path class="cls-72" d="M460.18,350.11c3.23-2.1,21.49-13.52,28.06-16.33,2.11,2.14,3.68,5.91,3.24,11.27-.33,4-1.64,11.15-3.55,14.11-1.43,1.35-14.36,6.84-18.71,9.12C467.16,364.54,460.92,355.08,460.18,350.11Z"/><path class="cls-72" d="M528.39,338.93s-2.68-5.65-5.73-7.21c-4.45-2.28-18.67-2.11-19.76-2.33,0,0-12.65,2.19-15.61,5-1.54,1.48-5.76,36.27-8,46.5,7.21,11.07,23.6,9,48.94,2C528.79,369.37,529.69,343.38,528.39,338.93Z"/><path class="cls-73" d="M503.08,405.33s19.19-.29,23.83-3.79,0-21.15,0-21.15-37.45,3.24-44.63,3.92C476.28,392.32,503.08,405.33,503.08,405.33Z"/><path class="cls-73" d="M472.65,402.81s33,5.92,40,0c4.58-3.84,3.66-19,3.66-19s-37.19-1-44.38-.34C465.94,391.48,472.65,402.81,472.65,402.81Z"/><path class="cls-72" d="M487.29,383.28c6.1,0,7.61,6.64,19.44,9.58,8.77,2.17,23.08,0,22.87-3-.24-3.23-1.53-13.66-1.71-16.19C523.59,373.4,487.17,377.3,487.29,383.28Z"/><path class="cls-37" d="M474.87,263.47c-7.48,6.39-5.48,14.51-4.72,29.5.15,2.93-4.31,17.88,1.48,25.35,7.07,9.11,16.55,11.71,32.54,9.76,28-3.42,39.69-13.53,41.86-34.39C539.05,282.4,483.69,255.94,474.87,263.47Z"/><path class="cls-13" d="M468.8,242c-.52,4,1.44,7.3,4.75,10-2.36-4.81-2.75-11.11,1.75-19.12,3.48,2.76,7.17,5.68,10.85,8.57a18.27,18.27,0,0,1-.07-6.74c6,7.74,11.87,7.18,31.42,11.17,13.37,2.73,16.47,12.08,15.08,17.53-9.06-1.79-21.84,3.94-31.56,4.38-12.2.56-21.59-1.34-26.59-4.85C468.36,258.72,463.34,250,468.8,242Z"/><path class="cls-13" d="M550.45,283.63c-1.24,21.46-8.6,32.65-20.54,37.82-8.22,3.56-20.61,4.67-31.29-1.63-11.47-6.77-11.51-20.39-22.24-24.79,0-7.54.94-24,4.65-30,6.87-11,15.91-14.4,29.76-16.16C540.31,245.13,551.68,262.14,550.45,283.63Z"/><path class="cls-74" d="M481.39,288c-2.76-.33-4.77,4.51-4.49,10.76s1.44,11.48,4.2,11.79,5.84-4.15,6-10.7C487.27,293.69,485.16,288.44,481.39,288Z"/><polygon class="cls-75" points="537.77 406.89 509.23 412.8 509.23 408.7 537.77 402.78 537.77 406.89"/><path class="cls-76" d="M537,336.47l-24.24.58a4.39,4.39,0,0,0-4.26,4.25l-1.06,30.47c-.09,2.69,2.57,3.78,4.88,4.52,1,.32,3.23.89,3.23.89,2.15-.25,25-5.86,25.09-8l.82-28.15A4.37,4.37,0,0,0,537,336.47Z"/><path class="cls-77" d="M542.83,336.66H518.69a4.92,4.92,0,0,0-5,4.5l-1.16,31.63c-.11,2.8,2.59,5,5.69,4.71L542.59,375a4.77,4.77,0,0,0,4.49-4.39l.91-29.32C548.07,338.67,545.72,336.63,542.83,336.66Z"/><path class="cls-78" d="M516.94,411.14l-3.14.65c.11-1.17.24-2.61.38-4.18l2.89-.6Z"/><path class="cls-78" d="M517.55,349l1.73-1.57-1,30.09h-.11a5.43,5.43,0,0,1-3.15-.61C515.14,375.61,517.55,349,517.55,349Z"/><path class="cls-5" d="M513.53,417.85l-.27,0-34.75-4.14a2.29,2.29,0,0,1-2-2.56,2.32,2.32,0,0,1,2.56-2l34.38,4.09a4,4,0,0,0,3-3.2l1.72-60.76a2.47,2.47,0,0,1,2.37-2.24,2.3,2.3,0,0,1,2.23,2.37L521,410.46a8.61,8.61,0,0,1-7.05,7.35A1.72,1.72,0,0,1,513.53,417.85Z"/><polygon class="cls-78" points="538.43 375.41 542.59 374.98 543.3 346.17 540.96 348.31 538.43 375.41"/><path class="cls-5" d="M537,413a1.86,1.86,0,0,1-.52-.07l-2.94-.68a2.29,2.29,0,0,1-1.71-2.77,2.27,2.27,0,0,1,2.76-1.72l2.43.57a3.94,3.94,0,0,0,2.84-3.16l1.72-56.8a2.32,2.32,0,0,1,2.31-2.23H544a2.3,2.3,0,0,1,2.23,2.38l-1.75,57.1a8.66,8.66,0,0,1-7.05,7.35Z"/><path class="cls-15" d="M396.79,138.5a.55.55,0,0,0,.1.26.64.64,0,0,0,.23.18.55.55,0,0,0-.1-.26A.74.74,0,0,0,396.79,138.5Z"/><path class="cls-79" d="M163.31,273.6c.34,1.17.2,2.24-.31,2.39l-.1,0-3.6,1.08-1.22-4.23,3.7-1.11C162.29,271.62,163,272.44,163.31,273.6Z"/><path class="cls-80" d="M159.63,277.05l-1.28-4.39,1.54-.44,1.28,4.39Z"/><path class="cls-81" d="M118.4,286.55l3.17-2.67,2.34-.7,1.58,4.11-2.7.81-4-.49C118.65,287.27,118.54,286.9,118.4,286.55Z"/><path class="cls-79" d="M119,286l.48,1.66s-1.58,0-1.71-.4S119,286,119,286Z"/><path class="cls-79" d="M159.64,277,122.79,288.1l.94-1.43-1.55-.68.94-1.43-1.55-.68,36.85-11.14Z"/><path class="cls-82" d="M466.6,191c.34,1.18.2,2.26-.31,2.41l-.11,0-3.64,1.1-1.23-4.28,3.75-1.13C465.57,189,466.26,189.84,466.6,191Z"/><path class="cls-80" d="M462.88,194.5l-1.3-4.45,1.56-.44,1.3,4.44Z"/><path class="cls-81" d="M421.18,204.11l3.2-2.71,2.37-.71,1.6,4.17-2.73.82-4.06-.5C421.43,204.83,421.32,204.46,421.18,204.11Z"/><path class="cls-82" d="M421.79,203.59l.49,1.68s-1.6,0-1.73-.41S421.79,203.59,421.79,203.59Z"/><path class="cls-82" d="M462.89,194.41l-37.27,11.27.95-1.45-1.57-.69,1-1.45-1.58-.69,37.27-11.26Z"/><path class="cls-83" d="M349.38,286.31c-.33,1.17-.19,2.24.31,2.39l.11,0,3.6,1.08,1.21-4.23-3.71-1.11C350.4,284.33,349.71,285.16,349.38,286.31Z"/><path class="cls-80" d="M353.07,289.76l1.27-4.4-1.54-.43-1.28,4.39Z"/><path class="cls-81" d="M394.31,299.21l-3.17-2.68-2.35-.7L387.22,300l2.7.81,4-.5C394.06,299.92,394.17,299.55,394.31,299.21Z"/><path class="cls-83" d="M393.7,298.69l-.48,1.66s1.58,0,1.71-.4S393.7,298.69,393.7,298.69Z"/><path class="cls-83" d="M353.06,289.68l36.86,11.08-.94-1.43,1.55-.68-.95-1.43,1.56-.69-36.87-11.08Z"/><polygon class="cls-84" points="418.6 227.08 382.38 221.1 382.28 220.43 418.5 226.4 418.6 227.08"/><path class="cls-85" d="M394,242.79l-20.2-27.19,55.38,9.14Zm-11.69-22.37,13.21,17.79,23-11.81Z"/><polygon class="cls-86" points="373.87 216.28 394.06 243.47 393.97 242.79 373.77 215.6 373.87 216.28"/><polygon class="cls-84" points="429.25 225.42 394.06 243.47 393.97 242.79 429.15 224.74 429.25 225.42"/><path class="cls-87" d="M453.88,268.91l-45.26-18.2,1-1.71c2.58-4.71,7.36-8.19,13.46-9.8a30,30,0,0,1,18.83,1.27c6.05,2.43,10.72,6.55,13.18,11.6a16.13,16.13,0,0,1-.21,15.13Zm-38.83-19.8,36.19,14.55a13.08,13.08,0,0,0-.64-10.42,20.16,20.16,0,0,0-10.55-9.71,24.42,24.42,0,0,0-15.17-1A18.28,18.28,0,0,0,415.05,249.11Z"/><path class="cls-88" d="M453.67,267.9,408.4,249.7l1-1.72c2.58-4.71,7.36-8.19,13.46-9.8a30.11,30.11,0,0,1,18.83,1.27c6.05,2.43,10.72,6.55,13.17,11.6a16.1,16.1,0,0,1-.2,15.13Zm-38.85-19.81L451,262.64a13.08,13.08,0,0,0-.64-10.42,19.73,19.73,0,0,0-10.61-9.34,24.35,24.35,0,0,0-15.17-1A17.62,17.62,0,0,0,414.82,248.09Z"/><polygon class="cls-87" points="453.88 268.91 408.62 250.71 408.4 249.7 453.67 267.9 453.88 268.91"/><path class="cls-89" d="M347.09,263.9c0,2.78-5.6,5-12.51,5s-12.5-2.26-12.5-5,5.6-5,12.5-5S347.09,261.11,347.09,263.9Z"/><path class="cls-90" d="M350.77,264.92c0,2.45-6.44,4.42-14.39,4.42s-14.39-2-14.39-4.42,6.44-4.42,14.39-4.42S350.77,262.48,350.77,264.92Z"/><ellipse class="cls-89" cx="334.58" cy="235.93" rx="12.11" ry="4.88"/><path class="cls-91" d="M334.59,230.89c-6.59,0-11.93,2.06-12.41,4.67h1c0-2.33,5.1-4.21,11.39-4.21S346,233.23,346,235.56h1C346.51,233,341.17,230.89,334.59,230.89Z"/><path class="cls-92" d="M355.39,229.62a4.8,4.8,0,0,1-6.8.29,4.92,4.92,0,0,1,.37-6.86,4.79,4.79,0,0,1,6.8-.3A4.93,4.93,0,0,1,355.39,229.62Zm-1.1-1.12a3.24,3.24,0,0,0,.25-4.53,3.16,3.16,0,0,0-4.48.19,3.24,3.24,0,0,0-.25,4.53A3.15,3.15,0,0,0,354.29,228.5Z"/><polygon class="cls-93" points="349.86 230.51 347.76 228.37 333.61 242.5 335.57 244.57 349.86 230.51"/><polygon class="cls-92" points="350.09 230.54 347.73 228.13 346.45 229.42 348.79 231.81 350.09 230.54"/><path class="cls-93" d="M347.25,233.07l-1.05-3.15s-.9,1-1.35.56a1.12,1.12,0,0,0-1-.37c-.43,0-1.2.91-1.2.91l-11,11.73c-.92.92-2.11,3.37-1.34,4.17s3.21-.35,4.14-1.26Z"/><path class="cls-57" d="M344.18,234.9a1.44,1.44,0,0,0,.11-2,1.42,1.42,0,0,0-2,.09,1.45,1.45,0,0,0-.11,2A1.41,1.41,0,0,0,344.18,234.9Z"/><path class="cls-92" d="M344.34,217.6a4.31,4.31,0,0,1,4.2,5,5.43,5.43,0,0,1-5.36,4.74,4.31,4.31,0,0,1-4.19-5A5.42,5.42,0,0,1,344.34,217.6Zm-1,8.06a3.58,3.58,0,0,0,3.53-3.13,2.84,2.84,0,0,0-2.76-3.28,3.59,3.59,0,0,0-3.54,3.13A2.86,2.86,0,0,0,343.38,225.66Z"/><polygon class="cls-93" points="341.87 226.81 344.99 226.89 342.7 246.07 339.74 246.04 341.87 226.81"/><polygon class="cls-92" points="341.7 226.67 345.19 226.75 344.99 228.49 341.51 228.41 341.7 226.67"/><path class="cls-94" d="M346.41,233.9l.24-1.58a2.68,2.68,0,0,0-.13-1.79,1.47,1.47,0,0,0-.49-.44c-.29.26-.85.69-1.18.39a1.12,1.12,0,0,0-1-.37c-.43,0-1.2.91-1.2.91l-2,2.17-.79,7.17Z"/><path class="cls-93" d="M341.48,230.32l3.26-1.32s-.21,1.27.42,1.31a1.16,1.16,0,0,1,.94.44c.24.34,0,1.45,0,1.45l-2.36,15.41c-.15,1.25-1.37,3.68-2.52,3.67s-1.82-2.49-1.69-3.74Z"/><path class="cls-68" d="M342.43,233.68a1.06,1.06,0,0,1,1.09-.9.84.84,0,0,1,.86.95,1.06,1.06,0,0,1-1.09.9A.84.84,0,0,1,342.43,233.68Z"/><rect class="cls-95" x="326.06" y="186.68" width="7.48" height="62.24" transform="translate(666.91 424.11) rotate(178.03)"/><path class="cls-29" d="M332.76,234.34l-1.86.07c-.08,0-.14-.08-.15-.18s.06-.18.13-.18l1.86-.06c.08,0,.14.07.15.17S332.83,234.34,332.76,234.34Z"/><path class="cls-29" d="M332.71,232.92l-1.86.06c-.08,0-.14-.07-.14-.17a.15.15,0,0,1,.13-.18l1.85-.07c.08,0,.14.08.15.18S332.78,232.92,332.71,232.92Z"/><path class="cls-29" d="M332.66,231.49l-1.86.07a.16.16,0,0,1-.14-.17c0-.1,0-.19.13-.19l1.86-.06c.07,0,.13.07.14.17S332.73,231.49,332.66,231.49Z"/><path class="cls-29" d="M332.9,238.62l-1.86.06c-.07,0-.13-.07-.14-.17a.18.18,0,0,1,.13-.19l1.86-.06a.16.16,0,0,1,.14.17A.16.16,0,0,1,332.9,238.62Z"/><path class="cls-29" d="M332.85,237.19l-2.94.1c-.08,0-.14-.07-.15-.17s.06-.18.13-.18l2.95-.1c.08,0,.14.07.14.17A.15.15,0,0,1,332.85,237.19Z"/><path class="cls-29" d="M332.81,235.77l-1.86.06c-.08,0-.14-.07-.15-.17s.06-.18.13-.18l1.86-.07c.08,0,.14.08.15.18S332.88,235.77,332.81,235.77Z"/><path class="cls-29" d="M333,241.47l-1.86.06a.16.16,0,0,1-.14-.17.17.17,0,0,1,.13-.19l1.86-.06a.16.16,0,0,1,.14.17A.16.16,0,0,1,333,241.47Z"/><path class="cls-29" d="M333,240l-1.86.07a.17.17,0,0,1-.14-.18c0-.1.06-.18.13-.18l1.86-.06c.08,0,.14.07.14.17A.15.15,0,0,1,333,240Z"/><path class="cls-29" d="M333.15,245.74l-1.86.06c-.08,0-.14-.07-.14-.17a.15.15,0,0,1,.13-.18l1.86-.07a.17.17,0,0,1,.14.18C333.28,245.66,333.22,245.74,333.15,245.74Z"/><path class="cls-29" d="M333.14,244.31l-2.14.08c-.06,0-.11-.08-.11-.18s0-.18.09-.18l2.15-.07c.05,0,.1.07.1.17S333.19,244.31,333.14,244.31Z"/><path class="cls-29" d="M333.05,242.89l-1.86.06c-.07,0-.14-.07-.14-.17s.05-.18.13-.18l1.86-.07a.17.17,0,0,1,.14.18C333.18,242.81,333.13,242.89,333.05,242.89Z"/><path class="cls-29" d="M332.26,220.1l-1.85.06c-.08,0-.14-.07-.15-.17s.06-.18.13-.18l1.86-.07a.16.16,0,0,1,.14.18A.15.15,0,0,1,332.26,220.1Z"/><path class="cls-29" d="M332.22,218.67l-1.86.07c-.08,0-.14-.08-.15-.18s.06-.18.13-.18l1.86-.06c.08,0,.14.07.15.17S332.29,218.67,332.22,218.67Z"/><path class="cls-29" d="M332.17,217.25l-1.86.06c-.08,0-.14-.07-.15-.17s.06-.18.13-.18l1.86-.07c.08,0,.14.08.15.18S332.24,217.25,332.17,217.25Z"/><path class="cls-29" d="M332.41,224.37l-1.86.07a.17.17,0,0,1-.14-.18c0-.1.06-.18.13-.18l1.86-.06c.08,0,.14.07.14.17A.15.15,0,0,1,332.41,224.37Z"/><path class="cls-29" d="M332.36,223l-2.94.1a.17.17,0,0,1-.15-.17.18.18,0,0,1,.13-.19l3-.1a.16.16,0,0,1,.14.17A.16.16,0,0,1,332.36,223Z"/><path class="cls-29" d="M332.31,221.52l-1.86.07c-.07,0-.13-.08-.14-.18s.06-.18.13-.18l1.86-.06c.08,0,.14.07.14.17A.15.15,0,0,1,332.31,221.52Z"/><path class="cls-29" d="M332.51,227.22l-1.86.07a.17.17,0,0,1-.14-.18c0-.1.05-.18.13-.18l1.86-.07a.17.17,0,0,1,.14.18C332.64,227.14,332.59,227.22,332.51,227.22Z"/><path class="cls-29" d="M332.46,225.8l-1.86.06a.16.16,0,0,1-.14-.17.17.17,0,0,1,.13-.19l1.86-.06a.17.17,0,0,1,.14.17A.17.17,0,0,1,332.46,225.8Z"/><path class="cls-29" d="M332.61,230.07l-2.95.1a.16.16,0,0,1-.14-.17c0-.1.05-.18.13-.18l3-.11a.17.17,0,0,1,.14.18C332.74,230,332.68,230.07,332.61,230.07Z"/><path class="cls-29" d="M332.56,228.65l-1.86.06a.16.16,0,0,1-.14-.17.16.16,0,0,1,.13-.19l1.86-.06a.16.16,0,0,1,.14.17A.17.17,0,0,1,332.56,228.65Z"/><path class="cls-29" d="M331.77,205.85l-1.86.07c-.07,0-.13-.08-.14-.18s.06-.18.13-.18l1.86-.06c.08,0,.14.07.14.17A.15.15,0,0,1,331.77,205.85Z"/><path class="cls-29" d="M331.72,204.43l-1.85.06c-.08,0-.14-.07-.15-.17s.06-.18.13-.18l1.86-.07a.16.16,0,0,1,.14.18A.15.15,0,0,1,331.72,204.43Z"/><path class="cls-29" d="M331.68,203l-1.86.07c-.08,0-.14-.08-.15-.18s.06-.18.13-.18l1.86-.06c.08,0,.14.07.15.17S331.75,203,331.68,203Z"/><path class="cls-29" d="M331.92,210.13l-1.86.06a.16.16,0,0,1-.14-.17.17.17,0,0,1,.13-.19l1.86-.06a.17.17,0,0,1,.14.17A.17.17,0,0,1,331.92,210.13Z"/><path class="cls-29" d="M331.87,208.7l-2.95.1c-.07,0-.13-.07-.14-.17s.06-.18.13-.18l2.95-.1c.07,0,.14.07.14.17A.15.15,0,0,1,331.87,208.7Z"/><path class="cls-29" d="M331.82,207.28l-1.86.06a.16.16,0,0,1-.14-.17c0-.1.06-.18.13-.18l1.86-.07a.16.16,0,0,1,.14.17C332,207.19,331.9,207.28,331.82,207.28Z"/><path class="cls-29" d="M332,213l-1.86.06a.15.15,0,0,1-.14-.17.16.16,0,0,1,.13-.19l1.86-.06a.16.16,0,0,1,.14.17A.18.18,0,0,1,332,213Z"/><path class="cls-29" d="M332,211.55l-1.86.07a.17.17,0,0,1-.14-.18c0-.1,0-.18.13-.18l1.86-.06c.07,0,.14.07.14.17S332.05,211.55,332,211.55Z"/><path class="cls-29" d="M332.12,215.82l-2.95.11a.16.16,0,0,1-.14-.18.15.15,0,0,1,.13-.18l2.95-.1c.07,0,.13.07.14.17S332.19,215.82,332.12,215.82Z"/><path class="cls-29" d="M332.07,214.4l-1.86.06c-.08,0-.14-.07-.14-.17a.15.15,0,0,1,.13-.18l1.86-.07a.17.17,0,0,1,.14.18C332.2,214.32,332.14,214.4,332.07,214.4Z"/><path class="cls-29" d="M331.28,191.61l-1.86.06a.16.16,0,0,1-.14-.17c0-.1.06-.18.13-.18l1.86-.07a.16.16,0,0,1,.14.18A.15.15,0,0,1,331.28,191.61Z"/><path class="cls-29" d="M331.23,190.18l-1.86.07c-.07,0-.13-.08-.14-.18s.06-.18.13-.18l1.86-.06a.15.15,0,0,1,.14.17A.15.15,0,0,1,331.23,190.18Z"/><path class="cls-29" d="M331.18,188.76l-1.85.06c-.08,0-.14-.07-.15-.17s.06-.18.13-.18l1.86-.07a.16.16,0,0,1,.14.18A.15.15,0,0,1,331.18,188.76Z"/><path class="cls-29" d="M331.43,195.88l-1.86.07a.17.17,0,0,1-.14-.18c0-.1.05-.18.13-.18l1.86-.06c.07,0,.14.07.14.17S331.51,195.88,331.43,195.88Z"/><path class="cls-29" d="M331.38,194.46l-2.95.1a.17.17,0,0,1-.14-.17.18.18,0,0,1,.13-.19l2.95-.1a.17.17,0,0,1,.14.17A.17.17,0,0,1,331.38,194.46Z"/><path class="cls-29" d="M331.33,193l-1.86.07a.17.17,0,0,1-.14-.18c0-.09.06-.18.13-.18l1.86-.06c.07,0,.14.07.14.17A.15.15,0,0,1,331.33,193Z"/><path class="cls-29" d="M331.53,198.73l-1.86.07a.16.16,0,0,1-.14-.18.15.15,0,0,1,.13-.18l1.86-.07a.17.17,0,0,1,.14.18C331.66,198.65,331.6,198.73,331.53,198.73Z"/><path class="cls-29" d="M331.48,197.31l-1.86.06a.15.15,0,0,1-.14-.17.16.16,0,0,1,.13-.19l1.86-.06a.17.17,0,0,1,.14.17A.18.18,0,0,1,331.48,197.31Z"/><path class="cls-29" d="M331.63,201.58l-2.95.1a.15.15,0,0,1-.14-.17.15.15,0,0,1,.13-.18l2.94-.11c.08,0,.14.08.15.18S331.7,201.58,331.63,201.58Z"/><path class="cls-29" d="M331.58,200.16l-1.86.06a.16.16,0,0,1-.14-.17.16.16,0,0,1,.13-.19l1.86-.06c.07,0,.13.07.14.17A.18.18,0,0,1,331.58,200.16Z"/><rect class="cls-96" x="332.06" y="186.58" width="1.47" height="62.24" transform="translate(672.9 423.81) rotate(178.03)"/><path class="cls-83" d="M337.21,259.92c1,.09,1.8-.19,1.84-.61v-.09l.29-3-3.52-.31-.3,3.09C335.49,259.42,336.25,259.84,337.21,259.92Z"/><path class="cls-80" d="M339.36,256.49l-3.66-.34-.11,1.29,3.67.33Z"/><path class="cls-81" d="M340.48,222.51l-1.62,2.91-.19,2,3.49.6.22-2.25-1-3.09C341.09,222.6,340.78,222.57,340.48,222.51Z"/><path class="cls-97" d="M340.17,223.07l1.39.12s-.23-1.25-.58-1.29S340.17,223.07,340.17,223.07Z"/><polygon class="cls-97" points="339.3 256.5 342.38 225.73 341.4 226.7 340.62 225.57 339.64 226.54 338.86 225.42 335.78 256.2 339.3 256.5"/><path class="cls-83" d="M334.11,253.07c1,0,1.78-.29,1.8-.71v-.08l.14-3-3.53-.12-.15,3.1C332.36,252.66,333.14,253,334.11,253.07Z"/><path class="cls-80" d="M336.07,249.53l-3.67-.14,0,1.28,3.67.14Z"/><path class="cls-81" d="M335.39,215.53l-1.46,3-.09,2,3.52.42.1-2.26-1.17-3C336,215.59,335.69,215.58,335.39,215.53Z"/><path class="cls-98" d="M335.11,216.11l1.39,0s-.29-1.24-.65-1.26S335.11,216.11,335.11,216.11Z"/><polygon class="cls-98" points="336.01 249.54 337.46 218.65 336.53 219.67 335.69 218.59 334.76 219.61 333.93 218.53 332.48 249.42 336.01 249.54"/><path class="cls-83" d="M331.51,263.15c1,0,1.75-.4,1.74-.82v-.09l-.06-3-3.53.12.06,3.11C329.74,262.86,330.54,263.19,331.51,263.15Z"/><path class="cls-80" d="M333.23,259.49l-3.68.1.05,1.29,3.68-.11Z"/><path class="cls-81" d="M330.28,225.62,329,228.7l.05,2,3.53.18-.05-2.26-1.37-3C330.89,225.63,330.58,225.64,330.28,225.62Z"/><path class="cls-29" d="M330,226.21l1.39-.05s-.37-1.21-.73-1.2S330,226.21,330,226.21Z"/><polygon class="cls-29" points="333.17 259.51 332.55 228.59 331.69 229.67 330.79 228.65 329.93 229.72 329.02 228.7 329.64 259.63 333.17 259.51"/><path class="cls-83" d="M328.33,251.16c.95-.19,1.66-.69,1.58-1.1l0-.09-.57-3-3.46.7.59,3.06C326.53,251.18,327.38,251.36,328.33,251.16Z"/><path class="cls-80" d="M329.41,247.26l-3.61.72.27,1.26,3.6-.72Z"/><path class="cls-81" d="M320.81,214.37l-.72,3.25.37,1.93,3.52-.41-.43-2.23-1.85-2.67C321.41,214.28,321.11,214.34,320.81,214.37Z"/><path class="cls-21" d="M320.67,215l1.36-.28s-.57-1.13-.92-1.06S320.67,215,320.67,215Z"/><polygon class="cls-21" points="329.35 247.29 323.55 216.91 322.88 218.12 321.82 217.27 321.15 218.47 320.09 217.62 325.89 248 329.35 247.29"/><path class="cls-99" d="M334.59,241c-6.91,0-12.51-2.26-12.51-5v28c0,2.78,5.6,5,12.5,5s12.51-2.26,12.51-5v-28C347.09,238.71,341.49,241,334.59,241Z"/><path class="cls-91" d="M346,235.56c0,2.32-5.1,4.21-11.38,4.21s-11.39-1.89-11.39-4.21h-1a1.56,1.56,0,0,0-.1.37c0,2.78,5.6,5,12.51,5s12.5-2.26,12.5-5a1.56,1.56,0,0,0-.1-.37Z"/><path class="cls-68" d="M231.2,439a2.3,2.3,0,0,1-2.28-2l-4-28.17a2.3,2.3,0,1,1,4.56-.65l4,28.18a2.31,2.31,0,0,1-2,2.6A1.83,1.83,0,0,1,231.2,439Z"/><polygon class="cls-3" points="229.96 437.33 182.15 444.35 210.69 450.27 258.33 443.47 229.96 437.33"/><path class="cls-37" d="M226.5,431.3c0,.4,13.53-.53,13.54-1,.14-4.21-.95-31.07-.92-33.51l-16.26,1.55C223.38,402.49,226.22,428.43,226.5,431.3Z"/><path class="cls-29" d="M224.26,432.81c0,.24,18.61,0,18.59-.34-.18-2.9-.59-9.5-.7-12-.81.06-1.13,1.2-2.47,1.39-2.24.33-5.79-1.06-8.93-1.24-4.85-.27-5.83,1.09-5.83,1.09C224.7,425.5,224.37,431,224.26,432.81Z"/><path class="cls-69" d="M251.6,433.57c-.5-.75-7.92-7.67-9.29-9.68.67,5.59-2.67,3.85-3.75,2.9-2.21-2-6.13-3.84-9-3.88-2.55,0-4.77,1-5.58,3.52-.3,2.84-.35,7.78-.65,10.94,0,0,21.09,3.88,28.43,1.41C253.32,437.54,252.3,434.63,251.6,433.57Z"/><path class="cls-70" d="M223.4,435.88a4.66,4.66,0,0,0-.05,2c.41,1.08,9.05,2.1,15.54,2.27a63.84,63.84,0,0,0,13.37-1c.27-.06.39-.91.25-1.27a133,133,0,0,1-14.2.15C234.75,437.89,226.38,437.69,223.4,435.88Z"/><path class="cls-19" d="M248.41,429.85a.35.35,0,0,0-.19.45,5.67,5.67,0,0,1,.33,1.17.33.33,0,0,0,.32.31h.06a.34.34,0,0,0,.31-.38,6.92,6.92,0,0,0-.38-1.36A.35.35,0,0,0,248.41,429.85Zm-2.13-2.05a.34.34,0,0,0-.19.45,5.67,5.67,0,0,1,.33,1.17.35.35,0,0,0,.33.31h.05a.35.35,0,0,0,.31-.38,6,6,0,0,0-.38-1.36A.34.34,0,0,0,246.28,427.8Zm-2.09-1.56a5.67,5.67,0,0,1,.33,1.17.35.35,0,0,0,.33.31h.05a.33.33,0,0,0,.31-.37,6,6,0,0,0-.38-1.36.36.36,0,0,0-.45-.2A.35.35,0,0,0,244.19,426.24Z"/><path class="cls-37" d="M249.83,434.56c.1.42,13.35-2.25,13.3-2.77-.46-4.53,2.09-42.94-5-46.53-7.67-3.87-17.29-.23-17.29-.23C241.93,389.43,249.15,431.52,249.83,434.56Z"/><path class="cls-29" d="M245.86,434.92c0,.25,18.6.07,18.59-.23-.17-2.91-.54-9.51-.63-12-.82,0-1.14,1.19-2.49,1.38-2.23.3-5.78-1.1-8.92-1.3-4.85-.3-5.83,1.06-5.83,1.06C246.34,427.62,246,433.09,245.86,434.92Z"/><path class="cls-69" d="M273.19,435.84c-.49-.76-7.87-7.72-9.24-9.73.65,5.59-2.68,3.83-3.75,2.87-2.21-2-6.11-3.87-9-3.93-2.55-.05-4.77.95-5.6,3.5-.31,2.83-.39,7.77-.71,10.93,0,0,21.07,4,28.43,1.57C274.89,439.81,273.89,436.9,273.19,435.84Z"/><path class="cls-70" d="M245,438a4.83,4.83,0,0,0-.06,2c.4,1.08,9,2.14,15.52,2.35a63.41,63.41,0,0,0,13.38-.91c.27-.06.39-.9.26-1.26a132.68,132.68,0,0,1-14.2.06C256.32,440.06,248,439.82,245,438Z"/><path class="cls-19" d="M270,432.1a.35.35,0,0,0-.19.45,5.59,5.59,0,0,1,.32,1.17.35.35,0,0,0,.33.32h0a.35.35,0,0,0,.31-.38,6,6,0,0,0-.37-1.36A.35.35,0,0,0,270,432.1ZM267.91,430a.35.35,0,0,0-.2.45,5.77,5.77,0,0,1,.33,1.16.34.34,0,0,0,.32.32h.05a.36.36,0,0,0,.32-.38,6.88,6.88,0,0,0-.37-1.36A.35.35,0,0,0,267.91,430Zm-2.08-1.57a6.28,6.28,0,0,1,.32,1.17.36.36,0,0,0,.32.32h.06a.33.33,0,0,0,.31-.37,6.53,6.53,0,0,0-.37-1.36.35.35,0,0,0-.45-.2A.35.35,0,0,0,265.83,428.47Z"/><path class="cls-5" d="M183.79,445.78a3,3,0,0,1-.42,0,2.31,2.31,0,0,1-1.85-2.68l5.74-31.4a6.11,6.11,0,0,1,5.28-5.18l30.13-3.54a6.14,6.14,0,0,1,6.84,5.23,2.3,2.3,0,1,1-4.56.64,1.52,1.52,0,0,0-1.71-1.3l-30.13,3.54a1.53,1.53,0,0,0-1.3,1.32l-5.75,31.52A2.31,2.31,0,0,1,183.79,445.78Z"/><polygon class="cls-6" points="221.1 399.6 187.25 402.03 215.79 407.95 254.52 403.84 221.1 399.6"/><path class="cls-5" d="M211.46,450.37a1.62,1.62,0,0,1-.31,0,2.3,2.3,0,0,1-2-2.58l4.05-30.57a6.13,6.13,0,0,1,5.3-5.29l30.13-3.55a6.1,6.1,0,0,1,6.84,5.24l4,28.18a2.31,2.31,0,0,1-4.57.64l-4-28.17a1.55,1.55,0,0,0-1.72-1.31l-30.12,3.54a1.53,1.53,0,0,0-1.3,1.32l-4,30.57A2.31,2.31,0,0,1,211.46,450.37Z"/><polygon class="cls-71" points="254.52 407.95 215.79 412.05 215.79 407.95 254.52 403.84 254.52 407.95"/><path class="cls-37" d="M207.33,318v15.11c0,3.25,4.09,5.9,9.2,5.92s9.27-2.61,9.28-5.86V318Z"/><path class="cls-37" d="M268.47,311.32c-.84-1.4-2.48-10.75-1.58-13.34.6-1.71,1.95-5.12,2.36-5.22,2-.48,2.42,2.32,1.54,5.2a4.28,4.28,0,0,0,.43,3c.6.32,2.08-5.39,3.17-7.68.87-1.83,5.17-5.37,5.8-5.16,1.54.51-1.17,4.35-2.13,6a14.39,14.39,0,0,0-1,3.82c1.15-1,2.79-3.29,3.51-4,1.38-1.44,4-5,5.3-4.55,1,.33-.14,3-2.06,5.86-.47.71-2.12,3.37-3.15,5.14a42.5,42.5,0,0,0,3.81-3.86c1.07-1.7,2.3-4.15,4.3-3.86.54.07-.83,4.49-2.08,6.15-.55.74-1.72,2.42-3.32,4.27,1.17-.84,3.13-2.65,3.54-3,1.22-2.82,1.8-3.9,3.3-3.71.46.05-.38,4.75-1.49,6a83,83,0,0,1-11,10.19C273.62,315.94,270,313.75,268.47,311.32Z"/><path class="cls-37" d="M277.58,312.34c.53-.67-6.68-6.29-7.26-5.66-8.63,9.4-26.43,24.6-29.23,26.91,0,0,8.57,4.9,15.12,3.19C261.43,335.43,270.62,321.18,277.58,312.34Z"/><path class="cls-100" d="M247.06,323.47c-3.39,1.83-22.18,12.35-27.81,16.77.87,2.88,3.42,6.06,8.33,8.25,3.66,1.63,10.57,3.93,14.08,3.67,1.87-.6,12.9-9.31,17-12C256.36,336.53,251.07,326.51,247.06,323.47Z"/><path class="cls-100" d="M196.63,338.18s2.67-5.65,5.72-7.21c4.45-2.27,18.68-2.11,19.77-2.33,0,0,12.64,2.19,15.6,5,1.54,1.48,5.77,36.27,8,46.5-7.21,11.07-23.6,9-48.94,2C196.23,368.62,195.33,342.63,196.63,338.18Z"/><path class="cls-101" d="M221.94,404.58s-19.19-.29-23.83-3.79,0-21.15,0-21.15,37.44,3.24,44.63,3.92C248.73,391.57,221.94,404.58,221.94,404.58Z"/><path class="cls-101" d="M252.37,402.06s-33,5.92-40,0c-4.58-3.84-3.67-19-3.67-19s37.2-1,44.39-.34C259.08,390.73,252.37,402.06,252.37,402.06Z"/><path class="cls-100" d="M237.72,382.53c-6.09,0-7.6,6.64-19.44,9.58-8.76,2.18-23.07,0-22.86-3,.23-3.23,1.53-13.66,1.71-16.19C201.43,372.65,237.85,376.55,237.72,382.53Z"/><path class="cls-37" d="M249.52,258.56c7.48,6.39,6.11,18.67,5.35,33.67-.15,2.92,4.31,17.87-1.48,25.34-7.07,9.11-16.55,11.71-32.55,9.76-28-3.42-39.68-13.53-41.85-34.39C186,281.65,240.71,251,249.52,258.56Z"/><path class="cls-102" d="M263.49,261.39c-2.88-7.59-15.1-12.14-16.84-13.13,2.7-3,.69-7.63-3.75-9.43,4,12-38.87-3.47-50.84,9.82.39,0-3.88,4.15-.76,9.56,4.6,8,30,21.69,47.34,22.63,9.83-2.17,14.22-13.14,13.86-16.23,4.61,2,.1,13.75-2.16,15.7C258.44,278.49,265.23,273.24,263.49,261.39Z"/><path class="cls-103" d="M164.73,314.41c8.4-.66,14.49-1.62,19.25-3.7,1.19,0,6.56,5.84,7.41,6.93-2.94,4.28-5.75,14.79-5.3,17.64a15.42,15.42,0,0,1-8.45.58c.85-4,1.83-7.62,1.83-7.62s-1.75,3.34-3.31,7.14c-2.79-1.08-5.91-3.29-8.79-7.59a11.23,11.23,0,0,1-1.21-3.48c2.78-2,5-3.73,5-3.73s-2.29,1.19-5.2,2.58c-.11-.61-.21-1.25-.31-1.89,4-1.85,7.76-4,7.76-4s-3.83,1.29-8,2.44C165,316.43,164.73,314.41,164.73,314.41Z"/><path class="cls-104" d="M187.42,308a4.72,4.72,0,0,1,1,5,4.44,4.44,0,0,1,1.37-.26,4.73,4.73,0,1,1-4.78,4.68,4.67,4.67,0,0,1,.36-1.67,4.67,4.67,0,0,1-4.71-1.17,4.73,4.73,0,0,1,6.75-6.62Z"/><path class="cls-102" d="M174.57,284c1.23,22.14,8.59,33.69,20.54,39,8.21,3.67,20.6,4.82,31.29-1.69,11.47-7,11.51-21,22.23-25.58,0-7.78-.93-24.79-4.64-30.94-6.87-11.39-15.92-14.86-29.76-16.68C184.7,244.27,173.34,261.83,174.57,284Z"/><path class="cls-103" d="M251.12,322.57c-8.1-2.32-13.88-4.46-18.13-7.44-1.16-.26-7.59,4.43-8.63,5.33,2,4.77,2.7,15.63,1.69,18.33a15.51,15.51,0,0,0,8.17,2.25c0-4.1-.29-7.84-.29-7.84s1.06,3.63,1.84,7.66c2.95-.51,6.44-2.06,10.12-5.7a11.11,11.11,0,0,0,1.87-3.17c-2.33-2.48-4.12-4.64-4.12-4.64s2,1.62,4.58,3.56c.23-.58.46-1.18.68-1.79-3.59-2.61-6.81-5.45-6.81-5.45s3.5,2,7.32,4Z"/><path class="cls-104" d="M230.15,311.79a4.73,4.73,0,0,0-2,4.74,4.38,4.38,0,0,0-1.28-.53,4.73,4.73,0,1,0,3.75,5.54,4.67,4.67,0,0,0,0-1.71,4.69,4.69,0,0,0,6.11-6.78A4.74,4.74,0,0,0,230.15,311.79Z"/><path class="cls-74" d="M243.63,287.24c2.76-.33,4.77,4.51,4.49,10.76s-1.44,11.48-4.2,11.79-5.84-4.15-6-10.7C237.75,292.94,239.85,287.69,243.63,287.24Z"/><polygon class="cls-75" points="187.25 406.14 215.79 412.05 215.79 407.95 187.25 402.03 187.25 406.14"/><path class="cls-76" d="M188.06,335.72l24.24.58a4.39,4.39,0,0,1,4.26,4.25L217.61,371c.1,2.69-2.56,3.78-4.87,4.52-1,.32-3.23.89-3.23.89-2.15-.25-25-5.86-25.09-8l-.83-28.15A4.39,4.39,0,0,1,188.06,335.72Z"/><path class="cls-77" d="M182.19,335.91h24.14a4.92,4.92,0,0,1,5,4.5L212.51,372c.1,2.8-2.59,5-5.69,4.71l-24.4-2.52a4.77,4.77,0,0,1-4.49-4.39l-.9-29.32C177,337.92,179.29,335.88,182.19,335.91Z"/><path class="cls-78" d="M208.08,410.39l3.13.65c-.1-1.17-.23-2.61-.37-4.18l-2.89-.6Z"/><path class="cls-78" d="M207.46,348.22l-1.72-1.57,1,30.09h.12a5.44,5.44,0,0,0,3.15-.61C209.87,374.86,207.46,348.22,207.46,348.22Z"/><path class="cls-5" d="M211.48,417.09a1.58,1.58,0,0,1-.38,0,8.55,8.55,0,0,1-7-7l-1.79-61.38a2.32,2.32,0,0,1,2.24-2.38,2.28,2.28,0,0,1,2.37,2.24l1.75,61.07a3.9,3.9,0,0,0,2.92,2.89L246,408.37a2.3,2.3,0,0,1,.55,4.57l-34.76,4.14Z"/><polygon class="cls-78" points="186.58 374.66 182.42 374.23 181.71 345.42 184.05 347.56 186.58 374.66"/><path class="cls-5" d="M188,412.26a2.47,2.47,0,0,1-.39,0,8.57,8.57,0,0,1-7-7.05l-1.79-57.4a2.33,2.33,0,0,1,2.24-2.38h.07a2.31,2.31,0,0,1,2.3,2.24l1.75,57.09a3.92,3.92,0,0,0,2.82,2.86l2.42-.56a2.27,2.27,0,0,1,2.77,1.71,2.31,2.31,0,0,1-1.72,2.77l-2.93.69A2.31,2.31,0,0,1,188,412.26Z"/><polygon class="cls-29" points="240.79 189.44 230.72 188.31 230.72 181.95 239.01 181.95 240.79 189.44"/><polygon class="cls-29" points="247.68 202.55 237.61 201.41 245.9 195.06 247.68 202.55"/><polygon class="cls-29" points="286.52 179.71 276.45 178.57 279.71 173.41 281.93 175.47 286.52 174.98 286.52 179.71"/><polygon class="cls-29" points="225.63 185.75 217.16 184.79 224.14 179.45 225.63 185.75"/><polygon class="cls-29" points="263.64 186.9 258.42 186.31 262.23 182.6 263.64 186.9"/><polygon class="cls-29" points="249.1 188.33 243.88 187.74 252.17 181.39 249.1 188.33"/><polygon class="cls-29" points="275.94 197.11 259.31 197.11 272.45 188.16 282.72 191.27 275.94 197.11"/><polygon class="cls-29" points="211.77 205.32 199.05 203.05 199.05 190.32 209.52 190.32 211.77 205.32"/><polygon class="cls-29" points="221.46 218.38 211.39 217.25 219.68 210.9 221.46 218.38"/><polygon class="cls-29" points="269.95 212.26 262.23 208.71 265.48 203.55 267.71 205.61 272.3 205.12 284.12 207.38 269.95 212.26"/><polygon class="cls-29" points="185.81 216.69 173.63 211.79 185.94 203.87 185.81 216.69"/><polygon class="cls-29" points="218.2 207.9 212.97 207.31 221.26 200.96 218.2 207.9"/><polygon class="cls-29" points="245.03 216.69 228.4 216.69 241.54 207.73 251.81 210.84 245.03 216.69"/><path class="cls-56" d="M301.72,177.35c.48-.78-1.82-2.16-3.18-2.54l-22.64-6.32-1.25,2.13,2.31.63s1.42.35,1.19.79a.64.64,0,0,0,.07.79,4.43,4.43,0,0,0,1.49.58l17.11,4.25C298.18,178,301.25,178.14,301.72,177.35Z"/><path class="cls-57" d="M283,171.18a2,2,0,0,0-2.14.53c-.32.53.13,1.16,1,1.4a2,2,0,0,0,2.14-.54C284.34,172,283.89,171.41,283,171.18Z"/><path class="cls-58" d="M281,169.91l-1.74.3a3.78,3.78,0,0,0-1.79.63.94.94,0,0,0-.22.49c.39.12,1.1.39.93.71a.64.64,0,0,0,.07.79,4.43,4.43,0,0,0,1.49.58l3.15.78,7.76-1.6Z"/><path class="cls-59" d="M275.73,175.25l22.41-4.63c1.35-.28,3.6-1.49,3.08-2.31s-3.57-.95-4.92-.68l-17,3a4.19,4.19,0,0,0-1.47.46.63.63,0,0,0,0,.8c.25.45-1.16.69-1.16.69l-2.29.46Z"/><path class="cls-64" d="M274.3,170.85l1.49.37,1.37-2.64-.92-.23a2.84,2.84,0,0,0,.19-.56c.07-2.35-2.68-4.32-6.12-4.39s-6.3,1.76-6.37,4.11,2.68,4.32,6.13,4.4A8.1,8.1,0,0,0,274.3,170.85Zm-8-3.29c0-1.44,1.81-2.58,3.93-2.54s3.82,1.27,3.78,2.71-1.8,2.59-3.93,2.55S266.29,169,266.33,167.56Z"/><path class="cls-64" d="M276.2,175.92c0-.18-.12-.34-.14-.52l.91-.18-1.22-2.7-1.42.29a7.85,7.85,0,0,0-4.25-1.28c-3.45-.08-6.3,1.77-6.37,4.12s2.68,4.31,6.12,4.39S276.13,178.27,276.2,175.92Zm-10.1-.22c0-1.45,1.81-2.59,3.93-2.55s3.82,1.27,3.78,2.72-1.81,2.59-3.93,2.54S266.06,177.14,266.1,175.7Z"/><path class="cls-64" d="M281.29,172.77c-.54,0-1-.31-1-.68s.45-.64,1-.63,1,.31.95.68S281.82,172.78,281.29,172.77Z"/><path class="cls-56" d="M304.11,351c-.41-1,2-2.51,3.41-2.83l23.12-5.28,1.05,2.82-2.37.53s-1.44.26-1.25.84a1,1,0,0,1-.14,1c-.28.34-1.54.55-1.54.55L309,352C307.57,352.32,304.51,352.09,304.11,351Z"/><path class="cls-57" d="M323.3,345.47a1.81,1.81,0,0,1,2.09.92,1.3,1.3,0,0,1-1.13,1.64,1.8,1.8,0,0,1-2.09-.93A1.29,1.29,0,0,1,323.3,345.47Z"/><path class="cls-58" d="M325.46,344.11l1.71.59a3.34,3.34,0,0,1,1.71,1,1.32,1.32,0,0,1,.19.63c-.41.11-1.14.36-1,.78a1,1,0,0,1-.14,1c-.28.34-1.54.55-1.54.55l-3.21.61-7.57-2.92Z"/><path class="cls-59" d="M330.18,351.45,308.3,343c-1.32-.51-3.44-2.29-2.86-3.27s3.65-.77,5-.27L327,345.19s1.21.38,1.42.76a1,1,0,0,1,0,1c-.29.54,1.09,1,1.09,1l2.23.85Z"/><path class="cls-100" d="M336.13,347.91c3.44.31,6.35-1.85,6.51-4.81s-2.53-5.62-6-5.93-6.35,1.85-6.5,4.81a4.58,4.58,0,0,0,.13.74l-.93.18,1.12,3.47,1.52-.29A7,7,0,0,0,336.13,347.91Zm.11-2.05a3.81,3.81,0,0,1-3.68-3.67,3.47,3.47,0,0,1,4-3,3.78,3.78,0,0,1,3.67,3.66A3.46,3.46,0,0,1,336.24,345.86Z"/><path class="cls-100" d="M335.61,358.17c3.43.31,6.35-1.85,6.5-4.81s-2.52-5.62-5.95-5.93a6.5,6.5,0,0,0-4.35,1.12l-1.4-.53L329,351.26l.89.34a4.67,4.67,0,0,0-.18.64C329.5,355.2,332.17,357.86,335.61,358.17Zm.1-2.06a3.78,3.78,0,0,1-3.67-3.65,3.46,3.46,0,0,1,4-3,3.82,3.82,0,0,1,3.68,3.67C339.64,355,337.83,356.3,335.71,356.11Z"/><path class="cls-100" d="M324.88,347.68a.86.86,0,0,0,1-.74A.93.93,0,0,0,325,346a.86.86,0,0,0-1,.74A1,1,0,0,0,324.88,347.68Z"/><path class="cls-15" d="M121.33,232.35c.65-.35-3.35-8.17-4-7.84-10.06,4.88-27.21,9.3-30.13,10.49,2.11,4.47,3.68,8.38,7.81,8.68C98.86,244,111.74,237.49,121.33,232.35Z"/><path class="cls-21" d="M102.48,229.83c-3.47,3.79-11.58,7.08-15.58,9.3-2.86-9.83-8.79-27.35-8.81-28.08,6,.63,9.37.7,11,1.52C92.33,216,97.21,223.05,102.48,229.83Z"/><path class="cls-15" d="M112.68,229a7.87,7.87,0,0,0,7.6,4.15,18.44,18.44,0,0,0,9.93-3.62c-.2-1.26.17-7.57-2.17-10.29-2.12-1.51-6.23-1-11.83-4C114.49,216.53,109.82,223.61,112.68,229Z"/><path class="cls-55" d="M127.33,227.71c-.61-.46.72-7.88-5.7-9.07-.64-.22-2.83,1.79-3.63,1.33.9,2.48,1.5,5.63-.75,8.28C119.5,230.87,126.77,229.87,127.33,227.71Z"/><path class="cls-15" d="M132.35,225.71c0,1.27-2.27,2.37-5,2.47s-4.9-.83-4.86-2.1,2.27-2.36,5-2.46S132.39,224.45,132.35,225.71Z"/><path class="cls-15" d="M131.41,229c0,1.12-1.89,2.09-4.16,2.17s-4.09-.75-4.06-1.87,1.89-2.09,4.16-2.18S131.44,227.83,131.41,229Z"/><path class="cls-56" d="M129.06,189.07c1.19,0,2,2.79,2,4.18l-1,23-3.19-.14.12-2.34s.13-1.41-.52-1.46a1.21,1.21,0,0,1-1-.52,3.56,3.56,0,0,1-.14-1.6l1.42-17.1C126.79,191.72,127.88,189,129.06,189.07Z"/><path class="cls-57" d="M129.45,208.64a1.55,1.55,0,0,1-1.53,1.53,1.5,1.5,0,0,1-1.37-1.65,1.55,1.55,0,0,1,1.53-1.54A1.51,1.51,0,0,1,129.45,208.64Z"/><path class="cls-58" d="M130.24,211.11l-1.08,1.33c-.32.41-.94,1.11-1.51,1.17a1.63,1.63,0,0,1-.7-.08c0-.41-.06-1.17-.53-1.2a1.21,1.21,0,0,1-1-.52,3.56,3.56,0,0,1-.14-1.6l.26-3.15,5.12-5.75Z"/><path class="cls-59" d="M121.39,212.58,136.17,196c.89-1,3.32-2.24,4.16-1.34s-.23,3.61-1.11,4.62L128.7,212.12s-.73.94-1.17,1a1.17,1.17,0,0,1-1-.42c-.48-.47-1.34.6-1.34.6l-1.5,1.7Z"/><path class="cls-21" d="M123.37,219.34a5.91,5.91,0,1,0,7.75-3.12,5.42,5.42,0,0,0-.8-.17l.08-.92-3.89-.31-.12,1.49A5.84,5.84,0,0,0,123.37,219.34Zm2.08.88a3.65,3.65,0,1,1,1.93,4.79A3.64,3.64,0,0,1,125.45,220.22Z"/><path class="cls-21" d="M113,214.93a5.91,5.91,0,0,0,10.88,4.62,5.83,5.83,0,0,0,.06-4.38l.94-1.06-2.93-2.58-.6.68a6.34,6.34,0,0,0-.6-.41A5.92,5.92,0,0,0,113,214.93Zm2.08.88a3.65,3.65,0,1,1,1.93,4.78A3.66,3.66,0,0,1,115.05,215.81Z"/><path class="cls-21" d="M126.74,209.22a.91.91,0,1,0,1.19-.48A.91.91,0,0,0,126.74,209.22Z"/><path class="cls-15" d="M123.29,215c.95,3.15-3.11,5.31-6.05,5.28-2.1,0-2.61-4.15-1-5C118.24,214.71,122.92,213.73,123.29,215Z"/><path class="cls-15" d="M132.64,220.52c.37,1.23-1.2,2.9-3.49,3.71s-4.45.48-4.82-.75,1.2-2.89,3.5-3.71S132.28,219.29,132.64,220.52Z"/><path class="cls-15" d="M131.37,216.7c.46,1.21-1,3-3.16,4s-4.37.78-4.83-.44,1-3,3.16-4S130.91,215.48,131.37,216.7Z"/><path class="cls-25" d="M433.18,325.67c-1.46.62.1,3.92,2.61,5.42s7.28,3.05,8.09,1.69C443.32,331.06,436.16,324.38,433.18,325.67Z"/><polygon class="cls-105" points="393.23 337.14 420.59 291.34 455.72 305 432.88 352.39 393.23 337.14"/><path class="cls-15" d="M432.71,338.4c-1.44-.87-4.54-3.1-5.92-1.43-.57.69,2.25,2.68,4.92,4.62.89.65,1.37.52,4.31,1.72-.06.29-1.7.15-3.58-.64-1-.42-3.22-3.53-5.22-1.67-.34.32,3,3.58,3.74,4.33,1.25,1.2,9.8,5.56,10.38,5.57,2.44,0,4.54-1.57,5.49-4.7.45-2.55-.76-9.66-3.29-14a49.38,49.38,0,0,0-7.14-3.64c-6.41-1.36-9.39-2.3-9.53-1-.33,3.05,4.86,4.05,7.44,4.87a27.22,27.22,0,0,1,5,2.82c0,.55-3.34-1.3-5.28-2.1-1.64-.56-7.49-2.09-7.69-.95-.55,3.05,2.32,2.8,6.44,4.68a22.62,22.62,0,0,1,4.45,3C436.71,340.16,435.8,339.7,432.71,338.4Z"/><path class="cls-25" d="M578.17,222.74c-.89,1.26,2.08,3.21,4.93,3.18s7.58-1.16,7.57-2.7C589.33,222.07,580,220.16,578.17,222.74Z"/><polygon class="cls-106" points="559.97 248.19 534.51 212.49 573.91 205.41 597.93 241.22 559.97 248.19"/><path class="cls-15" d="M584.25,233.56c-1.64,0-5.35-.27-5.64,1.82-.12.86,3.23,1.08,6.43,1.34,1.07.09,1.4-.27,4.45-.77.1.28-1.34,1-3.29,1.29-1.07.17-4.47-1.29-5.19,1.27-.12.43,4.27,1.46,5.31,1.69,1.64.36,11-.36,11.44-.65,2-1.2,3-3.6,2.17-6.69-.91-2.34-5.53-7.63-9.84-10a46.49,46.49,0,0,0-7.78.61c-6,2.12-9,2.85-8.43,4,1.27,2.7,6.09.9,8.65.27a26.21,26.21,0,0,1,5.57-.18c.25.47-3.44.61-5.45.93-1.65.37-7.28,2.07-6.88,3.12,1.1,2.81,3.36,1.15,7.73.61a22.08,22.08,0,0,1,5.25.28C588.47,233,587.47,233.06,584.25,233.56Z"/></g></g><g id="Event"><g id="Layer_6" data-name="Layer 6"><g class="cls-107"><g class="cls-108"><rect class="cls-109" x="-715.5" y="-1174" width="1917.5" height="1278"/></g></g><g id="imagesHere"><g class="cls-107"><path class="cls-110" d="M1143.14-1107.77h0c-53.3-56.47-143.61-52.34-201.71,9.21l-1478,1565.74c-58.1,61.55-62,157.22-8.69,213.69s143.61,52.34,201.71-9.21l1478-1565.74C1192.55-955.64,1196.44-1051.31,1143.14-1107.77Z"/><path class="cls-110" d="M-447.14,284.56,908.7-1151.78c53.3-56.47,53.3-148,0-204.48h0c-53.3-56.47-139.72-56.47-193,0L-640.16,80.08c-53.3,56.46-53.3,148,0,204.48S-500.44,341-447.14,284.56Z"/><path class="cls-110" d="M1527.92-1000h0c-53.3-56.46-139.72-56.46-193,0L-20.93,436.35c-53.3,56.47-53.3,148,0,204.48s139.71,56.47,193,0L1527.92-795.51C1581.22-852,1581.22-943.52,1527.92-1000Z"/></g></g></g></g></svg>