<svg xmlns="http://www.w3.org/2000/svg" xmlns:xlink="http://www.w3.org/1999/xlink" viewBox="0 0 690 460"><defs><style>.cls-1,.cls-29{fill:none;}.cls-2,.cls-3{fill:#ced4ea;}.cls-2{opacity:0.4;}.cls-4{fill:#221e50;}.cls-5{fill:#2b295e;}.cls-6{fill:#bf6d50;}.cls-7{fill:#333380;}.cls-8{fill:#555ca1;}.cls-9{fill:#272525;}.cls-10{fill:#4f549c;}.cls-11{fill:#ce5d2b;}.cls-12{fill:#b5451e;}.cls-13{fill:#b7bed4;}.cls-14{fill:#c3592d;}.cls-15{fill:#d25c2a;}.cls-16{fill:#00000c;}.cls-17{fill:#555ca3;}.cls-18{fill:#4f549e;}.cls-19{fill:#d58b2a;}.cls-20{fill:#d3652c;}.cls-21{fill:#dde3f2;}.cls-22{fill:#333381;}.cls-23{fill:#dc8d39;}.cls-24,.cls-26{fill:#eecf70;}.cls-24{opacity:0.5;}.cls-25{fill:#dab656;}.cls-27{fill:#da8b39;opacity:0.2;}.cls-28{clip-path:url(#clip-path);}.cls-29{stroke:#17103c;stroke-linecap:round;stroke-linejoin:round;stroke-width:2px;}.cls-30{clip-path:url(#clip-path-2);}.cls-31{clip-path:url(#clip-path-3);}.cls-32{fill:#0071bc;}.cls-33{fill:#fff;stroke:#4dd0e1;stroke-miterlimit:10;stroke-width:2.09px;}.cls-34{clip-path:url(#clip-path-5);}.cls-35{clip-path:url(#clip-path-6);}.cls-36{fill:#00bcd4;opacity:0.15;}.cls-37{clip-path:url(#clip-path-7);}</style><clipPath id="clip-path"><circle class="cls-1" cx="859.21" cy="-54" r="23.22" transform="translate(773.87 802.66) rotate(-80.71)"/></clipPath><clipPath id="clip-path-2"><rect class="cls-1" x="-1426" y="-835" width="1918" height="601"/></clipPath><clipPath id="clip-path-3"><rect class="cls-1" x="-1425.5" y="-1174" width="1917.5" height="1278"/></clipPath><clipPath id="clip-path-5"><rect class="cls-1" x="520" y="-1462" width="1920" height="600"/></clipPath><clipPath id="clip-path-6"><rect class="cls-1" x="520" y="-2218" width="1920" height="1356"/></clipPath><clipPath id="clip-path-7"><rect class="cls-1" x="-1427.5" y="-1462" width="1921" height="600"/></clipPath></defs><g id="EventElements"><g id="MentorshipEvent"><polygon class="cls-2" points="522.59 176.34 522.59 455.85 46.43 455.85 46.43 159.17 69.47 159.17 69.47 208.65 102.01 208.65 102.01 184.1 114.57 184.1 114.57 92.35 126.69 92.35 126.69 184.1 141.95 184.1 141.95 98.55 183.69 98.55 183.69 165.25 215.55 165.25 215.55 63.23 247.59 63.23 247.59 235.95 279.91 235.95 279.91 163.56 320.3 163.56 320.3 111.34 345.36 111.34 345.36 160.43 368.76 160.43 368.76 142.82 417.73 142.82 417.73 194.83 455.99 194.83 455.99 144.75 486.23 144.75 486.23 210.15 505.79 210.15 505.79 176.34 522.59 176.34"/><g id="_floor" data-name="
floor"><rect class="cls-3" x="2.5" y="455.84" width="685" height="4.16" rx="2"/></g><path class="cls-4" d="M134.83,447.14l2.85,9.15h28.23S158.68,443.94,134.83,447.14Z"/><path class="cls-5" d="M145.72,264.75,95,273.29s18.22,94.41,39.4,174.61l25.56.75Z"/><path class="cls-4" d="M72.92,446.36l3,9.5h29.3S97.67,443.05,72.92,446.36Z"/><path class="cls-6" d="M212.63,239.15,218,238a13.45,13.45,0,0,1,16.91,1s3.34,3.28.09,4.52-2.21.34-6.75,2.19-9.65,1.64-12.31-.66l-6.63.05Z"/><path class="cls-7" d="M70.27,447.54S82.16,296.13,96.92,268.22l41.61-.2-.73,26.26s-2.26.51-4.48,5l-38,147.92Z"/><path class="cls-8" d="M135.43,197.26l16.54,27,11.91,19.48s14.59,2.62,28.45,4.38l.57.07.25,0,.54.06c11,1,23.14-2.52,23.14-2.52l-.09-2.82-.14-4.68s-10.9-3.75-16.61-5.08c-6.94-1.63-16.88-3.27-16.88-3.27C170,202,159.54,173.43,156.13,171c-6-4.23-19.54-6.68-19.54-6.68Z"/><path class="cls-6" d="M135.2,149A155.89,155.89,0,0,0,132,166.63s-9.26,8-13.11,7.27c-3.35-.63-7.24-11.25-7.24-11.25s3.69-5.24,7.33-20.14Z"/><path class="cls-6" d="M137.54,154.81s-18.48,3.88-20.72-7.66-6.13-18.82,5.57-21.79,14.86,1,16.54,4.67S142.29,153.5,137.54,154.81Z"/><path class="cls-9" d="M116.82,147.15s-1.12-15.71,15.55-17.85,6.95-16.66-7.68-16.66c0,0,2.39,5.29-6.43,7.62C99.74,125.15,114.75,145,116.82,147.15Z"/><path class="cls-4" d="M97.49,287.83A21.8,21.8,0,0,0,116,278.4l-.6-.34a36.7,36.7,0,0,1-8.62,7.24A22.83,22.83,0,0,1,97.49,287.83Z"/><path class="cls-5" d="M78.84,434.51c.24-13.74,1.26-29.91,3.16-46.65.28-2.55.6-5.18.93-7.81.36-2.9.74-5.84,1.14-8.72a12.88,12.88,0,0,1,1.05-3.14,12.55,12.55,0,0,0,1-2.86c1.58-11,3.51-20.91,5.2-29.7.44-2.3.88-4.55,1.3-6.77,3.77-20,5.84-31.32,5.86-31.43h0c0,.11-1.44,11.5-5.22,31.51q-.63,3.31-1.3,6.78c-1.69,8.77-3.61,18.72-5.19,29.66a13.38,13.38,0,0,1-1,3.05,12.57,12.57,0,0,0-1,2.94c-.4,2.88-.78,5.81-1.14,8.71-.33,2.62-.64,5.25-.93,7.81-1.89,16.71-3.39,32.95-3.63,46.66Z"/><path class="cls-8" d="M95,273.29c.29.11,12.61,4.83,40.9,1,6.27-.85,9.3-1.47,12.13-9.3,5.83-18.79,8.43-93.86,8.13-94,.11.41-8.65-5.07-23.67-7.49a8.16,8.16,0,0,1-6.87,4.27c-4.28.12-10.57-3.18-13.92-5.16a94.82,94.82,0,0,0-13.4,2c-.43.1-2.06,17.16-3.17,37.57-.33,6.06-.61,12.42-.79,18.71C93.57,245.4,90.26,271.59,95,273.29Z"/><path class="cls-10" d="M94.31,221c4.52,2.07,13.35,5.29,13.73-.83.51-8.25-6.22-21.57-8.88-22.08-1.56-.29-3.07,2.13-4.06,4.2C94.77,208.31,94.49,214.67,94.31,221Z"/><rect class="cls-11" x="83.73" y="217.54" width="41.26" height="54.91" transform="matrix(-0.91, -0.4, 0.4, -0.91, 100.61, 511.27)"/><path class="cls-6" d="M110.43,246.13l1.35,1.68a13.53,13.53,0,0,1,16.58,3.94s2.73,3.82-.7,4.49-2.25,0-7.07,1-9.85-.05-12.09-2.78L106,251.4Z"/><path class="cls-8" d="M111.67,162.65s-19.41.15-22,2.06S61.4,209.24,61,225.61c0,0,16,16.85,45.1,26.75l5.84-5.9s-22-22.23-32.45-26.29c0,0,17.33-17.59,21.14-27.07S111.67,162.65,111.67,162.65Z"/><path class="cls-10" d="M152,224.28l11.91,19.48s14.59,2.62,28.45,4.38l.57.07.25,0,.54.06c11,1,23.14-2.52,23.14-2.52l-.09-2.82c-13.77-2.22-47.09-3.89-49.58-5.2-3.1-1.65-12-30.46-13.86-29.18C152,209.49,151.91,219,152,224.28Z"/><path class="cls-12" d="M319.24,373.47a.49.49,0,0,0,0,.12,43.66,43.66,0,0,0,5.17,15.83c5.11,8.62,14.81,18.22,38.06,21.35,1.13.15,2.29.29,3.48.41q3.26.33,6.85.5l.91,0a112.94,112.94,0,0,0,22.77-3.41c17.33-4.11,28.61-12.57,35.75-22.86h0a55.57,55.57,0,0,0,5.45-9.88,75.73,75.73,0,0,0,5.62-28.5,93.73,93.73,0,0,0-3-22.35,40.45,40.45,0,0,0-5.51-12.26,31.93,31.93,0,0,0-2.1-2.8,31.36,31.36,0,0,0-8.55-7.2c-8.27-4.71-35.49-9.41-58.55,2.76C323.16,327.59,316.77,355.25,319.24,373.47Z"/><path class="cls-13" d="M337.42,446.84h33.76V393.48h9.44v53.36h35.12a3.32,3.32,0,0,1,0,6.64H337.42a3.32,3.32,0,1,1,0-6.64Z"/><path class="cls-14" d="M324.42,389.42a43.66,43.66,0,0,1-5.17-15.83s0,0,0-.08c13.49-1.43,30.67-3.15,45.63-4.61a143.24,143.24,0,0,1,19.15-.53c22.26.78,43.23,6.29,52.77,9.16a54.33,54.33,0,0,1-4.55,7.9h0c-7.14,10.29-18.42,18.75-35.75,22.86a112.94,112.94,0,0,1-22.77,3.41l-.91,0q-3.6-.17-6.85-.5c-1.19-.12-2.35-.26-3.48-.41C339.23,407.64,329.53,398,324.42,389.42Z"/><path class="cls-6" d="M309.39,330.44h0l.24.15a49,49,0,0,0,5.15,1.89s-.32,4.24-.41,4.31l-11.83-.52.52-1.91a2,2,0,0,1,.09-.35h0a2,2,0,0,1,.68-.91l3.39-2.52A2,2,0,0,1,309.39,330.44Z"/><polygon class="cls-6" points="320.78 421.35 319.01 435.26 311.78 435.48 307.11 415.35 320.78 421.35"/><path class="cls-15" d="M320,429.61l.83,7.8-20.35,9.37S301.66,435.16,320,429.61Z"/><polygon class="cls-6" points="276.34 441.84 266.52 451.85 260.63 447.65 269.08 428.79 276.34 441.84"/><path class="cls-15" d="M273,446l-2.26,7.47H248.29S254,443.41,273,446Z"/><path class="cls-16" d="M350.85,276.9c3.8-10.4,3.25-44,3.31-46.27.17-7.24,2.77-8.29,2.77-8.29,1.41-3.83,25.35-8.09,30.13,6.87,5.95,18.65,17.35,30.29,18,47.69Z"/><path class="cls-6" d="M364.93,249.3a46.85,46.85,0,0,1-1.74,14L357,278.66l23.67-6.38s-4.88-11.44-4.52-23.62Z"/><path class="cls-6" d="M361.08,253.9s17.29,3.16,19.09-7.64,5.25-17.67-5.72-20.14-13.8,1.29-15.28,4.75S356.63,252.8,361.08,253.9Z"/><path class="cls-16" d="M358.14,224.92s21.54,16.6,19.64,28.86c-1.79,11.52,1.6,12.55,4.12,13.65,6.5,2.83,15-2.35,18.41-2.18,2.4.12-3.78-2.78-7.7-8-10.45-14-9.44-32.82-11.52-34.18C366.88,213.8,358.14,224.92,358.14,224.92Z"/><path class="cls-17" d="M313.9,337.15s12.61-.66,20.27-2.81c14.76-4.15,16.93-6.07,19.1-20.43a181.36,181.36,0,0,0,1.13-38.82c-.07-1-.15-2-.22-2.85-.29-3.21-.54-5.08-.54-5.08a15.43,15.43,0,0,0-10.22,12.52c-1.9,12-3.2,34.43-4.49,38.54-.74,2.35-24.15,14.26-24.15,14.26l-.68,3.59Z"/><path class="cls-18" d="M313.9,337.15s12.61-.66,20.27-2.81c14.76-4.15,16.93-6.07,19.1-20.43a181.36,181.36,0,0,0,1.13-38.82c-2.29,1-4.55,4.3-5.63,12.61-2.68,20.37,2,33.06-6.35,38.9-7,4.87-22.05,8.3-28.32,9.47Z"/><path class="cls-17" d="M351.44,312.62c6.7,21.83-1.69,32.14-1.69,32.14s12.93,7.2,16.63,6.47c1-.19,30.27-5,31-5.18a15,15,0,0,0,4.18-1.6s-3.73-8.81-6.26-17.19a46.78,46.78,0,0,0,12.53.22c1.19-.13,2.42-.31,3.7-.55,7.61-1.38,9.41-1.83,11.8-3.61a3.76,3.76,0,0,0,1.14-3.33c-1.62-6.43-9.45-26.68-22.73-48.65-1.81-3-9.68-4.46-9.68-4.46l-14.25-3.36c-1.29,3-3.18,7.11-7.68,7.15-11.62.08-7-6.63-7.08-7l-9.42,3.5a62.27,62.27,0,0,0-3.17,11.39,11.65,11.65,0,0,1-1,3.58,6.31,6.31,0,0,1-.38.73C345.87,288.35,348.13,301.84,351.44,312.62Zm41.74,7.14a23.66,23.66,0,0,1-.16-3.84c0-5.62,3.25-18.1,3.4-18.66v0c.12.13,1.24,1.18,13.3,18a38.59,38.59,0,0,0-5.79,1.2C400.09,317.56,395.55,318.69,393.18,319.76Z"/><path class="cls-18" d="M381.55,327.88c1.61,6,5,14.25,10.43,16.92a17.27,17.27,0,0,0,5.41,1.25,15,15,0,0,0,4.18-1.6s-9.17-18.59-8.55-28.53c.35-5.61,3.25-18.1,3.4-18.66-.71-1.36-1.67-2.6-2.8-2.55C391.17,294.82,379.94,321.87,381.55,327.88Z"/><path class="cls-7" d="M401.57,344.45c1,2.16,14.61,26.59-7.93,33.1s-71.28,4.75-71.28,4.75-5.17,20.43-11.55,29.41c-10.24,14.42-28.5,30.6-28.5,30.6h-20.9s36.16-78.32,43.5-83.66c5.38-3.91,32.41-10.82,47.35-13.14,3.64-.57,25.67-1.24,31.57-1.47C393.07,343.68,401,343.26,401.57,344.45Z"/><path class="cls-5" d="M352.26,345.51s-46-14.06-54.78-9c-15.61,9,11.1,88.74,11.1,88.74L324,422.77s2.88-21.57.59-36.06c-1.34-8.41-6.2-30.13-6.2-30.13s11.76-4.77,15.81-5.94C339.27,349.16,352.26,345.51,352.26,345.51Z"/><path class="cls-6" d="M387.05,322.06h0l.27,0a19.67,19.67,0,0,0,3.69-1.44l.77,4.21c0,.1.5,1.43-.06,2.18-3.55,4.75-4.84,4.12-4.84,4.12l-2.26-2a2.07,2.07,0,0,1-.15-.34h0a2,2,0,0,1-.05-1.13l1-4.09A2,2,0,0,1,387.05,322.06Z"/><path class="cls-5" d="M313.07,374.06a12.59,12.59,0,0,0,3.2-1.11,12.38,12.38,0,0,1,2.9-1c11.24-1.64,21.42-3.64,30.41-5.41l6.93-1.36c20.45-3.94,32.06-6.09,32.17-6.11h0c-.11,0-11.8,1.48-32.28,5.42l-6.94,1.36c-9,1.77-19.15,3.77-30.37,5.41a12.75,12.75,0,0,0-3.1,1.08,11.8,11.8,0,0,1-3,1.05C310,373.77,310.11,374.47,313.07,374.06Z"/><path class="cls-5" d="M278.46,436.88l.2.05C285.58,424.57,293,409.65,300,393.8c1-2.42,2.13-4.92,3.18-7.43,1.17-2.76,2.33-5.57,3.46-8.33a10,10,0,0,0,.55-2.56h0c-.2-.29-.4-.6-.59-.9a.17.17,0,0,0,0,.07,12.19,12.19,0,0,1-.59,3.11c-1.12,2.77-2.28,5.57-3.45,8.33-1.06,2.5-2.13,5-3.19,7.42C292.42,409.32,285.38,424.54,278.46,436.88Z"/><path class="cls-17" d="M420.73,315.33s-6.46-2.14-20,2c-11,3.39-9.74,3.23-9.74,3.23l1,5.73a44.23,44.23,0,0,0,27.37-1s6.41-1.42,5-5.93S420.73,315.33,420.73,315.33Z"/><path class="cls-19" d="M362.48,410.77c9.81,1.3,16.52,1.68,34-2.47,18.92-4.46,33.52-14.9,41.2-32.75a75.76,75.76,0,0,0,5.62-28.5,93.73,93.73,0,0,0-3-22.35,39.24,39.24,0,0,0-7.61-15.06C423,319.8,401,343.77,384,368.37,373.76,383.24,365.31,398.34,362.48,410.77Z"/><path class="cls-20" d="M363.65,410.92c7.56-32.51,53.35-83.57,69.58-100.62a39.59,39.59,0,0,1,7.07,14.4,93.73,93.73,0,0,1,3,22.35,75.76,75.76,0,0,1-5.62,28.5c-7.68,17.85-22.28,28.29-41.2,32.75C379.7,412.28,372.85,412.1,363.65,410.92Z"/><path class="cls-12" d="M524.87,391.14c5.19,8.76,15,18.5,38.64,21.68,11.29,1.49,17.45,1.55,34.53-2.51,31.79-7.54,47-30.71,47.52-62.17-.26-17.61-4.16-36.57-19.46-45.28-8.4-4.79-36-9.56-59.43,2.79C511.18,334.92,515.38,375.18,524.87,391.14Z"/><path class="cls-13" d="M617.57,449.1H581.92V396.75h-9.58V449.1H538.07a3.37,3.37,0,1,0,0,6.74h79.5a3.37,3.37,0,1,0,0-6.74Z"/><path class="cls-12" d="M636,384.61c-11.74-2.7-33.41-7-54.43-7.22h-1.2c-4.75,0-9.58.14-14.4.53-15.36,1.23-31.29,2.6-44.93,3.8h-.06a39,39,0,0,0,3.93,9.41c5.19,8.76,15,18.5,38.64,21.68,11.29,1.49,17.45,1.55,34.53-2.51C615.66,406.13,628.2,397.15,636,384.61Z"/><path class="cls-6" d="M482.84,308.9h0l.52.06c2.46.13,10.32-1.07,10.32-1.07s-2.48,10.43-3.84,10.83c-3.68,1.09-6.78,4.34-9.88,5.08a3.8,3.8,0,0,1-4.64-3h0a3.14,3.14,0,0,1-.13-.68h0a3.74,3.74,0,0,1,.4-2.11l3.66-7.1A3.81,3.81,0,0,1,482.84,308.9Z"/><polygon class="cls-3" points="495.45 306.34 489.06 307.68 487.77 319.64 495.66 319.6 495.45 306.34"/><path class="cls-21" d="M495.45,306.35l.21,13.25s11.28.44,22.58,0c9.94-.39,19.89-1.47,22.24-4.13,2.67-3,4.59-26.36,5.8-47.47,1.05-18.45,1.57-35.21,1.57-35.21s-8.53,4-10.05,5c-6.45,4.38-16,60.52-16,60.52S498.56,305.12,495.45,306.35Z"/><path class="cls-5" d="M505,445.66l-2.53,9.64H476.21S482.76,442.58,505,445.66Z"/><path class="cls-21" d="M547.85,338.84c1.65,1.66,19.94,2.14,34.65,2.7,12.94.5,24.8.67,24.8.67,2.67-3.34,5.47-9.68,6.73-20.4a85,85,0,0,0,10.39-1.93,69.13,69.13,0,0,0,20.33-8.43,2.17,2.17,0,0,0,.94-2.28c-1.88-8.52-12.37-52.82-30.39-71.37-.63-.65-2.25-2.86-26.16-7.54-1.08,2.93-11.58,7.8-20.77,7.33a6.06,6.06,0,0,1-2.53-1.44c-7.26-1-10.71-4.92-10.37-5.44-.31,0-7.62,2.07-7.62,2.07C537.14,279.62,545.52,336.51,547.85,338.84Zm65.42-54.9a65.26,65.26,0,0,0,3,6.84c2.65,4.85,5.45,9,5.45,9a6.56,6.56,0,0,1-2.73,1.55c-1.19.49-2.71,1-4.42,1.61,0-4.48.89-1.95.47-7.92C614.65,289.34,614.47,286.91,613.27,283.94Z"/><path class="cls-6" d="M564.26,218s-2,16.45-2.23,18.78l13.31,2.05,8.75-7.24s-4.31-8.1-3.44-20.14Z"/><path class="cls-3" d="M582.5,341.54a75.84,75.84,0,0,1,24.57,5.65c2.66-3.33,5.7-14.66,7-25.38a85,85,0,0,0,10.39-1.93c-1.95-6.74-4-13.6-5.41-18.53-1.19.49-2.71,1-4.42,1.61,0-4.48.89-1.95.47-7.92-.41-5.7-1.61-14.9-5-15.47-3-.5-3.72,13.53-5.07,26.45-.67,6.39-1.49,12.5-2.81,16.46a11.16,11.16,0,0,1-1.63,3.34C595,332.81,581,337.26,582.5,341.54Z"/><path class="cls-6" d="M562.61,219.28s19.07.87,19.43-11,3.06-19.78-9.1-20.84-14.67,3.41-15.75,7.34S557.65,218.75,562.61,219.28Z"/><path class="cls-16" d="M582,208.27s-1.43-15.86-18.42-15.29-9.64-15.5,5-17.87c0,0-1.52,5.66,7.66,6.55C595.52,183.54,583.75,205.75,582,208.27Z"/><path class="cls-22" d="M472.7,445.66l-2.53,9.64H443.94S450.49,442.58,472.7,445.66Z"/><path class="cls-5" d="M605.92,352.23s-19.2,29.11-53.26,28.92c-42.35-.24-42-.93-42-.93s2.56,27.36-3.63,67.44l-17.62.95s-7.78-26.33-9.48-35.09c-7.27-37.6,1.77-65.73,1.77-65.73s10.15-4.73,32-7.93c20.13-2.95,41-1.47,41-1.47s48.8-1.16,52.64,6C608.23,345.91,605.92,352.23,605.92,352.23Z"/><path class="cls-14" d="M573,237.76l-8.76-.93a1.3,1.3,0,0,0-.89,1.62c.22,1.38,3.1,5.11,4.19,5.3S575.32,240.29,573,237.76Z"/><path class="cls-18" d="M605.32,351.75s-10.42,28.72-44.47,29.4c-53.49,1.08-53.49,1.29-53.49,1.29s4.08,27.41-33.87,64.62H452.13s14.93-45.3,20.57-59.87c3.69-9.52,16.75-36.48,16.75-36.48s17.18-5.55,32.2-7.17c10.41-1.12,41.3-5.15,41.3-5.15s40.61-1.16,44.45,6C608.23,345.91,605.32,351.75,605.32,351.75Z"/><path class="cls-3" d="M563.06,227.93s1.46,6.51,5.3,9.66l-5.92,7.71s-7.18-8.5-7-14.59C555.47,230.71,561.16,228.15,563.06,227.93Z"/><path class="cls-21" d="M563.06,227.93s1.11,6.12,5,9.27l-5.7,7s-6.25-7.27-6.85-13.51C555.47,230.71,561.16,228.15,563.06,227.93Z"/><path class="cls-3" d="M583,227.93s-9.06,8.59-15,9.27l4.05,10.13s17.67-10.46,17.72-16.73C589.79,230.6,584.93,228,583,227.93Z"/><path class="cls-21" d="M582.49,227.54s-8.54,9-14.47,9.66l3.28,9.34s17.79-10,17.84-16.28C589.14,230.26,584.4,227.59,582.49,227.54Z"/><path class="cls-19" d="M598,410.31c31.79-7.54,47-30.71,47.52-62.17-.2-13.66-2.6-28.13-10.8-38-11.26,11.85-37.12,40.31-54.43,67.25-8,12.48-14.39,24.94-16.86,35.43h0C574.8,414.31,581,414.37,598,410.31Z"/><path class="cls-20" d="M645.56,348.14c-.2-13.33-2.48-27.43-10.21-37.28-11.55,12.19-36.82,40.07-53.82,66.53-8.1,12.61-14.47,25-16.88,35.58,10.58,1.34,16.9,1.26,33.39-2.66C629.83,402.77,645.08,379.6,645.56,348.14Z"/><path class="cls-21" d="M625,299.39s-26.35,7.2-28.78,10.07l.21,13.26S624,324.46,643.88,312a1.64,1.64,0,0,0,0-2.76C639.08,306.19,627.54,299.06,625,299.39Z"/><path class="cls-3" d="M518.24,319.59c9.94-.39,19.89-1.47,22.24-4.13,2.67-3,.1-36.32,1.3-57.42-9.51,19.36-2.46,34.81-4.28,44.92S526.69,317.54,518.24,319.59Z"/><path class="cls-22" d="M512.83,368.32a11.84,11.84,0,0,0,3-1.11,11.37,11.37,0,0,1,2.74-1c10.61-1.64,20.23-3.64,28.72-5.41l6.54-1.36c19.31-3.94,30.27-6.09,30.38-6.11h0c-.11,0-11.15,1.48-30.49,5.42l-6.54,1.36c-8.48,1.77-18.09,3.77-28.69,5.41a11.81,11.81,0,0,0-2.93,1.08,11,11,0,0,1-2.82,1.05C510,368,510,368.73,512.83,368.32Z"/><path class="cls-22" d="M470.24,438.71l.19.05C477,426.4,484,411.48,490.55,395.63c1-2.43,2-4.93,3-7.43,1.1-2.76,2.2-5.57,3.26-8.34a10.28,10.28,0,0,0,.53-2.55h0l-.57-.9v.07a13.18,13.18,0,0,1-.56,3.11c-1.06,2.77-2.16,5.57-3.26,8.33-1,2.5-2,5-3,7.42C483.43,411.15,476.77,426.37,470.24,438.71Z"/><path class="cls-20" d="M568.85,242.72s1.66,15.67,1.95,20.91c.83,14.75,1.14,59.07,1.14,59.07a10.08,10.08,0,0,1-2.15,6.95,39.2,39.2,0,0,1-5.28,5.2,19.48,19.48,0,0,1-5.29-9.54c-1-4.15,1.4-38.95,3.82-62.13a208.15,208.15,0,0,1,3.23-20.77S568.25,242.06,568.85,242.72Z"/><path class="cls-6" d="M576.3,320.4l3.29-6.39a3.43,3.43,0,0,1,3.23-1.83h0c.15,0,9.74-.91,9.74-.91s-5.07,12.74-6,13.7a1.77,1.77,0,0,1-1.26.54c-2.24,0-8.83-.15-9.24-2.6a3.39,3.39,0,0,1-.12-.62h0A3.41,3.41,0,0,1,576.3,320.4Z"/><polygon class="cls-3" points="596.22 309.46 589.83 310.79 588.53 322.75 596.42 322.72 596.22 309.46"/><path class="cls-23" d="M657.51,325.37H215.84a6.58,6.58,0,0,0-6.58,6.58h0a6.58,6.58,0,0,0,6.58,6.57H424.33v91.94c-16.27,2.44-28.52,12.86-28.64,25.38h71.86c-.1-11-9.65-20.46-23.06-24.2a46.85,46.85,0,0,0-5.17-1.11v-92H657.51a6.58,6.58,0,0,0,6.58-6.57h0A6.58,6.58,0,0,0,657.51,325.37Z"/><path class="cls-24" d="M467.55,455.84H421.42c.1-11,9.65-20.46,23.07-24.2C457.9,435.38,467.45,444.8,467.55,455.84Z"/><polygon class="cls-25" points="336.86 280 276.67 280 289.13 323.86 348.81 323.86 336.86 280"/><polygon class="cls-26" points="335.93 280 275.74 280 288.2 323.86 347.89 323.86 335.93 280"/><rect class="cls-25" x="288.2" y="323.86" width="77.61" height="1.51" transform="translate(654.02 649.23) rotate(180)"/><path class="cls-27" d="M312.74,303a4.65,4.65,0,0,0-3.41-4.25,2.57,2.57,0,0,0-3.41,2.56,4.65,4.65,0,0,0,3.41,4.25A2.57,2.57,0,0,0,312.74,303Z"/><polygon class="cls-22" points="514.5 280 454.3 280 466.77 323.86 526.45 323.86 514.5 280"/><polygon class="cls-17" points="513.57 280 453.38 280 465.84 323.86 525.53 323.86 513.57 280"/><rect class="cls-17" x="465.84" y="323.86" width="77.61" height="1.51" transform="translate(1009.29 649.23) rotate(180)"/><path class="cls-21" d="M490.38,303a4.65,4.65,0,0,0-3.41-4.25,2.57,2.57,0,0,0-3.41,2.56,4.65,4.65,0,0,0,3.41,4.25A2.57,2.57,0,0,0,490.38,303Z"/></g></g><g id="AboutUs-next"><g class="cls-28"><line class="cls-29" x1="688.85" y1="14.25" x2="825.35" y2="-122.25"/></g></g><g id="Event"><g id="Layer_6" data-name="Layer 6"><g class="cls-30"><g class="cls-31"><rect class="cls-32" x="-1425.5" y="-1174" width="1917.5" height="1278"/></g></g><g id="imagesHere"><g class="cls-30"><path class="cls-33" d="M433.14-1107.77h0c-53.3-56.47-143.61-52.34-201.71,9.21l-1478,1565.74c-58.1,61.55-62,157.22-8.69,213.69s143.61,52.34,201.71-9.21l1478-1565.74C482.55-955.64,486.44-1051.31,433.14-1107.77Z"/><path class="cls-33" d="M-1157.14,284.56,198.7-1151.78c53.3-56.47,53.3-148,0-204.48h0c-53.3-56.47-139.72-56.47-193,0L-1350.16,80.08c-53.3,56.46-53.3,148,0,204.48S-1210.44,341-1157.14,284.56Z"/><path class="cls-33" d="M817.92-1000h0c-53.3-56.46-139.72-56.46-193,0L-730.93,436.35c-53.3,56.47-53.3,148,0,204.48s139.71,56.47,193,0L817.92-795.51C871.22-852,871.22-943.52,817.92-1000Z"/></g></g></g></g><g id="AboutUs"><g class="cls-34"><g class="cls-35"><polygon class="cls-36" points="2759.61 -2218.63 648.67 17.66 472.71 -168.75 2583.66 -2405.03 2759.61 -2218.63"/></g></g></g></svg>