<svg xmlns="http://www.w3.org/2000/svg" xmlns:xlink="http://www.w3.org/1999/xlink" viewBox="0 0 1920 600"><defs><style>.cls-1,.cls-12,.cls-13,.cls-14,.cls-15,.cls-16,.cls-17,.cls-18,.cls-19,.cls-20,.cls-21,.cls-22,.cls-23,.cls-24,.cls-25,.cls-26,.cls-27,.cls-28,.cls-29,.cls-30,.cls-31,.cls-32,.cls-33,.cls-34,.cls-35,.cls-36,.cls-37,.cls-38,.cls-39,.cls-40,.cls-41,.cls-42,.cls-43,.cls-44,.cls-45,.cls-46,.cls-47,.cls-48,.cls-49,.cls-50,.cls-51,.cls-52,.cls-53,.cls-54,.cls-55,.cls-56,.cls-57,.cls-58,.cls-59,.cls-60,.cls-61,.cls-62,.cls-63,.cls-64,.cls-65,.cls-66,.cls-67,.cls-68,.cls-69,.cls-70,.cls-71,.cls-72,.cls-73,.cls-74,.cls-75,.cls-76{fill:none;}.cls-2{isolation:isolate;}.cls-3{clip-path:url(#clip-path);}.cls-4{clip-path:url(#clip-path-2);}.cls-5,.cls-9{fill:#00bcd4;}.cls-5{opacity:0.15;}.cls-6{clip-path:url(#clip-path-3);}.cls-7{fill:#f29f05;}.cls-8{fill:#0071bc;}.cls-10{fill:#212121;}.cls-11{clip-path:url(#clip-path-4);}.cls-12,.cls-13,.cls-14,.cls-15,.cls-16,.cls-17,.cls-18,.cls-19,.cls-20,.cls-21,.cls-22,.cls-23,.cls-24,.cls-25,.cls-26,.cls-27,.cls-28,.cls-29,.cls-30,.cls-31,.cls-32,.cls-33,.cls-34,.cls-35,.cls-36,.cls-37,.cls-38,.cls-39,.cls-40,.cls-41,.cls-42,.cls-43,.cls-44,.cls-45,.cls-46,.cls-47,.cls-48,.cls-49,.cls-50,.cls-51,.cls-52,.cls-53,.cls-54{stroke:#00bcd4;}.cls-12,.cls-13,.cls-14,.cls-15,.cls-16,.cls-17,.cls-18,.cls-19,.cls-20,.cls-21,.cls-22,.cls-23,.cls-24,.cls-25,.cls-26,.cls-27,.cls-28,.cls-29,.cls-30,.cls-31,.cls-32,.cls-33,.cls-34,.cls-35,.cls-36,.cls-37,.cls-38,.cls-39,.cls-40,.cls-41,.cls-42,.cls-43,.cls-44,.cls-45,.cls-46,.cls-47,.cls-48,.cls-49,.cls-50,.cls-51,.cls-52,.cls-53,.cls-54,.cls-55,.cls-56,.cls-57,.cls-58,.cls-59,.cls-60,.cls-61,.cls-62,.cls-63,.cls-64,.cls-65,.cls-66,.cls-67,.cls-68,.cls-69,.cls-70,.cls-71,.cls-72,.cls-73,.cls-74,.cls-75{stroke-linecap:round;stroke-linejoin:round;}.cls-12{stroke-width:0.88px;}.cls-13{stroke-width:0.95px;}.cls-14{stroke-width:1.03px;}.cls-15{stroke-width:1.11px;}.cls-16{stroke-width:1.19px;}.cls-17{stroke-width:1.27px;}.cls-18{stroke-width:1.35px;}.cls-19{stroke-width:1.43px;}.cls-20{stroke-width:1.51px;}.cls-21{stroke-width:1.58px;}.cls-22{stroke-width:1.66px;}.cls-23{stroke-width:1.74px;}.cls-24{stroke-width:1.82px;}.cls-25{stroke-width:1.9px;}.cls-26{stroke-width:1.98px;}.cls-27{stroke-width:2.06px;}.cls-28{stroke-width:2.13px;}.cls-29{stroke-width:2.21px;}.cls-30{stroke-width:2.29px;}.cls-31{stroke-width:2.37px;}.cls-32{stroke-width:2.45px;}.cls-33{stroke-width:2.53px;}.cls-34{stroke-width:2.61px;}.cls-35,.cls-55{stroke-width:0.75px;}.cls-35{stroke-dasharray:0 4;}.cls-36,.cls-56{stroke-width:0.82px;}.cls-36{stroke-dasharray:0 4;}.cls-37,.cls-57{stroke-width:0.9px;}.cls-37{stroke-dasharray:0 4;}.cls-38,.cls-58{stroke-width:0.97px;}.cls-38{stroke-dasharray:0 4;}.cls-39,.cls-59{stroke-width:1.05px;}.cls-39{stroke-dasharray:0 4;}.cls-40,.cls-60{stroke-width:1.12px;}.cls-40{stroke-dasharray:0 4;}.cls-41,.cls-61{stroke-width:1.19px;}.cls-41{stroke-dasharray:0 4;}.cls-42,.cls-62{stroke-width:1.27px;}.cls-42{stroke-dasharray:0 4;}.cls-43,.cls-63{stroke-width:1.34px;}.cls-43{stroke-dasharray:0 4;}.cls-44,.cls-64{stroke-width:1.41px;}.cls-44{stroke-dasharray:0 4;}.cls-45,.cls-65{stroke-width:1.49px;}.cls-45{stroke-dasharray:0 4;}.cls-46,.cls-66{stroke-width:1.56px;}.cls-46{stroke-dasharray:0 4;}.cls-47,.cls-67{stroke-width:1.64px;}.cls-47{stroke-dasharray:0 4;}.cls-48,.cls-68{stroke-width:1.71px;}.cls-48{stroke-dasharray:0 4;}.cls-49,.cls-69{stroke-width:1.78px;}.cls-49{stroke-dasharray:0 4;}.cls-50,.cls-70{stroke-width:1.86px;}.cls-50{stroke-dasharray:0 4;}.cls-51,.cls-71{stroke-width:1.93px;}.cls-51{stroke-dasharray:0 4;}.cls-52,.cls-72{stroke-width:2.01px;}.cls-52{stroke-dasharray:0 4;}.cls-53,.cls-73{stroke-width:2.08px;}.cls-53{stroke-dasharray:0 4;}.cls-54,.cls-74{stroke-width:2.15px;}.cls-54{stroke-dasharray:0 4;}.cls-55,.cls-56,.cls-57,.cls-58,.cls-59,.cls-60,.cls-61,.cls-62,.cls-63,.cls-64,.cls-65,.cls-66,.cls-67,.cls-68,.cls-69,.cls-70,.cls-71,.cls-72,.cls-73,.cls-74,.cls-75{stroke:#ff4081;}.cls-55{stroke-dasharray:0 4;}.cls-56{stroke-dasharray:0 4;}.cls-57{stroke-dasharray:0 4;}.cls-58{stroke-dasharray:0 4;}.cls-59{stroke-dasharray:0 4;}.cls-60{stroke-dasharray:0 4;}.cls-61{stroke-dasharray:0 4;}.cls-62{stroke-dasharray:0 4;}.cls-63{stroke-dasharray:0 4;}.cls-64{stroke-dasharray:0 4;}.cls-65{stroke-dasharray:0 4;}.cls-66{stroke-dasharray:0 4;}.cls-67{stroke-dasharray:0 4;}.cls-68{stroke-dasharray:0 4;}.cls-69{stroke-dasharray:0 4;}.cls-70{stroke-dasharray:0 4;}.cls-71{stroke-dasharray:0 4;}.cls-72{stroke-dasharray:0 4;}.cls-73{stroke-dasharray:0 4;}.cls-74{stroke-dasharray:0 4;}.cls-75{stroke-width:2.23px;stroke-dasharray:0 4;}.cls-76{stroke:#212121;stroke-miterlimit:10;}.cls-77{fill:#fff;}.cls-78{fill:#9881b7;}.cls-78,.cls-95{opacity:0.55;}.cls-78,.cls-81,.cls-87,.cls-95{mix-blend-mode:multiply;}.cls-79{fill:#292c3d;}.cls-80{fill:#0254e4;}.cls-81{fill:#00a1cc;opacity:0.65;}.cls-82{fill:#f9a57e;}.cls-83{fill:#e76f59;}.cls-84{fill:#e8a393;}.cls-85{fill:#4d505e;}.cls-86{fill:#3d3848;}.cls-87{fill:#ca0045;opacity:0.32;}.cls-88{fill:#da395b;}.cls-89{fill:#ff4c6b;}.cls-90{fill:#d8d8d8;}.cls-91{fill:#afeaf0;}.cls-92{fill:#7695a8;}.cls-93{fill:#5ac4e0;}.cls-94{fill:#ffb089;}.cls-95{fill:#abacb3;}.cls-96{fill:#3f6a85;}.cls-97{fill:#5b5d6a;}.cls-98{fill:#273137;}.cls-99{fill:#f8f2ed;}.cls-100{fill:#48525b;}.cls-101{fill:#b6b6b6;}.cls-102{fill:#fff9fd;}.cls-103{fill:#8494ab;}.cls-104{fill:#b3b2da;}.cls-105{clip-path:url(#clip-path-5);}</style><clipPath id="clip-path"><rect class="cls-1" x="-1956.5" y="630" width="1933" height="900"/></clipPath><clipPath id="clip-path-2"><rect class="cls-1" x="-1948.5" y="628" width="1919" height="902"/></clipPath><clipPath id="clip-path-3"><rect class="cls-1" x="-1.5" y="-0.5" width="1923" height="601"/></clipPath><clipPath id="clip-path-4"><rect class="cls-1" width="1920" height="598"/></clipPath><clipPath id="clip-path-5"><rect class="cls-1" x="-1950.5" y="-630" width="1921" height="600"/></clipPath></defs><g class="cls-2"><g id="EntrePage"><g class="cls-3"><g class="cls-4"><polygon class="cls-5" points="40.31 153.88 -2064.06 2390.17 -2356.87 2079 -252.5 -157.28 40.31 153.88"/><polygon class="cls-5" points="289.12 401.37 -1815.25 2637.66 -1990.66 2451.25 113.71 214.97 289.12 401.37"/></g></g></g><g id="Courses"><g class="cls-6"><rect class="cls-7" x="-1.5" y="-0.5" width="1923" height="601"/><rect class="cls-8" x="-851.82" y="-78.35" width="3476.09" height="483.68" transform="translate(143.97 674.54) rotate(-45)"/><rect class="cls-8" x="-581.72" y="-446.08" width="1892.56" height="304.92" transform="translate(314.4 171.78) rotate(-45)"/><rect class="cls-8" x="896.69" y="452.52" width="1892.56" height="230.14" transform="translate(138.45 1469.42) rotate(-45)"/><rect class="cls-9" x="714.59" y="420.26" width="1892.56" height="80.27" transform="translate(160.91 1309.25) rotate(-45)"/><rect class="cls-8" x="-492.64" y="359.2" width="3476.09" height="289.74" transform="translate(8.33 1028.28) rotate(-45)"/></g><path class="cls-10" d="M440.44,388.74a6,6,0,1,1-6-6A6,6,0,0,1,440.44,388.74Z"/><path class="cls-10" d="M481.06,388.74a6,6,0,1,1-6-6A6,6,0,0,1,481.06,388.74Z"/><path class="cls-10" d="M521.67,388.74a6,6,0,1,1-6-6A6,6,0,0,1,521.67,388.74Z"/><path class="cls-10" d="M440.44,429.36a6,6,0,1,1-6-6A6,6,0,0,1,440.44,429.36Z"/><path class="cls-10" d="M481.06,429.36a6,6,0,1,1-6-6A6,6,0,0,1,481.06,429.36Z"/><path class="cls-10" d="M521.67,429.36a6,6,0,1,1-6-6A6,6,0,0,1,521.67,429.36Z"/><path class="cls-10" d="M440.44,470a6,6,0,1,1-6-6A6,6,0,0,1,440.44,470Z"/><path class="cls-10" d="M481.06,470a6,6,0,1,1-6-6A6,6,0,0,1,481.06,470Z"/><path class="cls-10" d="M521.67,470a6,6,0,1,1-6-6A6,6,0,0,1,521.67,470Z"/><g class="cls-11"><circle class="cls-12" cx="-61.87" cy="179.37" r="202.8" transform="translate(-144.96 8.79) rotate(-45)"/><circle class="cls-13" cx="-61.87" cy="179.37" r="196.51" transform="translate(-144.96 8.79) rotate(-45)"/><circle class="cls-14" cx="-61.87" cy="179.37" r="190.22" transform="translate(-144.96 8.79) rotate(-45)"/><circle class="cls-15" cx="-61.87" cy="179.37" r="183.93" transform="translate(-144.96 8.79) rotate(-45)"/><circle class="cls-16" cx="-61.87" cy="179.37" r="177.65" transform="translate(-144.96 8.79) rotate(-45)"/><circle class="cls-17" cx="-61.87" cy="179.37" r="171.36" transform="translate(-144.96 8.79) rotate(-45)"/><circle class="cls-18" cx="-61.87" cy="179.37" r="165.07" transform="translate(-144.96 8.79) rotate(-45)"/><circle class="cls-19" cx="-61.87" cy="179.37" r="158.78" transform="translate(-144.96 8.79) rotate(-45)"/><circle class="cls-20" cx="-61.87" cy="179.37" r="152.5" transform="translate(-144.96 8.79) rotate(-45)"/><circle class="cls-21" cx="-61.87" cy="179.37" r="146.21" transform="translate(-144.96 8.79) rotate(-45)"/><circle class="cls-22" cx="-61.87" cy="179.37" r="139.92" transform="translate(-144.96 8.79) rotate(-45)"/><circle class="cls-23" cx="-61.87" cy="179.37" r="133.63" transform="translate(-144.96 8.79) rotate(-45)"/><circle class="cls-24" cx="-61.87" cy="179.37" r="127.35" transform="translate(-144.96 8.79) rotate(-45)"/><circle class="cls-25" cx="-61.87" cy="179.37" r="121.06" transform="translate(-144.96 8.79) rotate(-45)"/><circle class="cls-26" cx="-61.87" cy="179.37" r="114.77" transform="translate(-144.96 8.79) rotate(-45)"/><circle class="cls-27" cx="-61.87" cy="179.37" r="108.48" transform="translate(-144.96 8.79) rotate(-45)"/><circle class="cls-28" cx="-61.87" cy="179.37" r="102.2" transform="translate(-144.96 8.79) rotate(-45)"/><circle class="cls-29" cx="-61.87" cy="179.37" r="95.91" transform="translate(-144.96 8.79) rotate(-45)"/><circle class="cls-30" cx="-61.87" cy="179.37" r="89.62" transform="translate(-144.96 8.79) rotate(-45)"/><circle class="cls-31" cx="-61.87" cy="179.37" r="83.33" transform="translate(-144.96 8.79) rotate(-45)"/><circle class="cls-32" cx="-61.87" cy="179.37" r="77.04" transform="translate(-144.96 8.79) rotate(-45)"/><circle class="cls-33" cx="-61.87" cy="179.37" r="70.76" transform="translate(-144.96 8.79) rotate(-45)"/><circle class="cls-34" cx="-61.87" cy="179.37" r="64.47" transform="translate(-144.96 8.79) rotate(-45)"/><circle class="cls-35" cx="1631.25" cy="835.61" r="359.97"/><circle class="cls-36" cx="1631.25" cy="835.61" r="353.56"/><circle class="cls-37" cx="1631.25" cy="835.61" r="347.15"/><circle class="cls-38" cx="1631.25" cy="835.61" r="340.73"/><circle class="cls-39" cx="1631.25" cy="835.61" r="334.32"/><circle class="cls-40" cx="1631.25" cy="835.61" r="327.91"/><circle class="cls-41" cx="1631.25" cy="835.61" r="321.5"/><circle class="cls-42" cx="1631.25" cy="835.61" r="315.09"/><circle class="cls-43" cx="1631.25" cy="835.61" r="308.67"/><circle class="cls-44" cx="1631.25" cy="835.61" r="302.26"/><circle class="cls-45" cx="1631.25" cy="835.61" r="295.85"/><circle class="cls-46" cx="1631.25" cy="835.61" r="289.44"/><circle class="cls-47" cx="1631.25" cy="835.61" r="283.03"/><circle class="cls-48" cx="1631.25" cy="835.61" r="276.61"/><circle class="cls-49" cx="1631.25" cy="835.61" r="270.2"/><circle class="cls-50" cx="1631.25" cy="835.61" r="263.79" transform="translate(-113.08 1398.21) rotate(-45)"/><circle class="cls-51" cx="1631.25" cy="835.61" r="257.38" transform="translate(-113.08 1398.21) rotate(-45)"/><circle class="cls-52" cx="1631.25" cy="835.61" r="250.97" transform="translate(-113.08 1398.21) rotate(-45)"/><circle class="cls-53" cx="1631.25" cy="835.61" r="244.55" transform="translate(-113.08 1398.21) rotate(-45)"/><circle class="cls-54" cx="1631.25" cy="835.61" r="238.14" transform="translate(-113.08 1398.21) rotate(-45)"/><circle class="cls-55" cx="914.71" cy="-226.83" r="359.97"/><circle class="cls-56" cx="914.71" cy="-226.83" r="353.56"/><circle class="cls-57" cx="914.71" cy="-226.83" r="347.15"/><circle class="cls-58" cx="914.71" cy="-226.83" r="340.73"/><circle class="cls-59" cx="914.71" cy="-226.83" r="334.32"/><circle class="cls-60" cx="914.71" cy="-226.83" r="327.91"/><circle class="cls-61" cx="914.71" cy="-226.83" r="321.5"/><circle class="cls-62" cx="914.71" cy="-226.83" r="315.09"/><circle class="cls-63" cx="914.71" cy="-226.83" r="308.67"/><circle class="cls-64" cx="914.71" cy="-226.83" r="302.26"/><circle class="cls-65" cx="914.71" cy="-226.83" r="295.85"/><circle class="cls-66" cx="914.71" cy="-226.83" r="289.44"/><circle class="cls-67" cx="914.71" cy="-226.83" r="283.03"/><circle class="cls-68" cx="914.71" cy="-226.83" r="276.61"/><circle class="cls-69" cx="914.71" cy="-226.83" r="270.2"/><circle class="cls-70" cx="914.71" cy="-226.83" r="263.79"/><circle class="cls-71" cx="914.71" cy="-226.83" r="257.38"/><circle class="cls-72" cx="914.71" cy="-226.83" r="250.97"/><circle class="cls-73" cx="914.71" cy="-226.83" r="244.55" transform="translate(428.31 580.36) rotate(-45)"/><circle class="cls-74" cx="914.71" cy="-226.83" r="238.14"/><circle class="cls-75" cx="914.71" cy="-226.83" r="231.73" transform="translate(428.31 580.36) rotate(-45)"/><circle class="cls-76" cx="1797.04" cy="20.87" r="5.98"/><circle class="cls-76" cx="1825.75" cy="49.59" r="5.98"/><circle class="cls-76" cx="1854.47" cy="20.87" r="5.98"/><circle class="cls-76" cx="1825.75" cy="49.59" r="5.98"/><circle class="cls-76" cx="1854.47" cy="20.87" r="5.98"/><circle class="cls-76" cx="1854.47" cy="78.31" r="5.98"/><circle class="cls-76" cx="1883.19" cy="49.59" r="5.98"/><path class="cls-76" d="M1916.14,16.64a6,6,0,1,1-8.46,0A6,6,0,0,1,1916.14,16.64Z"/><circle class="cls-76" cx="1883.19" cy="107.03" r="5.98"/><circle class="cls-76" cx="1911.91" cy="78.31" r="5.98"/><path class="cls-76" d="M75,544.28a6,6,0,1,1-6-6A6,6,0,0,1,75,544.28Z"/><path class="cls-76" d="M115.63,544.28a6,6,0,1,1-6-6A6,6,0,0,1,115.63,544.28Z"/><path class="cls-76" d="M156.24,544.28a6,6,0,1,1-6-6A6,6,0,0,1,156.24,544.28Z"/><path class="cls-76" d="M196.85,544.28a6,6,0,1,1-6-6A6,6,0,0,1,196.85,544.28Z"/><path class="cls-76" d="M237.47,544.28a6,6,0,1,1-6-6A6,6,0,0,1,237.47,544.28Z"/><path class="cls-76" d="M75,584.89a6,6,0,1,1-6-6A6,6,0,0,1,75,584.89Z"/><path class="cls-76" d="M115.63,584.89a6,6,0,1,1-6-6A6,6,0,0,1,115.63,584.89Z"/><path class="cls-76" d="M156.24,584.89a6,6,0,1,1-6-6A6,6,0,0,1,156.24,584.89Z"/><path class="cls-76" d="M196.85,584.89a6,6,0,1,1-6-6A6,6,0,0,1,196.85,584.89Z"/><path class="cls-76" d="M237.47,584.89a6,6,0,1,1-6-6A6,6,0,0,1,237.47,584.89Z"/><path class="cls-76" d="M1666.86,518.05a7.5,7.5,0,1,1-7.49-7.5A7.49,7.49,0,0,1,1666.86,518.05Z"/><path class="cls-76" d="M1717.77,518.05a7.5,7.5,0,1,1-7.5-7.5A7.49,7.49,0,0,1,1717.77,518.05Z"/><path class="cls-76" d="M1768.68,518.05a7.5,7.5,0,1,1-7.5-7.5A7.49,7.49,0,0,1,1768.68,518.05Z"/><path class="cls-76" d="M1666.86,569a7.5,7.5,0,1,1-7.49-7.5A7.49,7.49,0,0,1,1666.86,569Z"/><path class="cls-76" d="M1717.77,569a7.5,7.5,0,1,1-7.5-7.5A7.5,7.5,0,0,1,1717.77,569Z"/><path class="cls-76" d="M1768.68,569a7.5,7.5,0,1,1-7.5-7.5A7.5,7.5,0,0,1,1768.68,569Z"/></g><g id="Layer_19" data-name="Layer 19"><path class="cls-77" d="M311.93,525H309v-1.74h2.9Zm-9.86,0h-7v-1.74h7Zm-13.92,0h-7v-1.74h7Zm-13.93,0h-7v-1.74h7Zm-8.45-5.47H264v-7h1.74Zm0-13.92H264v-7h1.74Zm0-13.92H264v-7h1.74Zm0-13.92H264v-7h1.74Z"/><path class="cls-77" d="M261.63,471a3.27,3.27,0,1,1,3.27,3.27A3.28,3.28,0,0,1,261.63,471Z"/><path class="cls-77" d="M261.2,471a3.71,3.71,0,1,0,3.7-3.7,3.71,3.71,0,0,0-3.7,3.7Zm6.54,0a2.84,2.84,0,1,1-2.84-2.83,2.84,2.84,0,0,1,2.84,2.83Z"/><path class="cls-77" d="M311.75,527.41a3.27,3.27,0,1,0-3.27-3.27A3.27,3.27,0,0,0,311.75,527.41Z"/><path class="cls-77" d="M311.75,527.85a3.71,3.71,0,1,1,3.7-3.71,3.72,3.72,0,0,1-3.7,3.71Zm0-6.55a2.84,2.84,0,1,0,2.83,2.84,2.84,2.84,0,0,0-2.83-2.84Z"/><path class="cls-77" d="M600.36,532h-4.55v-1.74h2.81v-2.41h1.74Zm-11.51,0h-7v-1.74h7Zm-13.93,0h-7v-1.74h7ZM561,532h-7v-1.74h7Zm-13.92,0h-7v-1.74h7Zm-13.92,0h-7v-1.74h7Zm-13.92,0h-7v-1.74h7Zm81.12-11.11h-1.74v-7h1.74Zm0-13.92h-1.74v-7h1.74Zm0-13.92h-1.74v-7h1.74Z"/><path class="cls-77" d="M496.63,534.39a3.27,3.27,0,1,1,3.27-3.27A3.28,3.28,0,0,1,496.63,534.39Z"/><path class="cls-77" d="M496.63,534.82a3.71,3.71,0,1,0-3.7-3.7,3.71,3.71,0,0,0,3.7,3.7Zm0-6.54a2.84,2.84,0,1,1-2.83,2.84,2.84,2.84,0,0,1,2.83-2.84Z"/><path class="cls-77" d="M602.76,484.94a3.27,3.27,0,1,0-3.27,3.27A3.28,3.28,0,0,0,602.76,484.94Z"/><path class="cls-77" d="M603.19,484.94a3.71,3.71,0,1,1-3.7-3.7,3.71,3.71,0,0,1,3.7,3.7Zm-6.54,0a2.84,2.84,0,1,0,2.84-2.83,2.84,2.84,0,0,0-2.84,2.83Z"/><path class="cls-77" d="M1646.17,497.77h-7V496h7Zm-13.92,0h-7V496h7Zm19.47-3.15H1650v-7h1.74Zm0-13.92H1650v-7h1.74Z"/><path class="cls-77" d="M1615.19,500.17a3.27,3.27,0,1,1,3.28-3.27A3.27,3.27,0,0,1,1615.19,500.17Z"/><path class="cls-77" d="M1615.19,500.61a3.71,3.71,0,1,0-3.7-3.71,3.71,3.71,0,0,0,3.7,3.71Zm0-6.54a2.84,2.84,0,1,1-2.83,2.83,2.84,2.84,0,0,1,2.83-2.83Z"/><path class="cls-77" d="M1654.12,472.27a3.27,3.27,0,1,0-3.27,3.27A3.26,3.26,0,0,0,1654.12,472.27Z"/><path class="cls-77" d="M1654.56,472.27a3.71,3.71,0,1,1-3.71-3.71,3.71,3.71,0,0,1,3.71,3.71Zm-6.55,0a2.84,2.84,0,1,0,2.84-2.84,2.84,2.84,0,0,0-2.84,2.84Z"/><path class="cls-77" d="M1238.75,524.94h-7V523.2h7Zm-13.92,0h-7V523.2h7Zm-13.92,0h-7V523.2h7Zm-13.92,0h-7V523.2h7Zm-13.92,0h-7V523.2h7Zm-13.92,0h-7V523.2h7Zm-13.92,0h-7V523.2h7Zm-13.92,0h-7V523.2h7Zm-8.61-5.32H1131v-7h1.74Zm0-13.92H1131v-7h1.74Zm0-13.92H1131v-7h1.74Zm0-13.92H1131v-7h1.74Z"/><path class="cls-77" d="M1128.56,471.09a3.27,3.27,0,1,1,3.27,3.27A3.26,3.26,0,0,1,1128.56,471.09Z"/><path class="cls-77" d="M1128.12,471.09a3.71,3.71,0,1,0,3.71-3.71,3.71,3.71,0,0,0-3.71,3.71Zm6.54,0a2.84,2.84,0,1,1-2.83-2.84,2.83,2.83,0,0,1,2.83,2.84Z"/><path class="cls-77" d="M1240.87,527.34a3.28,3.28,0,1,0-3.27-3.27A3.27,3.27,0,0,0,1240.87,527.34Z"/><path class="cls-77" d="M1240.87,527.77a3.71,3.71,0,1,1,3.71-3.7,3.71,3.71,0,0,1-3.71,3.7Zm0-6.54a2.84,2.84,0,1,0,2.84,2.84,2.84,2.84,0,0,0-2.84-2.84Z"/><ellipse class="cls-78" cx="960" cy="460.86" rx="814" ry="29.06"/><path class="cls-77" d="M478.36,184.32h-1.74v-7h1.74Zm0-13.92h-1.74v-7h1.74Zm0-13.92h-1.74v-7h1.74Zm0-13.92h-1.74v-7h1.74Zm0-13.92h-1.74v-7h1.74Zm0-13.92h-1.74v-7h1.74Zm0-13.92h-1.74v-7h1.74Zm0-13.92h-1.74v-7h1.74Zm0-13.93h-1.74V66h1.74Zm0-13.92h-1.74v-7h1.74Zm0-13.92h-1.74v-7h1.74ZM554.89,32.9h-7V31.16h7ZM541,32.9h-7V31.16h7Zm-13.92,0h-7V31.16h7Zm-13.92,0h-7V31.16h7Zm-13.92,0h-7V31.16h7Zm-13.92,0h-7V31.16h7Z"/><circle class="cls-77" cx="477.49" cy="184.14" r="3.27"/><path class="cls-77" d="M481.2,184.14a3.71,3.71,0,1,0-3.71,3.7,3.71,3.71,0,0,0,3.71-3.7Zm-6.54,0a2.84,2.84,0,1,1,2.83,2.83,2.84,2.84,0,0,1-2.83-2.83Z"/><path class="cls-77" d="M560.87,35.3A3.27,3.27,0,1,0,557.6,32,3.26,3.26,0,0,0,560.87,35.3Z"/><path class="cls-77" d="M560.87,35.74A3.71,3.71,0,1,1,564.58,32a3.71,3.71,0,0,1-3.71,3.71Zm0-6.55A2.84,2.84,0,1,0,563.71,32a2.84,2.84,0,0,0-2.84-2.84Z"/><path class="cls-77" d="M887.15,184.34h-1.74v-6.57h1.74Zm0-13.53h-1.74v-7h1.74Zm0-13.92h-1.74v-7h1.74Zm0-13.92h-1.74v-7h1.74Zm0-13.92h-1.74v-7h1.74Zm0-13.93h-1.74v-7h1.74Zm0-13.92h-1.74v-7h1.74Zm0-13.92h-1.74v-7h1.74Zm0-13.92h-1.74v-7h1.74Zm0-13.92h-1.74v-7h1.74Zm-3.73-10.18h-7V47.52h7Zm-13.92,0h-7V47.52h7Zm-13.92,0h-7V47.52h7Z"/><path class="cls-77" d="M848.8,51.66a3.27,3.27,0,1,1,3.27-3.27A3.27,3.27,0,0,1,848.8,51.66Z"/><path class="cls-77" d="M848.8,52.09a3.71,3.71,0,1,0-3.71-3.7,3.71,3.71,0,0,0,3.71,3.7Zm0-6.54A2.84,2.84,0,1,1,846,48.39a2.84,2.84,0,0,1,2.84-2.84Z"/><path class="cls-77" d="M883,184.16a3.27,3.27,0,1,0,3.27-3.28A3.28,3.28,0,0,0,883,184.16Z"/><path class="cls-77" d="M882.58,184.16a3.71,3.71,0,1,1,3.7,3.7,3.71,3.71,0,0,1-3.7-3.7Zm6.54,0a2.84,2.84,0,1,0-2.84,2.83,2.84,2.84,0,0,0,2.84-2.83Z"/><path class="cls-77" d="M1486.16,154.31h-1.74v-7h1.74Zm0-13.92h-1.74v-7h1.74Zm0-13.92h-1.74v-7h1.74Zm0-13.92h-1.74v-7h1.74Zm0-13.92h-1.74v-7h1.74Zm0-13.92h-1.74v-7h1.74Z"/><path class="cls-77" d="M1488.56,154.12a3.27,3.27,0,1,1-3.27-3.27A3.27,3.27,0,0,1,1488.56,154.12Z"/><path class="cls-77" d="M1489,154.12a3.71,3.71,0,1,0-3.71,3.71,3.71,3.71,0,0,0,3.71-3.71Zm-6.55,0a2.84,2.84,0,1,1,2.84,2.84,2.84,2.84,0,0,1-2.84-2.84Z"/><path class="cls-77" d="M1488.56,77.73a3.27,3.27,0,1,0-3.27,3.27A3.27,3.27,0,0,0,1488.56,77.73Z"/><path class="cls-77" d="M1489,77.73a3.71,3.71,0,1,1-3.71-3.7,3.72,3.72,0,0,1,3.71,3.7Zm-6.55,0a2.84,2.84,0,1,0,2.84-2.83,2.84,2.84,0,0,0-2.84,2.83Z"/><path class="cls-77" d="M1096.49,162.28h-1.74v-4.11h1.74Zm0-11.07h-1.74v-7h1.74Zm0-13.92h-1.74v-7h1.74Zm0-13.93h-1.74v-7h1.74Zm0-13.92h-1.74v-7h1.74Zm0-13.92h-1.74v-7h1.74Zm0-13.92h-1.74v-7h1.74Zm0-13.92h-1.74v-7h1.74ZM1311,54.26h-7V52.52h7Zm-13.92,0h-7V52.52h7Zm-13.92,0h-7V52.52h7Zm-13.92,0h-7V52.52h7Zm-13.92,0h-7V52.52h7Zm-13.92,0h-7V52.52h7Zm-13.92,0h-7V52.52h7Zm-13.92,0h-7V52.52h7Zm-13.92,0h-7V52.52h7Zm-13.92,0h-7V52.52h7Zm-13.92,0h-7V52.52h7Zm-13.93,0h-7V52.52h7Zm-13.92,0h-7V52.52h7Zm-13.92,0h-7V52.52h7Zm-13.92,0h-7V52.52h7Zm-13.92,0h-6.58v-.5h-.87V52.52h7.45Z"/><path class="cls-77" d="M1310.83,50.11a3.28,3.28,0,1,1-3.27,3.28A3.28,3.28,0,0,1,1310.83,50.11Z"/><path class="cls-77" d="M1310.83,49.68a3.71,3.71,0,1,0,3.7,3.71,3.71,3.71,0,0,0-3.7-3.71Zm0,6.54a2.84,2.84,0,1,1,2.83-2.83,2.84,2.84,0,0,1-2.83,2.83Z"/><circle class="cls-77" cx="1095.62" cy="162.1" r="3.27"/><path class="cls-77" d="M1091.91,162.1a3.71,3.71,0,1,1,3.71,3.7,3.71,3.71,0,0,1-3.71-3.7Zm6.54,0a2.84,2.84,0,1,0-2.83,2.83,2.84,2.84,0,0,0,2.83-2.83Z"/><path class="cls-77" d="M690.42,549.35h-5.21v-1.74h5.21Zm-12.17,0h-7v-1.74h7Zm-13.92,0h-7v-1.74h7Zm-13.92,0h-7v-1.74h7Zm-13.93,0h-6.71v-2h1.74v.25h5Zm-5-9h-1.74v-7h1.74Zm0-13.92h-1.74v-7h1.74Zm0-13.92h-1.74v-7h1.74Z"/><circle class="cls-77" cx="630.64" cy="505.79" r="3.27"/><path class="cls-77" d="M626.94,505.79a3.71,3.71,0,1,0,3.7-3.71,3.7,3.7,0,0,0-3.7,3.71Zm6.54,0a2.84,2.84,0,1,1-2.84-2.84,2.84,2.84,0,0,1,2.84,2.84Z"/><path class="cls-77" d="M690.23,551.75a3.27,3.27,0,1,0-3.27-3.27A3.26,3.26,0,0,0,690.23,551.75Z"/><path class="cls-77" d="M690.23,552.19a3.71,3.71,0,1,1,3.71-3.71,3.71,3.71,0,0,1-3.71,3.71Zm0-6.54a2.84,2.84,0,1,0,2.84,2.83,2.83,2.83,0,0,0-2.84-2.83Z"/><path class="cls-77" d="M1081.61,537.52h-4.25v-1.74h2.51v-2.71h1.74Zm-11.21,0h-7v-1.74h7Zm11.21-11.41h-1.74v-7h1.74Zm0-13.92h-1.74v-7h1.74Z"/><path class="cls-77" d="M1052.42,539.92a3.27,3.27,0,1,1,3.27-3.27A3.27,3.27,0,0,1,1052.42,539.92Z"/><path class="cls-77" d="M1052.42,540.35a3.71,3.71,0,1,0-3.71-3.7,3.71,3.71,0,0,0,3.71,3.7Zm0-6.54a2.84,2.84,0,1,1-2.84,2.84,2.84,2.84,0,0,1,2.84-2.84Z"/><path class="cls-77" d="M1084,503.48a3.27,3.27,0,1,0-3.27,3.27A3.27,3.27,0,0,0,1084,503.48Z"/><path class="cls-77" d="M1084.45,503.48a3.71,3.71,0,1,1-3.71-3.7,3.71,3.71,0,0,1,3.71,3.7Zm-6.54,0a2.84,2.84,0,1,0,2.83-2.83,2.84,2.84,0,0,0-2.83,2.83Z"/><path class="cls-77" d="M255.88,455.64V208.82H371.39v40.5H316.32v55.07H357.4v42H316.32V415.3H372v40.34Z"/><path class="cls-77" d="M396,455.64V208.82H461q25.46,0,41.9,4.25t26.28,14.06A53.58,53.58,0,0,1,543,251.33q3.94,14.35,3.94,36.24v89q0,22-3.94,36.4a54,54,0,0,1-13.77,24.26q-9.83,9.92-26.28,14.15t-41.75,4.24ZM456.4,414h5.65a47.15,47.15,0,0,0,12.28-1.27,11.9,11.9,0,0,0,6.85-4.54,17.47,17.47,0,0,0,3-7.22,71.05,71.05,0,0,0,.67-11.09V274a69.6,69.6,0,0,0-.67-11,16.37,16.37,0,0,0-3-7,11.9,11.9,0,0,0-6.85-4.31,50,50,0,0,0-12.28-1.19H456.4Z"/><path class="cls-77" d="M653.34,459.51q-21.44,0-36-4.84t-23.23-15a60.46,60.46,0,0,1-12.28-24.34q-3.64-14.15-3.65-34.24V208.82h60.15V391.18a70.85,70.85,0,0,0,.44,8.64,45.06,45.06,0,0,0,1.79,7.81,12.23,12.23,0,0,0,4.61,6.55,15.67,15.67,0,0,0,16.38,0,12.23,12.23,0,0,0,4.61-6.55,39.61,39.61,0,0,0,1.72-7.81c.24-2.39.37-5.26.37-8.64V208.82h60.29V381.06q0,20.1-3.73,34.24a61.62,61.62,0,0,1-12.28,24.34q-8.55,10.2-23.22,15T653.34,459.51Z"/><path class="cls-77" d="M836.15,459.51q-21.15,0-36.1-5.58t-23.67-16.6a70.22,70.22,0,0,1-12.66-25.75q-3.94-14.74-3.94-34.69V287.72q0-20.1,3.94-34.83a70.27,70.27,0,0,1,12.66-25.76q8.7-11,23.67-16.59t36.1-5.59a113,113,0,0,1,29.62,3.5q12.79,3.51,21.06,9.68a49.58,49.58,0,0,1,13.48,15.33A66.83,66.83,0,0,1,907.67,253a114.77,114.77,0,0,1,2.16,23.22v22.18H850.44V271.35q0-5.37-.3-8.56a39.66,39.66,0,0,0-1.56-7.45,11.47,11.47,0,0,0-4.4-6.4,15.75,15.75,0,0,0-15-.52,12.62,12.62,0,0,0-4.39,3.87,17.53,17.53,0,0,0-2.3,6,48.44,48.44,0,0,0-1,6.55c-.15,1.88-.22,4.12-.22,6.7V393q0,3.87.22,6.77a40.68,40.68,0,0,0,1.12,6.55,19.58,19.58,0,0,0,2.38,6,11.7,11.7,0,0,0,4.39,3.87,14.11,14.11,0,0,0,6.78,1.56,13.82,13.82,0,0,0,8-2.16,11.47,11.47,0,0,0,4.4-6.47,41.25,41.25,0,0,0,1.56-7.52q.3-3.21.3-8.56V364.68h59.39v22a116.68,116.68,0,0,1-2.16,23.44A69.56,69.56,0,0,1,900.31,430a50.32,50.32,0,0,1-13.48,15.71q-8.26,6.33-21.06,10.05A106.5,106.5,0,0,1,836.15,459.51Z"/><path class="cls-77" d="M927.55,455.64l44.8-246.82h70.27L1087,455.64h-55.23L1024,406.37H992l-7.44,49.27Zm69.22-84.11H1019l-11.17-92.14Z"/><path class="cls-77" d="M1129.11,455.64V253.48h-36V208.82h132.34v44.66h-35.87V455.64Z"/><path class="cls-77" d="M1247.45,455.64V208.82h60.29V455.64Z"/><path class="cls-77" d="M1453,454.08q-15,5.43-36.1,5.43t-36-5.43q-14.89-5.44-23.67-16.23a66.65,66.65,0,0,1-12.66-25.45q-3.87-14.67-3.87-34.62v-91.1q0-19.95,3.87-34.61a66.77,66.77,0,0,1,12.66-25.46q8.77-10.79,23.67-16.22t36-5.44q21.14,0,36.1,5.44t23.82,16.22a67.14,67.14,0,0,1,12.8,25.46q3.95,14.67,4,34.61v91.1q0,20-4,34.62a67,67,0,0,1-12.8,25.45Q1467.92,448.65,1453,454.08Zm-36.1-36.4a13.83,13.83,0,0,0,8-2.16,11.83,11.83,0,0,0,4.47-6.33,38.85,38.85,0,0,0,1.71-7.59,82.89,82.89,0,0,0,.37-8.48V271.2a83.24,83.24,0,0,0-.37-8.49,37.71,37.71,0,0,0-1.71-7.51,11.84,11.84,0,0,0-4.47-6.26,13.9,13.9,0,0,0-8-2.16,13.49,13.49,0,0,0-6.85,1.64,12.39,12.39,0,0,0-4.24,3.8,17,17,0,0,0-2.16,6,39.75,39.75,0,0,0-.82,6.26q-.07,2.44-.07,6.77V393.12q0,4.17.07,6.7a39.8,39.8,0,0,0,.82,6.32,17,17,0,0,0,2.16,6,13.06,13.06,0,0,0,11.09,5.58Z"/><path class="cls-77" d="M1526.27,455.64V208.82h42.88l45.1,105.7V208.82h49.87V455.64h-41.23l-44.81-116.11V455.64Z"/><path class="cls-79" d="M1266.53,206.61a1.8,1.8,0,0,1-1-.32,1.78,1.78,0,0,1-.45-2.48s1.13-1.62,3.22-4.34a1.78,1.78,0,1,1,2.82,2.16c-2,2.63-3.11,4.2-3.12,4.22A1.78,1.78,0,0,1,1266.53,206.61Z"/><path class="cls-79" d="M1460.11,232.08a33.81,33.81,0,0,1-6-.53,1.78,1.78,0,1,1,.65-3.5,22.36,22.36,0,0,0,9.92-.14,1.77,1.77,0,1,1,.91,3.43A21.43,21.43,0,0,1,1460.11,232.08Zm-15.69-4.31a1.82,1.82,0,0,1-.92-.25,42,42,0,0,1-8.73-7.08,1.78,1.78,0,1,1,2.56-2.47,38.86,38.86,0,0,0,8,6.5,1.79,1.79,0,0,1,.62,2.44A1.81,1.81,0,0,1,1444.42,227.77Zm30.4-1.07a1.78,1.78,0,0,1-1-3.25,64.64,64.64,0,0,0,8.1-6.74,1.77,1.77,0,0,1,2.51,0,1.79,1.79,0,0,1,0,2.52,68.25,68.25,0,0,1-8.54,7.11A1.73,1.73,0,0,1,1474.82,226.7Zm-45.59-14.11a1.77,1.77,0,0,1-1.45-.76c-1.88-2.66-3.8-5.69-5.9-9.26a1.78,1.78,0,1,1,3.06-1.8c2,3.48,3.93,6.43,5.75,9a1.78,1.78,0,0,1-.44,2.48A1.81,1.81,0,0,1,1429.23,212.59Zm61.34-.71a1.76,1.76,0,0,1-1.17-.43,1.79,1.79,0,0,1-.17-2.52c2.13-2.43,4.37-5.14,6.87-8.28a1.78,1.78,0,1,1,2.78,2.22c-2.53,3.18-4.81,5.93-7,8.41A1.8,1.8,0,0,1,1490.57,211.88Zm13.58-16.9a1.74,1.74,0,0,1-1.08-.37,1.79,1.79,0,0,1-.33-2.5l2.11-2.75c1.51-2,3-3.94,4.5-5.85a1.78,1.78,0,1,1,2.81,2.17c-1.48,1.91-3,3.87-4.48,5.84l-2.12,2.76A1.77,1.77,0,0,1,1504.15,195Zm-86.06-1a1.76,1.76,0,0,1-1.56-.93l-1.76-3.22c-1.13-2.09-2.27-4.19-3.43-6.28a1.78,1.78,0,1,1,3.11-1.73c1.16,2.1,2.31,4.21,3.45,6.31l1.75,3.22a1.77,1.77,0,0,1-.71,2.41A1.71,1.71,0,0,1,1418.09,194Zm-141.61-.1a1.81,1.81,0,0,1-1.15-.42,1.79,1.79,0,0,1-.21-2.51c2.35-2.79,4.78-5.54,7.22-8.19a1.78,1.78,0,0,1,2.62,2.41c-2.41,2.61-4.81,5.32-7.12,8.07A1.76,1.76,0,0,1,1276.48,193.9ZM1291.17,178a1.76,1.76,0,0,1-1.26-.52,1.78,1.78,0,0,1,0-2.52c2.63-2.6,5.31-5.12,8-7.48a1.78,1.78,0,0,1,2.37,2.66c-2.62,2.32-5.25,4.79-7.84,7.35A1.77,1.77,0,0,1,1291.17,178Zm226.35-.06a1.78,1.78,0,0,1-1.36-2.92c2.72-3.26,5.13-5.93,7.37-8.17a1.78,1.78,0,1,1,2.51,2.52c-2.16,2.16-4.5,4.75-7.15,7.93A1.78,1.78,0,0,1,1517.52,177.9Zm-110-2.82a1.77,1.77,0,0,1-1.52-.85c-2-3.36-4-6.29-5.87-8.94a1.78,1.78,0,1,1,2.88-2.08c2,2.73,4,5.73,6,9.17a1.77,1.77,0,0,1-1.52,2.7Zm-100.11-11.5a1.77,1.77,0,0,1-1.1-3.17c3-2.33,6-4.5,8.86-6.46a1.78,1.78,0,0,1,2,3c-2.84,1.91-5.75,4-8.65,6.31A1.78,1.78,0,0,1,1307.38,163.58Zm87.33-6a1.78,1.78,0,0,1-1.3-.56,56.27,56.27,0,0,0-7.79-7,1.78,1.78,0,1,1,2.1-2.87,60.39,60.39,0,0,1,8.29,7.44,1.78,1.78,0,0,1-1.3,3Zm-69.32-6.07a1.78,1.78,0,0,1-.86-3.34,97.4,97.4,0,0,1,10-4.76,1.78,1.78,0,0,1,1.35,3.29,93.6,93.6,0,0,0-9.59,4.59A1.74,1.74,0,0,1,1325.39,151.56Zm51.91-6.46a1.87,1.87,0,0,1-.69-.13,41,41,0,0,0-9.34-2.64l-.62-.09a1.78,1.78,0,0,1,.53-3.52l.66.1a44.91,44.91,0,0,1,10.14,2.86,1.78,1.78,0,0,1-.68,3.42Zm-31.87-1.59a1.78,1.78,0,0,1-.42-3.5,62.45,62.45,0,0,1,11-1.73,1.78,1.78,0,0,1,.22,3.55,59.31,59.31,0,0,0-10.37,1.63A2,2,0,0,1,1345.43,143.51Z"/><polygon class="cls-80" points="1589.97 129.16 1529.49 166.51 1532.26 144.69 1589.97 129.16"/><polygon class="cls-79" points="1589.97 129.16 1529.49 166.51 1537.09 150.97 1589.97 129.16"/><polygon class="cls-77" points="1554.58 173.85 1516.93 127.75 1598.45 119.15 1554.58 173.85"/><polygon class="cls-80" points="1595.9 120.56 1531.96 146.15 1536.59 151.82 1595.9 120.56"/><path class="cls-80" d="M1188.81,149.21s5.79,20.89,8.64,24.31S1209.6,182,1209.6,182l-2.47,4.37s-16.91-8.62-19.84-15.67a53,53,0,0,1-3.42-10.82c-.47-2.59-2.38-9-1.43-11.59C1183.07,146.59,1187.48,145.7,1188.81,149.21Z"/><path class="cls-81" d="M1188.81,149.21s5.79,20.89,8.64,24.31S1209.6,182,1209.6,182l-2.47,4.37s-16.91-8.62-19.84-15.67a53,53,0,0,1-3.42-10.82c-.47-2.59-2.38-9-1.43-11.59C1183.07,146.59,1187.48,145.7,1188.81,149.21Z"/><path class="cls-79" d="M1246.84,248.93l4.27-4s17.07-1.25,18.07.24-16.19,9.61-18.39,9.46S1247.13,250.57,1246.84,248.93Z"/><path class="cls-82" d="M1215.55,191.18s16.15-4.11,17.47-1.45,18.09,55.21,18.09,55.21l-4.27,4s-18-44.36-23.17-49S1213.15,193,1215.55,191.18Z"/><path class="cls-83" d="M1215.55,191.18s16.15-4.11,17.47-1.45,18.09,55.21,18.09,55.21l-4.27,4s-18-44.36-23.17-49S1213.15,193,1215.55,191.18Z"/><path class="cls-82" d="M1207.23,181.5a14.69,14.69,0,0,0,3.35-1.35,4.53,4.53,0,0,1,2.85-.81c.77.11,7,2.7,5.32,3.85-.53.37-1.87-.28-2.41-.47-.76-.28-1.53-.65-2.26-1,.67,0,4,1.39,3.67,2.17-.61,1.38-4-.46-4.8-.91.6.1,2.7.89,2.7,1.65,0,1.2-2.5.2-3-.08a3.75,3.75,0,0,0-1.14-.55,4.39,4.39,0,0,0-1.52.27,9,9,0,0,1-2.64,0c-.52,0-1.72.06-2-.38a1.93,1.93,0,0,1,.33-1.89A3.81,3.81,0,0,1,1207.23,181.5Z"/><path class="cls-84" d="M1207.23,181.5a14.69,14.69,0,0,0,3.35-1.35,4.53,4.53,0,0,1,2.85-.81c.77.11,7,2.7,5.32,3.85-.53.37-1.87-.28-2.41-.47-.76-.28-1.53-.65-2.26-1,.67,0,4,1.39,3.67,2.17-.61,1.38-4-.46-4.8-.91.6.1,2.7.89,2.7,1.65,0,1.2-2.5.2-3-.08a3.75,3.75,0,0,0-1.14-.55,4.39,4.39,0,0,0-1.52.27,9,9,0,0,1-2.64,0c-.52,0-1.72.06-2-.38a1.93,1.93,0,0,1,.33-1.89A3.81,3.81,0,0,1,1207.23,181.5Z"/><polygon class="cls-79" points="1235.19 153.6 1238.99 155.16 1225.95 186.63 1222.11 184.55 1235.19 153.6"/><rect class="cls-79" x="1198.67" y="184" width="24.83" height="3.86"/><path class="cls-79" d="M1154.75,166.06c3.32-1.9,3.88-4,2-10.94s3-14.16,7.6-16.06c3.41-1.4,6.39-2,8.46-5.65s-1.85-11.36,4.7-17.08c4.78-4.18,11.63-.84,11.63-.84,1.47-.82,2.08,7.77,2.18,14.24-8.29,12.7-5.93,29.29-2.91,43.51a7.56,7.56,0,0,0,.31.95c-.65,11-1.18,20.11-1.18,20.11s-19.94,11.3-33.51,1.63S1148.1,169.87,1154.75,166.06Z"/><path class="cls-79" d="M1213.4,246.32l5.06,2.91s6.21,16,5.07,17.35-13.93-12.66-14.43-14.81S1211.91,247.08,1213.4,246.32Z"/><path class="cls-82" d="M1206.94,190.23s32.54,2.28,35.58,5.19-24.59,53.51-24.59,53.51l-4.53-2.61s6.84-24,8.61-29.63,5.19-12.28,4.56-13.16-33.43,4.05-33.17-5.19S1206.94,190.23,1206.94,190.23Z"/><path class="cls-82" d="M1190.9,135.35s-3.42,9.3-1.33,16.24l-11.4-2.76s4.66-15.57,6.66-18.23S1190.9,135.35,1190.9,135.35Z"/><path class="cls-83" d="M1190.9,135.35s-3.42,9.3-1.33,16.24l-11.4-2.76s4.66-15.57,6.66-18.23S1190.9,135.35,1190.9,135.35Z"/><path class="cls-82" d="M1192.07,123.22s4.43,2.11,5.49,3.9.13,4.25.22,5.88.54,4.05.29,4.45-1.88,0-2.14.35-2.38,1.67-3,3.17-1.54,1.63-3.08.88-7.45-8.54-7.52-12.2S1187.69,121.72,1192.07,123.22Z"/><path class="cls-79" d="M1188.32,118.26s2.07,4.13,2.28,5.77-1.35,6.48-2.28,7.12-.14-5.41-2.49-3.56.14,5.34,0,6a4.36,4.36,0,0,1-3.63,3.21c-2.42.21-6.41-11.83-3.78-14.82S1185.55,118.26,1188.32,118.26Z"/><path class="cls-85" d="M1174.66,180.23l15.09-1.14s7.85,8.77,15.61,8.77h26.53s-1.34,11-7.73,19.8c0,0-25.29,1.86-37.57.84S1162.63,194,1174.66,180.23Z"/><path class="cls-86" d="M1173.25,182c.43-.59.89-1.18,1.41-1.77l15.09-1.14s7.65,8.52,15.3,8.75C1195.81,188.78,1178.14,190.82,1173.25,182Z"/><path class="cls-87" d="M1224.88,189.63c-3.84-.37-7.58-1.29-11.36-1.77h16.64C1228.51,188.71,1227.7,189.91,1224.88,189.63Z"/><path class="cls-80" d="M1179.62,143.58s6.93,2.72,9.28,3c0,0,4.88,10.76,6.78,13.68s-4.82,14.05-5.2,18.86c0,0-4,3.85-16.26,1.48C1174.22,180.57,1171,150.35,1179.62,143.58Z"/><path class="cls-81" d="M1177.77,150c2.12-1,5.8,0,6.83,2.15,1.28,2.63,0,7.3.12,10.15a55.47,55.47,0,0,0,1.11,9.88,20.56,20.56,0,0,0,4,7.38c-1.56.95-6.1,2.85-15.59,1,0,0-1.94-18.43,1.29-29.73C1176.4,150.54,1177.21,150.26,1177.77,150Z"/><path class="cls-82" d="M1204.85,181.5a14.59,14.59,0,0,0,3.36-1.35,4.53,4.53,0,0,1,2.85-.81c.77.11,7,2.7,5.32,3.85-.54.37-1.88-.28-2.41-.47-.76-.28-1.53-.65-2.26-1,.67,0,4,1.39,3.67,2.17-.62,1.38-4-.46-4.81-.91.61.1,2.71.89,2.71,1.65,0,1.2-2.5.2-3-.08a3.81,3.81,0,0,0-1.13-.55,4.39,4.39,0,0,0-1.52.27,9.05,9.05,0,0,1-2.65,0c-.52,0-1.72.06-2-.38a1.93,1.93,0,0,1,.34-1.89A3.77,3.77,0,0,1,1204.85,181.5Z"/><path class="cls-80" d="M1205.9,181.34l-1.33,5s-32.67-3.8-33.43-9.59,1.33-32.76,9.22-30,.09,22.36,1.33,23.88S1205.9,181.34,1205.9,181.34Z"/><path class="cls-79" d="M1188,116a6.54,6.54,0,0,1,8,.36c4.06,3.28,3.91,8.19,7.26,7.76,0,0-2.21,5.7-7,4.35S1186.32,119.4,1188,116Z"/><path class="cls-84" d="M377.92,172.09a5.79,5.79,0,0,1-2.33-1.89,3.28,3.28,0,0,0-.87-1.11,7.76,7.76,0,0,1-1.11-1.17,2.85,2.85,0,0,0-1.2-1c-.65-.2-.46.64-.25,1.18s1.86,1.65,1.65,2.28-2.12-.8-2.5-1.09c-.89-.69-.79-1.52-1.21-2.45-.24-.54-.52-.71-.86-.12a1.78,1.78,0,0,0,.13,1.44A6,6,0,0,0,371,170.6a7.17,7.17,0,0,1-1.74-2.16c-.25-.47-1-2.65-1.73-2.32-1.55.66,1.46,4.86,2.29,5.31a8.46,8.46,0,0,1-1.89-2.06c-.33-.45-1.06-1.53-1.41-.61-.53,1.38,2,3,3,3.9a10,10,0,0,1-2.16-1.55c-.93-.73-1.15.2-.33,1.12a15.08,15.08,0,0,0,1.34,1.17,9,9,0,0,0,5.48,2c.83.08,2.25,1.09,2.83.67C377.82,175.22,377.72,173.25,377.92,172.09Z"/><path class="cls-88" d="M376.78,169.77s17.64,4.92,19.43,4.8,5.92-15.64,7.57-23.3c.16-.72,2.51-.76,5.16-3,1.1-.92,4.35.84,5.43,0a7.39,7.39,0,0,1,1.4,8.18c-4,8.88-7.48,25.93-16.73,26.1-12.23.24-24.64-6.15-24.64-6.15Z"/><path class="cls-84" d="M373,171.89a16.08,16.08,0,0,0,.83-1.56c.21-.63-1.43-1.7-1.65-2.28s-.4-1.38.25-1.18a2.85,2.85,0,0,1,1.2,1,7.76,7.76,0,0,0,1.11,1.17,3.28,3.28,0,0,1,.87,1.11,3.52,3.52,0,0,0,.74.84C375.67,171.64,373,171.89,373,171.89Z"/><path class="cls-79" d="M368.47,225.92s-1.64,7.6-3.16,8.31-17.49-3.21-18.42-5,.39-3.69,3.8-3.56c3.06.12,5.08,1.25,7.56.88,2.18-.32,4.32-4.47,4.32-4.47Z"/><path class="cls-79" d="M395.6,243.19s4.09,6.61,3.49,8.18-14.83,9.82-16.74,9.17-2.29-2.92.26-5.2c2.29-2,4.53-2.62,6.06-4.61,1.34-1.75,0-6.21,0-6.21Z"/><path class="cls-80" d="M419.5,187.15s-6.44,3.35-9.45,3-28.7,1.64-31.71,4.12,9.29,52,9.29,52l10.19-1.69s-3.65-36.24-3-36.5,16-.2,42.22-.2c6.4,0,13.54-13.46,5.44-22.86Z"/><path class="cls-81" d="M382.77,198.25a29,29,0,0,0,2.86-6.95c8.9-1.09,22.32-1.46,24.42-1.19,3,.39,9.45-3,9.45-3L421,187c-1.85,2.65-4,5-6.72,5.55-3.24.71-6.64.9-9.84,1.74-5.53,1.47-11,4.37-13.49,9.89-3,6.63-6.15,13.58-8.21,21-1.68-7.51-3.39-15.4-4.38-21.65C380.29,202.59,381.7,200,382.77,198.25Z"/><path class="cls-80" d="M416.84,181.62s-30.6,1.83-33.52,4.71-22.61,36.76-22.61,36.76l8.11,5.86s16.14-23.79,23.91-33.07a11.51,11.51,0,0,1,6.92-4,116,116,0,0,1,11.77-1.48c6.08-.33,8.83-3.36,8.83-3.36Z"/><path class="cls-82" d="M409,134.36a11.33,11.33,0,0,0,2.52-2c.75,3,2.52,8.34,5.91,10.86,0,0-6,3.35-11.32,2.81,0,0-.21-7.1-1.68-10.41A10.32,10.32,0,0,0,409,134.36Z"/><path class="cls-83" d="M409,134.36a11.33,11.33,0,0,0,2.52-2c.75,3,2.52,8.34,5.91,10.86,0,0-6,3.35-11.32,2.81,0,0-.21-7.1-1.68-10.41A10.32,10.32,0,0,0,409,134.36Z"/><path class="cls-82" d="M403.83,116.09s-7.85.49-9.54,2.73-1.74,7.24-.38,9.64-.42,6.48-.14,7.43c.22.76,2.7.41,2.88.67s2.1,4.84,5.47,4.44c4.75-.56,9.2-6.25,10.18-9.63S411,115.13,403.83,116.09Z"/><path class="cls-79" d="M390.89,121.41a9.47,9.47,0,0,0,1-2A9.39,9.39,0,0,1,392,118c.34-1.44.21-2.35,3-4.58,2.45-1.94,6.39-2.31,9.28-1.39a8.73,8.73,0,0,1,2.94,1.58c.26.21,1,.78,1,1.11s-1,1.07-1.2,1.38a14.07,14.07,0,0,0-1.09,1.89c-2.19,3.82-6.13,8.52-11,6.27a15.14,15.14,0,0,1-1.91-1,10.17,10.17,0,0,0,.82,5,4.42,4.42,0,0,1-2.29-1.7A5.14,5.14,0,0,1,390.89,121.41Z"/><path class="cls-79" d="M405.63,115.49a6.23,6.23,0,0,1,3.28-1.39,4.31,4.31,0,0,1,4.51,2.32,18.74,18.74,0,0,1,1.6,3.16,13.48,13.48,0,0,1,1.09,5.3,12.71,12.71,0,0,1-1.14,5.77c-.81,1.6-2.75,3.84-4.15,3.81-.54,0-2.53-3.13-2.74-4.06s.21-1.06.73-1.69c.88-1.06,1.64-2.79.31-3.83-1.91-1.49-3.73.23-3.49,3.2,0,0-.27,1.83-.84,1.77S399.15,123.05,405.63,115.49Z"/><path class="cls-89" d="M447.49,187.84s-9.14,9.85-33.21,3.06A51.8,51.8,0,0,0,410.91,179c-2.56-5.92-6.7-17.56-7.52-23.86-.92-7.12,2.61-10.79,2.61-10.79s4.55,3.37,10.08-2.36c0,0,11.91,1.4,18.88,13.93S447.49,187.84,447.49,187.84Z"/><path class="cls-88" d="M414.41,152.18c.08-.3.15-.61.22-.91,5.77,2.81,5,8.38,3.65,16.77-1.06,6.45-4.16,16.65-4.77,18.93a49.86,49.86,0,0,0-2.6-8c-1.18-2.74-2.7-6.69-4.07-10.77a41.58,41.58,0,0,0,4.76-9.94C412.34,156.15,413.82,154.35,414.41,152.18Z"/><path class="cls-77" d="M375.05,166.18l-20.24-12.06s-7.37,7.23-9.46,17.09l23,10.76S371.9,173.54,375.05,166.18Z"/><path class="cls-90" d="M359.4,173.74a21,21,0,0,0,12.08-9.69l3.57,2.13c-3.15,7.36-6.73,15.79-6.73,15.79l-16.77-7.85A16.62,16.62,0,0,0,359.4,173.74Z"/><path class="cls-82" d="M375.11,178.63a5.75,5.75,0,0,1-3-.38,3.75,3.75,0,0,0-1.32-.48,7.14,7.14,0,0,1-1.57-.41,2.88,2.88,0,0,0-1.57-.24c-.65.17-.05.78.41,1.13s2.46.41,2.61,1.06-2.23.44-2.7.4c-1.12-.11-1.47-.88-2.32-1.44-.49-.33-.82-.33-.79.36,0,.51.5.86.87,1.15a6.2,6.2,0,0,0,2.68,1.26,7.19,7.19,0,0,1-2.62-.91c-.46-.27-2.22-1.74-2.7-1-1,1.37,3.82,3.34,4.77,3.29a8.56,8.56,0,0,1-2.7-.75c-.52-.21-1.71-.74-1.52.24.28,1.44,3.3,1.44,4.64,1.68a9.62,9.62,0,0,1-2.65-.16c-1.18-.13-.86.77.31,1.12a16.19,16.19,0,0,0,1.76.29,9.08,9.08,0,0,0,5.69-1.25c.74-.37,2.48-.27,2.75-.93C376.69,181.33,375.56,179.71,375.11,178.63Z"/><path class="cls-89" d="M374.64,177.84l-.59,6.79s29.19,2.34,32.53.21,4.94-5.6,6-8.71c2.12-6.22,10.45-23.37,2.94-26-2.36-.82-5.47-.8-7,2.27-3.52,6.88-7.29,22.22-8.29,22.87C398.8,176.21,374.64,177.84,374.64,177.84Z"/><path class="cls-79" d="M544.83,313.89s4.17,12.26,6.61,17.64c13.66,30.14-11.62,26.29-21.23,24.87s-20.57-5-20-12.82c.41-5.3,3.62-5.88,4.92-7.65s-1.24-4.66-.13-9,8.37-5.23,9.81-6.42,4.34-4.52,2.91-10.81-2-9.66,2-13.75,10.46-2.32,10.46-2.32Z"/><path class="cls-82" d="M592,360.71c-.87-.68-4.24,1.23-6.67,2a27,27,0,0,1-6.35.6,23.1,23.1,0,0,1-.48,3.52,37.52,37.52,0,0,0,3.84.27c1.22-.09,3.43-.39,4.29-.55a3.9,3.9,0,0,1,2.72.31c2.71,2.26,4.23,2.41,4.59,1.6.06-.12-2.12-2.06-2.84-2.84,1.19,1.07,4.11,3.2,4.72,2.54.46-.51-2.26-3-3.41-4,1.21,1.05,4.34,3.66,5.1,3.45C599.52,367.05,592.82,361.38,592,360.71Z"/><rect class="cls-79" x="569.74" y="367.27" width="34.01" height="4.36"/><path class="cls-89" d="M581.61,362.74l-1.2,4.95s-15.67-1.69-21-4.17-10.68-15.15-10.68-15.15l4.08-16s7.87,20.81,10.63,23.43S581.61,362.74,581.61,362.74Z"/><rect class="cls-91" x="575.49" y="307.71" width="72.71" height="46.39" rx="3.2"/><path class="cls-79" d="M579.27,350.9v-40a3.19,3.19,0,0,1,3.2-3.19h-3.78a3.19,3.19,0,0,0-3.2,3.19v40a3.19,3.19,0,0,0,3.2,3.19h3.78A3.19,3.19,0,0,1,579.27,350.9Z"/><path class="cls-79" d="M612,365.55s1.47-14.09-5-18.86c0,0-1.46-1.19.94-2.57s9.09-3,11.36,1.17,3.78,11.35,2.82,20.26Z"/><rect class="cls-91" x="519.79" y="399.15" width="3.01" height="79.25"/><rect class="cls-91" x="575.49" y="399.15" width="3.01" height="79.25"/><rect class="cls-79" x="511.72" y="394.48" width="74.85" height="7.75"/><path class="cls-79" d="M552.35,442.94s-7.63,6.65-7.59,7.62,13.06,23.1,15.33,23.17,2.8-3.77,2.43-5.23S558,445.93,558,445.93Z"/><path class="cls-79" d="M541.26,447.05s-7.43,6.88-7.36,7.85,13.76,22.7,16,22.7,2.68-3.85,2.27-5.3S547,449.87,547,449.87Z"/><path class="cls-85" d="M546.07,371.06s9.65,4.59,20.76,8.92c7,2.75,16.89,6.35,16.57,13.91-.24,5.52-22.43,58.65-22.43,58.65l-10.09-5.05s18.46-44.72,18.14-47.76-2.46-.35-20.72-2-23.79-5.13-23.67-13.8,4.9-20.77,12.29-23.85S546.07,371.06,546.07,371.06Z"/><path class="cls-86" d="M546.07,371.06s3.68,4.69,14.78,9c7,2.75,15.8,7.78,15.79,12.62C576.64,398.21,556,450,556,450l-5.09-2.55s18.46-44.72,18.14-47.76-2.46-.35-20.72-2-23.79-5.13-23.67-13.8,4.9-20.77,12.29-23.85S546.07,371.06,546.07,371.06Z"/><path class="cls-85" d="M541.07,364.44s2.93,12.24,9.9,15.18,23,6.21,23,13.94c0,5.52-23.9,60.17-23.9,60.17L537.81,448s16.18-44.22,15.76-47.25,1.2-1.54-17.1-2.64-20.77-4.6-20.9-13.26,11.09-20.41,11.09-20.41C534,361.14,541.07,364.44,541.07,364.44Z"/><path class="cls-83" d="M545.84,311.79s-2.89,11.83,2.47,17.88c0,0,7.16,9.63-4.13,11.29s-9.81-13.17-9.81-13.17,1.93-16.32-1-23.39C533.36,304.4,540.7,308.44,545.84,311.79Z"/><path class="cls-82" d="M538.25,295.05s15.47.78,15.57,4.61-1.3,6.34-.79,9.68c1.12,7.2-3.07,15.11-4.9,15.44-2.84.5-12.43-3.73-13.93-9.55S532.3,292.73,538.25,295.05Z"/><path class="cls-82" d="M553,363.45s3.23.41,3.92.41,9.63-5,10.59-4.33,10,7,9.77,8.25-2.81.5-7.63-3.57c0,0,6.42,4.54,5.18,5.64s-6.83-4-6.83-4,5.77,4.31,4.4,5.27-6.47-4.17-6.47-4.17,4,3.85,3.44,4.49-3.07-.45-5.82-3c0,0-.51-.28-2,.5s-10.46-.73-10.46-.73Z"/><path class="cls-79" d="M555.14,306.93s-10.77,2.45-14.29-5.81c-2.78-6.53-1.83-7.32-1.83-7.32s5.94-4.63,12.94,1.65C556.65,299.66,555.14,306.93,555.14,306.93Z"/><path class="cls-79" d="M539.92,293.63s5.73,5,2.55,9.81c-2.86,4.31-1,6.62-1.57,9.51a3.2,3.2,0,0,1-1.67-2c-.29-1.34-.74-4.75-2.54-4.26s-3.47,2.72,0,5.56c0,0,1.89,3.88-.55,6.94,0,0-9.23-7.93-6.56-16.86S539.92,293.63,539.92,293.63Z"/><path class="cls-89" d="M547.15,328.06s.7,5.6-1.31,6.61-9.18-9.54-9.18-9.54-9.73,4.1-11.94,5.89,1,19,1,19-6.78,20.58-5.93,25,30.52-.86,30.52-.86,2.86-21,4-24.12,2.53-5,1.1-9.53c-2-6.42-2.55-8.06-2.55-8.06S549.29,329.05,547.15,328.06Z"/><path class="cls-88" d="M529.46,346.71c-2.22-3-.89-8-3.23-11-.71-.93-1.44-1.83-2.19-2.73-.57,4.95,1.68,17,1.68,17s-6.78,20.58-5.93,25,30.52-.86,30.52-.86,2.52-18.49,3.74-23.35c-.76,1.13-6.76,8.44-13.35,7.42C537,357.6,534,352.74,529.46,346.71Z"/><path class="cls-79" d="M534.68,308.86s-.18,2.28,1.77,2.81c.8.22.72,2.72,1.36,5.25,1.23,4.79.45,8.05-3.12,9.44-2.56,1-6.19,1.79-10.31,4.68s-1.47-9.16,3.73-12.21S534.68,308.86,534.68,308.86Z"/><path class="cls-79" d="M628.12,371.64H606.46a1.75,1.75,0,0,1-1.57-2.54l1.27-2.55a1.77,1.77,0,0,1,1.57-1h19.11a1.75,1.75,0,0,1,1.57,1l1.28,2.55A1.76,1.76,0,0,1,628.12,371.64Z"/><rect class="cls-92" x="471.43" y="371.64" width="189.77" height="5.08"/><rect class="cls-92" x="478.45" y="373.81" width="2.2" height="104.59"/><rect class="cls-92" x="651.98" y="373.81" width="2.2" height="104.59"/><path class="cls-89" d="M555.74,363.2l-.55,6.39s-37.7.4-43.38-.34-8.26-8.25-4.59-14.86,14.58-23.75,19.35-24.12,7.52,6.15,3.58,13.21-11.1,13.85-9.54,15S555.74,363.2,555.74,363.2Z"/><polygon class="cls-91" points="1005.43 338.8 1009.77 401.35 1057.52 404.33 1056.2 340.5 1005.43 338.8"/><path class="cls-91" d="M1053.11,337.19c-3.86-1.16-12.67,33.67-11.3,39.26.94,3.84,33.44,2.45,33.44,2.45l.34-6.69s-20.62-2.33-20.51-4,6.09-12.83,6.09-12.83S1057,338.37,1053.11,337.19Z"/><path class="cls-83" d="M1037.83,316.65l-8.75,1.37s2.46,7.78-1.32,14.42c0,0,6.3,6.82,10.69,5,4.69-1.92,2.94-6.66,2.94-6.66S1036.61,327,1037.83,316.65Z"/><path class="cls-82" d="M1027.65,303.22s13.65-1.56,14.59.73,1.15,8.76,2,10.12,2.48,3,1.88,3.88-1.25.66-1.63,1.65-.23,6.57-2,7.4-11,.35-14.32-4.89S1021.06,303.71,1027.65,303.22Z"/><path class="cls-79" d="M1024.23,304.5l9,4.19a20.38,20.38,0,0,0,2.32,9.89s-.82,1.24-1.67.54a3.33,3.33,0,0,1-1.6-2.4c-.2-1.31-1-4.84-3.36-3.1s.13,3.8,1.34,4.32c0,0,1.92,6.86-1.73,6.38,0,0-3.36-2.14-6.26-10.39S1022,303,1024.23,304.5Z"/><path class="cls-79" d="M1046.19,301.5s3.24,4.65-4.28,7.77-18.33-5.09-18.33-5.09.27-4.08,6.27-5.83c4.48-1.3,8.68-1.12,11,1.48C1044.71,304.24,1046.19,301.5,1046.19,301.5Z"/><rect class="cls-91" x="1013.89" y="407.68" width="2.61" height="68.73"/><rect class="cls-91" x="1062.19" y="407.68" width="2.61" height="68.73"/><rect class="cls-79" x="1006.89" y="401.35" width="64.91" height="8.99"/><path class="cls-91" d="M1028.71,330.15s-12.22,3.39-12.72,3.7c0,0,1.35,17.66,1.15,22.42s-2.12,25.12-2.12,25.12h38s-.46-20.72-.25-25.27c0,0-1.22-15.38.39-18.93,0,0-8-5-11.72-6.4,0,0,0,5-2.61,6.37S1028.71,330.15,1028.71,330.15Z"/><path class="cls-93" d="M1052.72,356.12s-.1-2.12-.14-5a47.1,47.1,0,0,1-2.73,7.41c-2.48,5.11-8.6,12.19-15.12,11.43s-11.75-6.56-13.39-12.9c-1.23-4.77-.62-10-2.23-14.64a19.33,19.33,0,0,0-2.88-5.26c.38,5.36,1.06,15.63.91,19.08-.2,4.76-2.12,25.12-2.12,25.12h38S1052.51,360.67,1052.72,356.12Z"/><path class="cls-79" d="M1052.25,377.76l-8.62-14.61s-2.06-1.21-2.07,1.29l10,13.89S1053.8,381.17,1052.25,377.76Z"/><path class="cls-82" d="M1048.86,374c-.67-.94-1.46-2.49-2.87-3.22s-7.74,1.86-8.18,2c-.23.06-4.24,1.26-5.06,1a38.19,38.19,0,0,1-.84,4.34c1.47.56,6.23-.37,6.82-.45a4.56,4.56,0,0,1,3.28.92c1,.7,1.94,1.29,2.65,1.15s-.05-1-.45-1.47l0,0c1.76,2.14,2.67,1.82,3,1.37s-1.91-2.56-2.14-2.83-2.21-1.81-2.21-1.81a8.77,8.77,0,0,1,2.54,1.77c.22.23,2.59,3.83,3.4,2.73s-1.17-2.94-2-4.09a9.05,9.05,0,0,0-2.63-2.13c1-.13,2.62,1.69,3.17,2.33s2,3.65,3.13,2.89S1049.52,375,1048.86,374Zm-4.82,4a19.53,19.53,0,0,0-1.9-1.41A10,10,0,0,1,1044,378.07Z"/><path class="cls-82" d="M1048.54,371.47s2.34.9,2.75,1.95-.23,1.67-.79,1.42Z"/><path class="cls-91" d="M1016,333.85a21.82,21.82,0,0,0-5.9,6.37c-1.89,3.56-12.21,30.64-10.84,36.23,1,3.84,33.44,2.45,33.44,2.45l.34-6.69s-20.61-2.33-20.51-4,6.09-12.83,6.09-12.83S1021.88,341.66,1016,333.85Z"/><path class="cls-79" d="M1068.48,465.4s10.88,2.93,15.38,4.38c3.74,1.2,3.26,4.55-.75,6.11s-7.47,1-8.51-.19-3.3-.55-4.14-.06-8.63-.57-9.15-2.13.24-7.77.24-7.77Z"/><path class="cls-79" d="M1050.89,466.14s10.6,3.82,15,5.63c3.63,1.5,2.87,4.81-1.25,6s-7.53.42-8.47-.89-3.24-.82-4.12-.4-8.55-1.29-8.94-2.88,1.63-9.1,1.63-9.1Z"/><path class="cls-80" d="M1074.62,402.68c-1.2-4.46-23.36-17.92-25.17-22h-17.9a29.1,29.1,0,0,0-4.74,13.69c-1.14,11.38,9.37,7.48,19.79,7.86s14.62,6.78,14.89,9.63-1.58,54.44-1.58,54.44l14.14-.08S1075.33,405.33,1074.62,402.68Z"/><path class="cls-81" d="M1064.54,466.3s4.7-61.64,3.65-63.23c-3.23-4.91-18.93-16.44-24.33-21.8l-12.31-.56a29.1,29.1,0,0,0-4.74,13.69c-1.14,11.38,9.37,7.48,19.79,7.86s14.62,6.78,14.89,9.63-1.58,54.44-1.58,54.44Z"/><path class="cls-80" d="M1065.58,404.12c-.83-3.91-23.95-17.59-28.8-22.83l-19-1.3c-2.31,2.59-4.63,6.65-4.59,11,.09,10.92,8.32,13.55,18.75,13.86,12,.36,18.18,1.91,18.16,4.76s-7.4,56.51-7.4,56.51l14,.72S1066.16,406.8,1065.58,404.12Z"/><path class="cls-82" d="M1165.87,318.45a83.52,83.52,0,0,0,4.38-8.31c1.16-2.91,5.83-13,7.32-11.95s-2.69,9.53-2.69,9.53,3.69-10.61,5.68-10-3.41,10.47-3.41,10.47,4.44-9.31,5.61-8.42.24,3-3.58,9.86c0,0,3.26-5.91,4.49-4.52s-2.74,6.81-4.18,8.09-8.26,6.7-9.89,9C1169.6,322.16,1165.94,320.89,1165.87,318.45Z"/><path class="cls-94" d="M1172.43,311.49s4.89-2.77,6.26-1.7,0,2.2-5.09,3.84c0,0-1.79,2.27-2.93,2.45A3.41,3.41,0,0,1,1172.43,311.49Z"/><path class="cls-82" d="M1071,313.79s-1.9-3.76-1.9-4.86.56-2.28.6-3.78,2-5,1.61-6-1.65-.75-2.84,1.61-.79,3.83-1.74,3.16a26.34,26.34,0,0,1-4-4.81c-.75-1.23-3.12-3.64-3.75-3.24s-.81,1,3.38,6.94c0,0-4.75-7.12-6.15-5.84-1,.9,3.67,6.12,4.34,6.95,0,0-4.3-5.4-5.58-4.12s4.71,5.68,4.71,5.68-4.41-3.49-5-2.47,2,3.3,4.5,4.72,3.18,1.8,3.82,2.75a46.92,46.92,0,0,1,2.22,4.73S1069.19,316.24,1071,313.79Z"/><path class="cls-83" d="M1124.13,289.41l-9,1.37s-.52,16.78-7.62,18.12c0,0-2.53,27.48,6.87,25.19S1128.85,308,1128.85,308,1120.56,305.66,1124.13,289.41Z"/><path class="cls-82" d="M1124.84,276.9s-9.7-4-13.55-1.57-3.53,10.79-4.11,14.62c-.89,6,1.69,11.83,3.26,12.4s13.68-2.71,15.61-11.48S1127.12,278.4,1124.84,276.9Z"/><path class="cls-79" d="M1110.11,459.85s1.31,8.06.34,9.93-21.45,1-22.67-.3.82-3.65,1.89-4.18,12.16-5.4,12.16-5.4Z"/><path class="cls-79" d="M1136.53,459.85h-7.13s-.47,6,0,7.33,7.21,9.65,10.68,9.65c1.89,0,4.23,0,4.6-1.67.3-1.41-1.08-4.37-2.23-6C1139.92,465.7,1136.53,459.85,1136.53,459.85Z"/><path class="cls-79" d="M1123.09,292.14s-3.48,1.92-5.72,2.08-3.63-2.5-6.79-1.81-3.57.79-3.57.79-1.67,11.34,2.61,11,11.54-4.81,14.11-7.86a5.61,5.61,0,0,0,4.38-2.62c1.72-2.62,4-10.74,2.52-15.66s-8.13-6.85-10.91-4.55a9.27,9.27,0,0,0-6.15-1.55c-4,.22-4.86,2.36-6.57,3.64s-3.39,1.28-4,.18c0,0-1.21,2,1,5.52s4.69,3,8.08,2.18,7.59-4.14,7.59-4.14-.18,7,1.57,9.55c0,0,.64.29.89,0s.07-3.92,2-3.1S1124.84,290.77,1123.09,292.14Z"/><path class="cls-77" d="M1109.83,295.51a10.79,10.79,0,0,0,5.35.25s-1.58,2.07-3.32,1.78A2.27,2.27,0,0,1,1109.83,295.51Z"/><path class="cls-77" d="M1126.15,305.42l-8.31,4.5-6.47-3.88a59,59,0,0,0-2.34,21.1c1,11.21,2.76,19.26,10.34,8.84S1129.77,309.06,1126.15,305.42Z"/><path class="cls-77" d="M1126.15,305.42l-8.31,4.5-6.47-3.88a59,59,0,0,0-2.34,21.1c1,11.21,2.76,19.26,10.34,8.84S1129.77,309.06,1126.15,305.42Z"/><path class="cls-79" d="M1116.27,315.06s-4.46,24.17-4.08,24.63c.24-.31,3,6.56,4.53,0,1.22-5.1,1.37-24.08,1.57-24.31,0,0,2.33-2.51,3.69-3.74.89-.81,1.76-1.64,2.59-2.5.22-.4.43-.8.61-1.22l-.36.86a20.24,20.24,0,0,1,1.76-2.82,3.92,3.92,0,0,0-.43-.54l-8.31,4.5-6.47-3.88s-.19.58-.46,1.6c.68.95,1.29,1.9,1.82,2.82C1113.41,311.64,1116.27,315.06,1116.27,315.06Z"/><path class="cls-79" d="M1099.22,350.41l25.51-.48s3.88,6.36,4.75,24.72c.6,12.57,1.11,16,2.36,32.66.85,11.27,4.85,54.49,4.85,54.49h-13.56s-5.74-49.32-6-52c-.1-.95-3.46-27-3.46-27s.55,23.62.55,26.37.59,51.27.59,51.27H1100.5s-1.6-41.26-1.74-50.7C1098.54,394.42,1097.23,355.35,1099.22,350.41Z"/><path class="cls-85" d="M1111.37,306s-9,1.74-12.45,2.89c0,0,1.11,20.74-2.37,25.95L1095,380s19.66-.23,20.3-24.71.59-25.59.59-25.59Z"/><path class="cls-79" d="M1114.15,332.57a.76.76,0,1,1-.74-.77A.75.75,0,0,1,1114.15,332.57Z"/><path class="cls-79" d="M1113.67,340a.75.75,0,0,1-.77.74.74.74,0,0,1-.74-.76.77.77,0,0,1,.77-.75A.76.76,0,0,1,1113.67,340Z"/><path class="cls-79" d="M1113.19,347.4a.76.76,0,1,1-.74-.77A.75.75,0,0,1,1113.19,347.4Z"/><path class="cls-79" d="M1112.71,354.81a.76.76,0,0,1-.77.74.74.74,0,0,1-.74-.76.76.76,0,0,1,.77-.75A.77.77,0,0,1,1112.71,354.81Z"/><path class="cls-85" d="M1138.4,311.16l-12.25-5.74-10.29,24.32-2.19,28.41s.25,25,21.57,21.89l-1.73-45.82S1133.35,317.44,1138.4,311.16Z"/><path class="cls-85" d="M1172.67,321.3l-7.42-5.37s-13.74,21.68-14.53,21-7.34-23.48-12.32-25.8c0,0-2.51,1.79-4,7.06-1,3.72-1.16,9.72-.94,15.64,0,0,13,19.18,17.53,18.55S1172.67,321.3,1172.67,321.3Z"/><path class="cls-85" d="M1071.35,311.16l-8.41,3.34s11.5,41.57,18.14,37.92,15.44-16.6,15.44-16.6a30.76,30.76,0,0,0,3.41-10.34c.85-5.55.32-13.16-1-16.55,0,0-5.84,3.56-10.74,13.33s-6.39,12.57-6.83,12S1071.35,311.16,1071.35,311.16Z"/><path class="cls-95" d="M1111,307.41c-.06.22,2.18,8,2.18,8l4.69-3.51,4,3.73,4.22-8.92-.69-.87-5,2.72-2.48,2.23-5.49-4.18-.33-.2Z"/><polygon class="cls-77" points="1117.84 309.29 1112.06 304.88 1110.66 306.18 1112.9 314.1 1117.84 310.4 1122.28 314.56 1126.58 305.62 1124.42 303.37 1117.84 309.29"/><rect class="cls-96" x="1056.25" y="376.8" width="43.26" height="2.63"/><rect class="cls-79" x="1053.11" y="342.37" width="49.54" height="35.76" rx="2.58"/><path class="cls-97" d="M1054.51,375.54V345a2.57,2.57,0,0,1,2.58-2.58h-2.29a2.57,2.57,0,0,0-2.58,2.58v30.59a2.57,2.57,0,0,0,2.58,2.58h2.29A2.57,2.57,0,0,1,1054.51,375.54Z"/><path class="cls-77" d="M1080.36,360.24a2.49,2.49,0,1,1-2.48-2.48A2.48,2.48,0,0,1,1080.36,360.24Z"/><rect class="cls-79" x="1126.84" y="374.78" width="32.59" height="4.66"/><polygon class="cls-79" points="1118.03 344.53 1128.59 377.28 1130.24 376.67 1119.68 343.93 1118.03 344.53"/><path class="cls-79" d="M1176.44,459.14s-8.68,4.27-13.33,6.2c-3.87,1.6-3.06,5.12,1.33,6.42s8,.45,9-.95,3.46-.87,4.39-.42,8.26-1.24,8.68-2.94-1.41-9.18-1.41-9.18Z"/><path class="cls-85" d="M1221.67,378.57l-14.75.19s-36.07,13.46-40.79,17,7.75,65.14,7.75,65.14l12.24-1.29s-2.89-55.11-.53-57.47,40.54-5.84,43-6.56S1227.54,386.4,1221.67,378.57Z"/><path class="cls-86" d="M1221.67,378.57l-14.75.19s-36.07,13.46-40.79,17,7.75,65.14,7.75,65.14l12.24-1.29s-2.89-55.11-.53-57.47,40.54-5.84,43-6.56S1227.54,386.4,1221.67,378.57Z"/><polygon class="cls-91" points="1251.59 345.7 1236.62 405.57 1230.42 404.02 1243.3 343.62 1251.59 345.7"/><rect class="cls-91" x="1183.25" y="407.31" width="2.48" height="65.35"/><rect class="cls-91" x="1229.18" y="407.31" width="2.48" height="65.35"/><rect class="cls-79" x="1176.59" y="401.3" width="61.72" height="8.55"/><path class="cls-83" d="M1217.74,315.77l-8.46,1.81s2.43,10.41,0,16.14c0,0,4.61,1.81,12.39-4.08C1221.67,329.64,1216.88,325.59,1217.74,315.77Z"/><path class="cls-82" d="M1219.13,303.69s-9.42-3.55-11.94-2.25-5.6,3.2-5.12,5.11.84,7.56.22,9.33-1.67,3-1.41,3.62,1.74.13,2.15.88,2.61,5.72,3.89,6.44,8.58-1.86,11.95-9.79S1221.23,305,1219.13,303.69Z"/><path class="cls-79" d="M1165.87,460.09s-11.33,4-16,5.83c-3.88,1.56-3.12,5.09,1.26,6.44s8,.52,9-.86,3.46-.84,4.39-.39,8.27-1.16,8.7-2.85-.61-6.66-.61-6.66Z"/><path class="cls-79" d="M1213.55,300.86s3.22-3.58,6.86-1.49,2.21,5.44,3,6.91a9,9,0,0,1-.29,9.4c-2,3.48-.79,5.73-4,6.09s-4.26-.6-4.26-.6a12.55,12.55,0,0,0,1.28-5.12s2.8-1.55,2.42-4-3.34-2.73-4.13-.24.62,4.2-1.23,5.39c0,0-1.09.31-1.09-2.45a26.5,26.5,0,0,1,.51-5.09s-6.61,3.5-11.7,0-1.57-9,2.13-10.29A12.16,12.16,0,0,1,1213.55,300.86Z"/><path class="cls-85" d="M1225.75,376.39l-16.47,3.28s-37.42,13.51-42.13,17-5.56,64.18-5.56,64.18l12.29,1.18s5.25-57.64,8.13-59.32c2.48-1.45,42.73-1.45,45.25-1.45C1230.88,401.3,1234,384.72,1225.75,376.39Z"/><path class="cls-82" d="M1157.39,372.12s-2.48.31-3,.3-7.34-4.13-8.08-3.59-7.77,5.56-7.57,6.56,2.16.42,5.89-2.81c0,0-5,3.6-4,4.5s5.27-3.15,5.27-3.15-4.47,3.41-3.42,4.2,5-3.3,5-3.3-3.09,3.07-2.67,3.59,2.36-.34,4.49-2.39c0,0,.39-.21,1.51.43s8-.5,8-.5Z"/><path class="cls-80" d="M1155.63,370.09l2.1,7.9s34.08-7.7,37.52-10.25,24.08-24.9,21.06-31.12-7-4.7-9.42-1.16-14.25,18.61-15.93,20.38S1155.63,370.09,1155.63,370.09Z"/><path class="cls-82" d="M1161.24,375.8s-2.61.31-3.16.3-7.71-4.13-8.5-3.59-8.15,5.56-7.94,6.56,2.26.42,6.18-2.81c0,0-5.21,3.6-4.22,4.49s5.54-3.14,5.54-3.14-4.7,3.41-3.6,4.2,5.25-3.3,5.25-3.3-3.25,3.07-2.81,3.59,2.48-.34,4.72-2.39c0,0,.4-.21,1.58.43s8.43-.5,8.43-.5Z"/><path class="cls-80" d="M1221,329.05s-7.63,3.86-12,3.62c0,0-7,14.68-7.45,18.6s.8,29.55.8,29.55,16.9,3.67,26.86-1.36c0,0-2.68-16.72-1.59-25S1227.94,335.22,1221,329.05Z"/><path class="cls-81" d="M1217.77,356.33c1.69-3.89,8.3-10.16,5-14.53-2.67-3.52-4.59-3.76-7.53-.41-2.75,3.14-5.27,6.52-8.39,9.29a53.2,53.2,0,0,1-5.28,3.86c0,8.07.9,26.28.9,26.28a67.81,67.81,0,0,0,12,1.28C1211,374.44,1214.23,364.5,1217.77,356.33Z"/><path class="cls-80" d="M1159.39,373.77l2.2,7.9s35.8-7.7,39.42-10.25,25.29-24.9,22.11-31.12-7.3-4.7-9.9-1.16-15,18.61-16.72,20.38S1159.39,373.77,1159.39,373.77Z"/><path class="cls-82" d="M989.31,332.83a71.39,71.39,0,0,0,3.15-7.32c.78-2.54,4-11.39,5.38-10.6s-1.63,8.24-1.63,8.24,2.4-9.21,4.13-8.85-2.18,9.07-2.18,9.07,3.13-8.16,4.17-7.48.41,2.49-2.36,8.57c0,0,2.36-5.21,3.5-4.13s-1.86,5.95-3,7.13-6.53,6.21-7.76,8.26C992.71,335.72,989.54,334.88,989.31,332.83Z"/><path class="cls-94" d="M994.39,326.51s4-2.68,5.17-1.87.14,1.87-4,3.59c0,0-1.37,2-2.32,2.27A2.89,2.89,0,0,1,994.39,326.51Z"/><path class="cls-80" d="M988.91,330.39s-14,23.56-14.73,23.39-21-6.31-28-11.51c-2-1.48-2,14.64,0,15.62s31.58,6.25,32.89,5.43,16.35-29.09,16.35-29.09Z"/><path class="cls-81" d="M981.09,359.14c-10.1,6.49-33.76-12.24-36.49-12.87-.41,4.41.25,11,1.55,11.62,2,1,31.58,6.25,32.89,5.43a32.35,32.35,0,0,0,3.19-5A11.6,11.6,0,0,1,981.09,359.14Z"/><path class="cls-83" d="M946.38,332c-.89-.19-5.17-9.22-7-11-.88,6.16-4.61,20.79-4.61,20.79,4.52,4.85,13.54,1.88,13.54,1.88A30.6,30.6,0,0,1,946.38,332Z"/><path class="cls-82" d="M943.94,309.62s8.78,2,10.46,4.53,1.68,9.22,2.61,11c.56,1.07,1.06,1.93,1.34,2.55s-.37.87-1.14,1.14a1.36,1.36,0,0,0-.82.85c-.52,1.61-2,5.72-3.42,6.3-1.81.71-10.75.44-13.44-7.35S938.32,308,943.94,309.62Z"/><path class="cls-82" d="M979.71,459.92l-5.9-1s-.3,5.6-.79,6.88c0,0,6.61,3.17,13.39.66,0,0-4.32-1.86-5.45-3.18A6.53,6.53,0,0,1,979.71,459.92Z"/><path class="cls-79" d="M973.54,463.2A18.91,18.91,0,0,0,985,465.81s8.46,4.53,9,5.66c.77,1.59-2.94,1.69-8.73,1.5-4.93-.16-4.57-.53-5.56-1.5s-2.22-2-2.22-2a10.16,10.16,0,0,0-1,3.43l-2.21-.32s.26-2.71-.81-4.16C972.75,467.37,971.89,465,973.54,463.2Z"/><path class="cls-82" d="M955.94,458.47l-4.46-1.21s-2.61,4.36-3.37,5.5c0,0,5.75,4.55,12.91,3.61,0,0-3.8-2.77-4.61-4.31A6.45,6.45,0,0,1,955.94,458.47Z"/><path class="cls-79" d="M948.6,461.73a19,19,0,0,0,11.15,3.66s8,5.29,8.44,6.47c.62,1.65-3.08,1.4-8.82.68-4.9-.61-4.51-1-5.4-2s-2-2.25-2-2.25a10,10,0,0,0-1.27,3.33l-2.17-.52s.5-2.67-.42-4.21C947.43,465.81,946.79,463.38,948.6,461.73Z"/><path class="cls-89" d="M935.4,377.12,947,385.35s37.71,7.26,42.5,10.85-30.45,67.21-30.45,67.21l-11-3.64S974.43,403.44,972,401s-41.17-5.93-43.61-6.66S929.44,385.07,935.4,377.12Z"/><path class="cls-88" d="M935.4,377.12,947,385.35s37.71,7.26,42.5,10.85-30.45,67.21-30.45,67.21l-11-3.64S974.43,403.44,972,401s-41.17-5.93-43.61-6.66S929.44,385.07,935.4,377.12Z"/><path class="cls-89" d="M931.83,380.85,947,382.13s39,9.82,43.74,13.41-7,67.23-7,67.23l-11.9-3s6.71-56.38,3.79-58.09c-2.52-1.47-43.39-1.47-45.95-1.47C926,400.2,923.44,389.32,931.83,380.85Z"/><path class="cls-80" d="M936.12,338.8a109.68,109.68,0,0,0,12,4.57s7.09,14,7.56,17.9,3.57,25.23,3.57,25.23-21.87,6.29-32,1.29c0,0,3.07-15.12,2-23.4S929.11,344.93,936.12,338.8Z"/><path class="cls-81" d="M938.83,362.6c0,7,4.53,10.43,9.16,15a30.24,30.24,0,0,1,6.94,10c2.48-.73,4.37-1.08,4.37-1.08s-1.66-11.43-2.73-19.09c-4.65-2.07-7.11-6.52-8.77-11.25-1-2.73-1.49-4.5-3.22-6.54-5.15.14-5.46,6.16-5.75,11.78Z"/><polygon class="cls-91" points="904.45 343.74 919.65 404.54 925.95 402.96 912.87 341.64 904.45 343.74"/><rect class="cls-91" x="971.32" y="406.31" width="2.52" height="66.35"/><rect class="cls-91" x="924.69" y="406.31" width="2.52" height="66.35"/><rect class="cls-79" x="917.93" y="400.2" width="62.67" height="8.68"/><path class="cls-79" d="M955.46,317c2.84-1.11,1.56-5.51-.38-6.86A21.41,21.41,0,0,0,943,306.08c-5.14.11-9.84,4.08-12.82,7.94-2.17,2.79-2,5.75-3.58,8.76-1.42,2.73-4.5,4.1-6.34,6.57-1.73,2.31-1.74,5.33-1.06,8.06.53,2.13,1.12,4.06.77,6.25-.44,2.72-2.62,4.72-3.36,7.34-.66,2.37-.37,5.05-.12,7.46a10.13,10.13,0,0,0,4.47,7.6c5.4,3.58,12.7-.76,13.53-6.78.37-2.73-.42-5.11-.69-7.73-.33-3.32.81-5.22,3.61-7,2.36-1.53,3.47-2.52,3.29-5.47a24.41,24.41,0,0,1,0-6c.43-2.28,1.39-2.72-.4-4.39-1.25-1.17-2.3-2.43-1.31-4.2.81-1.43,2.11-1.85,3.23-.51.3.36,1.77,3.33,2.15,1.66.11-.47-.52-1.38-.57-1.9a2.09,2.09,0,0,1,.59-1.89c.89-.93,2.19-1.44,3.11-2.38,1.14-1.18,1.29-2.74,2.94-3.4a4.33,4.33,0,0,1,2.64-.11C953.52,316,955.19,317.12,955.46,317Z"/><rect class="cls-79" x="998.57" y="374.78" width="32.59" height="4.66"/><polygon class="cls-79" points="1039.97 344.53 1029.41 377.28 1027.76 376.67 1038.32 343.93 1039.97 344.53"/><rect class="cls-92" x="983.67" y="379.44" width="2.17" height="95.81"/><rect class="cls-92" x="1199.03" y="379.44" width="2.17" height="95.81"/><rect class="cls-92" x="983.67" y="379.44" width="217.54" height="2.54"/><path class="cls-82" d="M994.66,373.15s2.83-.19,3.41-.3,7.37-5.89,8.31-5.47,9.73,4.3,9.7,5.4-2.32.89-7.1-1.77c0,0,6.23,2.8,5.35,3.94s-6.48-2.25-6.48-2.25,5.64,2.7,4.63,3.75-6.21-2.47-6.21-2.47,4,2.61,3.68,3.25-2.69.12-5.47-1.6c0,0-.47-.15-1.59.76s-9,1.12-9,1.12Z"/><path class="cls-80" d="M996.51,371.57l-.07,7.52s-26.37,1.61-33.77-.86-23-22.37-24.34-25.7c-1.6-4,4.5-13.76,10.55-4.88a184.57,184.57,0,0,0,17.61,21.21C967.11,369.23,996.51,371.57,996.51,371.57Z"/><path class="cls-79" d="M1386.65,336s-16.31-1.23-21.35-9.62-.07-14.11,4.12-16.78,10.3-6.79,10.53-10.61,0-13.18,9.77-16.29a14.36,14.36,0,0,1,10.22.56,11.35,11.35,0,0,1,4,3.22,8.44,8.44,0,0,1,1.82,4.2,16.34,16.34,0,0,1,.23,4.14c-.06,2.22-.56,4.49-.76,6.71-.18,1.92-.31,3.81-.3,5.76a11.65,11.65,0,0,0,.66,3.78c.43,1.24,1.11,2.37,1.58,3.6s1.46,3.61,1.78,4.86c.54,2.11.14,3.23-.07,5.4-.51,5.41-4.47,8.78-9.51,10.16A37.84,37.84,0,0,1,1386.65,336Z"/><path class="cls-83" d="M1398.35,305.12a9.29,9.29,0,0,1-6.64-3.68,16.24,16.24,0,0,1-3,11.9s0,10.85,7,9.79,6.17-9.16,6.17-9.16A9.5,9.5,0,0,1,1398.35,305.12Z"/><path class="cls-82" d="M1391,287.89s6.66-2.79,9.15-1.42,3.61,5.29,4.43,9.1-1.16,11.24-4.83,12.46c-4.34,1.44-8.14-2.13-9.57-6.66,0,0-3.81-.92-3.5-6S1388.24,287.38,1391,287.89Z"/><path class="cls-80" d="M1400.49,312.57s-2.87,5.13-4.35,6.1-7.55-7-7.55-7-7,4.25-12.74,5.76c0,0-2,21.17-3.31,26,0,0-2.27,26.77-2.27,30.36h35.92c-1-18.17,6.16-33.93,6.16-33.93s-2.09-16.35-1-20.41C1411.39,319.51,1403.3,314.91,1400.49,312.57Z"/><path class="cls-81" d="M1412.35,339.92s-.52-4-.89-8.54c-2.5,4.89-3.92,10-5.88,15.18-2.32,6.08-9.11,17.65-17.46,15-6.58-2.06-8.65-9.68-9.7-15.77-.57-3.32-1.09-6.7-1.44-10.06-.29-2.76-.39-7.31-1.92-9.66-.89.78-1.24,3.52-1.35,4.69-.16,1.77-.2,3.54-.27,5.31,0,.9-.08,1.8-.16,2.7s-.22,1.52-.34,2.29c-.08.53-.1,1.11-.22,1.64l0,.2c0,.2-.09.39-.14.56,0,0-2.27,26.77-2.27,30.36h35.92C1405.21,355.68,1412.35,339.92,1412.35,339.92Z"/><polygon class="cls-77" points="1388.96 311.26 1385.05 313.59 1391.02 323.35 1396.14 319.12 1401.03 323.07 1403.43 314.44 1399.95 311.92 1396.26 318.09 1388.96 311.26"/><path class="cls-79" d="M1400.94,288.6s-1.29,4.53-5.17,5.63a3.57,3.57,0,0,0-2.54,3.81c.09.79-1.8.91-1.83.38s.42-3.24-1.91-3.78-2.5,2.94-.42,5c0,0,3.9,4.12,2.07,8.68a15.07,15.07,0,0,1-12.94,9.82c-7.33.84-10.41,11.09-10.41,11.09s-7.37-8.65.79-14.9,14-9.86,13.89-14,2.64-15.27,9.65-16S1400.94,288.6,1400.94,288.6Z"/><path class="cls-79" d="M1405.59,295s-3,.44-6.31-4.11-3.26-8.19-3.26-8.19S1407.78,284.57,1405.59,295Z"/><rect class="cls-91" x="1370.05" y="394.83" width="2.93" height="77.12"/><rect class="cls-91" x="1424.24" y="394.83" width="2.93" height="77.12"/><rect class="cls-91" x="1459.89" y="394.83" width="2.93" height="77.12"/><rect class="cls-91" x="1514.09" y="394.83" width="2.93" height="77.12"/><rect class="cls-79" x="1362.19" y="390.28" width="72.83" height="7.54"/><path class="cls-79" d="M1409.66,441.22s-6.61,7.31-6.46,8.23,15.28,20.83,17.48,20.64,2.27-4,1.75-5.33-7-21.29-7-21.29Z"/><path class="cls-79" d="M1390.94,441.44s-7.23,6.7-7.17,7.63,13.39,22.09,15.6,22.09,2.61-3.74,2.21-5.15-5.09-21.82-5.09-21.82Z"/><path class="cls-83" d="M1420.29,395.69c-2.56,12.19-11.23,46.2-11.23,46.2l7.69,4.6s13.12-33.32,17.3-50.8Z"/><path class="cls-82" d="M1404.88,395.69c-3.79,12.46-14.64,46.51-14.64,46.51l6.86,4.62s18.16-33.74,24.85-51.13Z"/><path class="cls-85" d="M1431.91,383.25c-5.54-3.13-11.51-6.13-17.66-7.72h0c-2.49-.64-7-6.46-7.57-11.39-3.59,1.4-8,1.35-12.42,1.5-6.09.2-13.17,1.12-19.13-.29a16.05,16.05,0,0,1-3.72-1.43,24.21,24.21,0,0,0-6.63,17c0,5.53,1.6,8,7.64,9.95,3.24,1.05,20.36-.53,25.12,1.44,4.23,1.75,3.5,6.25,2.75,9.35,20.14,2.88,30.58.94,34.3.07C1435.71,397.76,1438.35,386.9,1431.91,383.25Z"/><path class="cls-79" d="M1487.33,364s-17.14-.1-23.16-4.11-7.07-20,1.68-26.49,10.55-8.52,10.93-12.82.29-14.05,11.61-14.1c11.11,0,10.15,9.06,11,14.85.58,4,6.13,10,11,13.69C1516.6,339.81,1523.58,368,1487.33,364Z"/><path class="cls-83" d="M1492.41,323.51a9.91,9.91,0,0,1-3,.46,9.08,9.08,0,0,1-5.08-1.43c-.47,3.22,1,7-2.16,7.88,0,0,.19,13.85,5.76,13.85s6.31-13.94,6.31-13.94S1491.67,329.83,1492.41,323.51Z"/><path class="cls-82" d="M1496,320.06c-.57-1.24-2-.63-2-.63.29-3.37.27-8.66.27-8.66l-5.82-.61-5.82.61s0,5.29.27,8.66c0,0-1.46-.61-2,.63-1,2.1,1.38,3.49,1.38,3.49s1.62,7.1,6.2,7.51c4.58-.41,6.29-7.56,6.2-7.51S1496.92,322.16,1496,320.06Z"/><path class="cls-79" d="M1495,310.68s-3.06,7.88-11.46,7.31a5.22,5.22,0,0,1-.23,2.62s-1.16-3.3-2.46-2.56a4.44,4.44,0,0,0-1.8,2s-1.22-9.35,4.83-11.43S1495,310.68,1495,310.68Z"/><path class="cls-79" d="M1492.33,310a8.42,8.42,0,0,0-.13,1.31c0,.93.06,1.86,0,2.79a6.76,6.76,0,0,1,1.51,4.27,5,5,0,0,0,.28,2.28s1.16-3.3,2.46-2.56a4.44,4.44,0,0,1,1.8,2S1497.85,309.78,1492.33,310Z"/><path class="cls-91" d="M1504.65,352.47c-1.69-4.89-.81-18-.81-18-2.08-.65-10.22-4.47-10.22-4.47l-5.27,12.75-5.57-12.66s-6.56,3.16-8.64,3.81c0,0-.41,13.71-2.1,18.6,0,0,5.15,8.42,0,27.27h32.61C1499.5,360.89,1504.65,352.47,1504.65,352.47Z"/><path class="cls-93" d="M1504.65,352.47c-.42-1.2-.55-5.51-.71-7.58-.77,2.08-1.69,6.62-2.48,8.68-2.68,6.94-5.57,9.81-13.34,9.94-6.21.1-12-9.95-12.67-11.8-.76-2.15-1.69-4.2-2.47-6.28a28.42,28.42,0,0,1-.94,7s5.15,8.42,0,27.27h32.61C1499.5,360.89,1504.65,352.47,1504.65,352.47Z"/><path class="cls-82" d="M1503.45,366.36s-2.76,1.41-3.67,1.15c-1.12-.32-1.36-.86-3.27-.26a12.71,12.71,0,0,0-3.58,1.56c-1,.57-2.83,1.49-2.23,2.61s2.58-.37,2.78-.46l.83-.39s-2.27,1.08-1.86,1.72,1.54.64,2.27.23a15.38,15.38,0,0,0,1.36-.87s-1.52,1.05-1.24,1.41a2,2,0,0,0,2.18.07,3.83,3.83,0,0,0,1.21-.91s-1.36.95-.14,1.37,2.34-.85,3-1.33,1.62-1.56,2-1.76,3.27-1.24,3.27-1.24Z"/><path class="cls-79" d="M1490.78,371.75l-8-13.15s-2.4-1.26-2.27,1.59l9.49,12.25S1492.73,375.52,1490.78,371.75Z"/><path class="cls-82" d="M1472.85,366.39s2.83,1.57,3.26,1.44,6.36-3.59,7.65-3,2,2,2.66,2.86,2.62,3.3,1.67,4.09-2.34-1.93-2.85-2.5-2.07-2.19-2.94-2a7.8,7.8,0,0,1,2.45,1.86c.75,1,2.56,2.62,1.9,3.72s-2.93-2.13-3.14-2.33a7.81,7.81,0,0,0-2.38-1.52s1.87,1.34,2.08,1.58,2.4,2,2,2.54-1.1.85-2.78-1.06a8,8,0,0,0-2-1.42,14.6,14.6,0,0,1,1.88,1.3c.35.38,1.18,1.27.54,1.47s-1.54-.29-2.49-.89a4,4,0,0,0-3.14-.64c-1.1.27-6.31-1.56-6.31-1.56Z"/><path class="cls-82" d="M1486.75,365.13s2.22.73,2.64,1.69-.3,1.5-.83,1.29Z"/><path class="cls-91" d="M1474.14,333.87c-1.86.51-6.41,2.21-10.66,13.7-3.84,10.41-5.41,18.89-5,21.59.59,4.35,17.49,4.2,17.49,4.2l1.14-6.72s-7.59-2.46-7.41-3.39c.24-1.26,2.38-5.89,3.27-8.71C1473.09,354.05,1475.45,333.51,1474.14,333.87Z"/><path class="cls-91" d="M1503.45,334.38c1.34.21,6.28,2.47,10.65,13.19,4.2,10.27,5.42,18.89,5.05,21.59-.6,4.35-17.49,4.2-17.49,4.2l-1.14-6.72s7.58-2.46,7.4-3.39c-.24-1.26-2.38-5.89-3.26-8.71C1504.5,354.05,1502.11,334.16,1503.45,334.38Z"/><path class="cls-82" d="M1450.61,363.25l-2.17,3.83a32.86,32.86,0,0,1,3.75,2.53c.66.7,1.77,3.35,5.07,4s3.9,1.32,4.76.45-1.38-2.06-2.74-2.37-2.44-.55-2.26-.86,1.42-.3,3.8.06,5.54,1.47,6.27,1-1.84-2.57-4.71-2.87a31.21,31.21,0,0,1-3.12-.47s2.71.14,3.39.31,4.69,1.32,5.63.56-2.65-2.11-5.15-2.37a11.52,11.52,0,0,0-3.3-.07,32.53,32.53,0,0,1,3.7-.11c.9.1,3.52.87,3.79.19s-1.89-1.61-3.83-1.66a20.73,20.73,0,0,0-3.61.22,20.59,20.59,0,0,1,3.51-.47c1,.07,2.42.26,2.51-.18s-.55-1.28-3.82-1.24a25.57,25.57,0,0,0-4.44.62C1455.83,364.66,1451.09,363.25,1450.61,363.25Z"/><rect class="cls-92" x="1340.12" y="372.9" width="2.26" height="99.63"/><rect class="cls-92" x="1536.03" y="372.9" width="2.26" height="99.63"/><rect class="cls-92" x="1336.29" y="372.89" width="205.83" height="2.64"/><path class="cls-98" d="M1509.48,396.09c0-.32,0-.62,0-.89a27.33,27.33,0,0,0-5-15.81h-32.65a29.31,29.31,0,0,0-4.47,15.81c0,.27,0,.57,0,.89Z"/><path class="cls-79" d="M1479,442.89s-8.25,9.83-9.22,11.92,1.4,4.72,4.61,3.64,12.71-11.9,12.28-13.24-2.58-2.81-2.58-2.81Z"/><rect class="cls-79" x="1452.17" y="390.28" width="71.93" height="7.54"/><path class="cls-82" d="M1487.41,394.25c-.32-3.81.37-10.77-5.92-10.77-9.52,0-7.57,13.7-7.42,15.22,1.49,15.18,4.89,44.19,4.89,44.19l5.09-.62S1487.55,396,1487.41,394.25Z"/><path class="cls-79" d="M1497.94,442.89s8.26,9.83,9.22,11.92-1.39,4.72-4.61,3.64-12.7-11.9-12.27-13.24,2.58-2.81,2.58-2.81Z"/><path class="cls-82" d="M1489.5,394.25c.31-3.81-.38-10.77,5.91-10.77,9.53,0,7.58,13.7,7.43,15.22-1.5,15.18-4.9,44.19-4.9,44.19l-5.08-.62S1489.35,396,1489.5,394.25Z"/><path class="cls-80" d="M1452.53,361.79l-2.11,7.88s-27.84-5-30.44-8.83-9.19-20.43-9.19-20.43-3.78-12.61.6-20.9c0,0,4.15,1.57,6.51,8,1.51,4.13,8.91,21.86,10.37,23.73S1452.53,361.79,1452.53,361.79Z"/><path class="cls-82" d="M1377.26,367.76s2.44.38,3,.39,7.42-3.6,8.13-3,7.47,5.53,7.23,6.47-2.14.31-5.71-2.88c0,0,4.77,3.58,3.81,4.39s-5.1-3.17-5.1-3.17,4.29,3.39,3.23,4.09-4.82-3.3-4.82-3.3,2.94,3,2.51,3.48-2.32-.41-4.35-2.42c0,0-.38-.22-1.51.34s-7.91-.78-7.91-.78Z"/><path class="cls-80" d="M1379.53,367.92l-2.2,5s-21-9.09-21.74-17.55,12.19-37.06,21.15-36.87c0,0-1.64,19.18-4,24.29,0,0-5.07,8-5,10S1379.53,367.92,1379.53,367.92Z"/><path class="cls-80" d="M755.16,112.31h95.1a4.75,4.75,0,0,1,4.75,4.75v61.26a4.75,4.75,0,0,1-4.75,4.75h-95.1a4.76,4.76,0,0,1-4.76-4.76V117.07A4.75,4.75,0,0,1,755.16,112.31Z"/><rect class="cls-91" x="755.16" y="117.95" width="95.1" height="59.49"/><polygon class="cls-89" points="788.52 135.35 788.52 164.49 816.89 149.92 788.52 135.35"/><path class="cls-83" d="M768.56,310.36H759.1s-1.37,12.89-3.83,14.42c0,0-3,15.23,8.56,15.23,14,0,8.56-15.23,8.56-15.23C769.92,323.25,768.56,310.36,768.56,310.36Z"/><path class="cls-82" d="M776.13,312.88c-1.31-1.5-2.89.79-2.89.79s2.16-8.52,0-12.26-9.18-1.77-9.18-1.77-7-2-9.17,1.77,0,12.26,0,12.26-1.58-2.29-2.89-.79,2.17,5.31,3,5.77c0,0,5,9.44,9.11,9.44s9.12-9.44,9.12-9.44C774,318.19,777.44,314.39,776.13,312.88Z"/><path class="cls-79" d="M762.3,303s-5.31.93-5.9,3.78a11.35,11.35,0,0,0,.28,4.26,27.48,27.48,0,0,1,.46,4.69.77.77,0,0,1-.69-.12,9.32,9.32,0,0,1-1.79-2.16c-1-1.48-2.46-1.23-2.88-.3,0,0-1.18-14,4.67-14.48S762.3,303,762.3,303Z"/><path class="cls-79" d="M765.76,303s5.31.93,5.9,3.78a11.35,11.35,0,0,1-.29,4.26,28.38,28.38,0,0,0-.45,4.69.77.77,0,0,0,.69-.12,9.32,9.32,0,0,0,1.79-2.16c1-1.48,2.46-1.23,2.88-.3,0,0,1.18-14-4.67-14.48S765.76,303,765.76,303Z"/><path class="cls-79" d="M773.56,299.52a4.27,4.27,0,0,0-2.49-3.73,14.27,14.27,0,0,0-12,0c-4.12,2.07-5.38,2.53-6.58,1.85s-.45-1.38-.45-1.38-2.7,0-2.57,4.17,5.29,9.41,12,9.41C771.82,309.84,775.15,302.64,773.56,299.52Z"/><path class="cls-91" d="M772.39,324.78c-.5,12.94-8.57,11.61-8.57,11.61s-8.06,1.33-8.55-11.61c0,0-12.88,3.56-19.16,7.77A124.49,124.49,0,0,1,739,356.4l7.36,28.52,17.51.86,17.51-.86,7.37-28.52a124.49,124.49,0,0,1,2.84-23.85C785.26,328.34,772.39,324.78,772.39,324.78Z"/><path class="cls-93" d="M787.43,340c-8,4.27-11.9,14.08-19.67,18.89-8,5-13.74-5.08-17.65-10.31a30.33,30.33,0,0,0-12.87-10.24,121.5,121.5,0,0,1,1.71,18l7.36,28.52,17.51.86,17.51-.86,7.37-28.52a119.85,119.85,0,0,1,1.67-17.76C789.35,339.08,788.36,339.53,787.43,340Z"/><path class="cls-80" d="M796.29,396.46c0-10-12.41-16.58-12.41-16.58h-41.7s-12.41,6.58-12.41,16.58a50.52,50.52,0,0,0,1,7.73h13.85c-.56,1-1.07,2-1.47,2.76-.13.25-.27.46-.39.7h10.07c.76,0,2.2.31,2-.81-.31-1.59-1.29-2.49-.33-4.16a5.8,5.8,0,0,1,4.3-2.42h1q3.27.08,6.54,0a12.33,12.33,0,0,1,2.43.4c.7.12,1.63.13,2,.84a11.06,11.06,0,0,1,.73,3.14,18.82,18.82,0,0,1-.23,3h14.13a38.72,38.72,0,0,1-2.43-3.46h12.33A49.27,49.27,0,0,0,796.29,396.46Z"/><path class="cls-81" d="M796.29,396.46c0-10-12.41-16.58-12.41-16.58h-41.7s-12.41,6.58-12.41,16.58a50.52,50.52,0,0,0,1,7.73h13.85c-.56,1-1.07,2-1.47,2.76-.13.25-.27.46-.39.7h12c.31,0-.49-1.74-.57-1.9a3.16,3.16,0,0,1-.2-2.08,4.12,4.12,0,0,1,1.38-1.85c2-1.67,4.71-1.73,7.16-1.66s5-.26,7.12,1.14a4.39,4.39,0,0,1,1.08.92c1.44,1.79.69,3.43.48,5.43h14.13a38.72,38.72,0,0,1-2.43-3.46h12.33A49.27,49.27,0,0,0,796.29,396.46Z"/><path class="cls-91" d="M736.11,332.55s-15.93,34.42-14.77,39c.29,1.14,19.66,12.84,28.78,11.16l3.71-.68S740.3,332.3,736.11,332.55Z"/><path class="cls-91" d="M791.51,332.55s15.92,34.42,14.77,39c-.29,1.14-19.66,12.84-28.78,11.16l-3.71-.68S787.32,332.3,791.51,332.55Z"/><path class="cls-93" d="M742.32,344.59a24.79,24.79,0,0,1-.61,5c-1.41,6.22-3.63,12.71-1.3,19,1.76,4.78,4.58,9.63,7.19,14.22a12,12,0,0,0,2.52-.15l3.71-.68S747.62,359.23,742.32,344.59Z"/><path class="cls-93" d="M782.8,382.54a22.39,22.39,0,0,0,1.76-9.18c-.21-6.35-.24-12.7-.14-19.06,0-2.75.11-5.41.27-8-5.16,14.64-10.9,35.75-10.9,35.75l3.71.68A15.28,15.28,0,0,0,782.8,382.54Z"/><path class="cls-79" d="M747.93,456s-10.1,12-11.28,14.58,1.7,5.78,5.64,4.46,6.23-4,6.3-5.7,2.16-2.62,3.08-2.75,6.17-6.11,5.64-7.75-3.16-3.43-3.16-3.43Z"/><path class="cls-79" d="M778.13,456s10.1,12,11.28,14.58-1.7,5.78-5.64,4.46-6.23-4-6.29-5.7-2.17-2.62-3.09-2.75-6.16-6.11-5.64-7.75,3.16-3.43,3.16-3.43Z"/><rect class="cls-91" x="723.7" y="405.88" width="3.29" height="69.49"/><rect class="cls-91" x="799.79" y="405.88" width="3.29" height="69.49"/><rect class="cls-79" x="717.24" y="400.28" width="90.13" height="8.9"/><path class="cls-80" d="M751.47,395.94c-1.21-2.86-1.45-8.92-9.55-8.92-15.61,0-11.95,12.51-11.71,14.38,2.36,18.62,13.68,55.76,13.68,55.76h15.63s-5.68-45.51-6.56-52.53C752.84,403.66,752.29,397.9,751.47,395.94Z"/><path class="cls-80" d="M774.63,395.94c1.2-2.86,1.45-8.92,9.55-8.92,15.61,0,12,12.51,11.71,14.38-2.36,18.62-13.69,55.76-13.69,55.76H766.58s5.68-45.51,6.56-52.53C773.26,403.66,773.8,397.9,774.63,395.94Z"/><rect class="cls-79" x="740.88" y="382.42" width="45.89" height="2.72"/><path class="cls-79" d="M793.52,350.6H734.13s-3.2,0-2.66,3.58,8,28.59,9.55,28.59h45.61c1.33,0,9-25,9.55-28.59S793.52,350.6,793.52,350.6Z"/><path class="cls-77" d="M766.28,367.92a2.46,2.46,0,1,1-2.45-2.46A2.46,2.46,0,0,1,766.28,367.92Z"/><polygon class="cls-88" points="319.66 399.58 319.66 402.98 358.16 402.98 358.16 411.84 319.66 411.84 319.66 415.24 401.75 415.24 401.75 399.58 319.66 399.58"/><path class="cls-80" d="M411.69,417.59h2.49v-2.34H327.87v10.82h86.31v-2.35h-2.49c-.82-.08-1.48-1.42-1.48-3.06S410.87,417.67,411.69,417.59Z"/><rect class="cls-89" x="364.55" y="399.58" width="37.21" height="15.65"/><rect class="cls-81" x="327.87" y="415.24" width="47.64" height="10.82"/><path class="cls-99" d="M319.66,403h0c1.19.11,2.14,2,2.14,4.42s-.95,4.31-2.14,4.42H361V403Z"/><polygon class="cls-89" points="411.03 366.89 411.03 363.5 372.54 363.5 372.54 354.63 411.03 354.63 411.03 351.24 328.94 351.24 328.94 366.89 411.03 366.89"/><rect class="cls-88" x="328.94" y="351.24" width="37.21" height="15.65"/><path class="cls-99" d="M411,363.5v0c-1.18-.11-2.13-2-2.13-4.42s1-4.3,2.13-4.42H369.67v8.87Z"/><polygon class="cls-89" points="420.73 469.7 420.73 467.33 364.44 467.33 364.44 461.12 420.73 461.12 420.73 458.75 300.69 458.75 300.69 469.7 420.73 469.7"/><rect class="cls-88" x="300.69" y="458.75" width="54.41" height="10.96"/><path class="cls-99" d="M420.73,467.33h0a3.1,3.1,0,1,1,0-6.19H360.24v6.21Z"/><polygon class="cls-100" points="307.12 426.06 307.12 429.45 348.38 429.45 348.38 438.31 307.12 438.31 307.12 441.71 395.1 441.71 395.1 426.06 307.12 426.06"/><rect class="cls-101" x="355.22" y="426.06" width="50.64" height="15.65"/><path class="cls-99" d="M307.12,429.45h0c1.27.12,2.28,2.05,2.28,4.42s-1,4.31-2.28,4.42h93v-8.86Z"/><path class="cls-99" d="M355.35,429.45H307.12c1.27.12,2.28,2.05,2.28,4.42s-1,4.31-2.28,4.42h48.23Z"/><polygon class="cls-100" points="311.66 383.93 311.66 387.32 345.85 387.32 345.85 396.19 311.66 396.19 311.66 399.58 384.56 399.58 384.56 383.93 311.66 383.93"/><rect class="cls-101" x="351.52" y="383.93" width="41.96" height="15.65"/><path class="cls-99" d="M311.66,387.32h0c1.06.12,1.9,2.05,1.9,4.42s-.84,4.31-1.9,4.42v0h77.06v-8.87Z"/><path class="cls-99" d="M351.63,387.32h-40c1.06.12,1.9,2.05,1.9,4.42s-.84,4.31-1.9,4.42v0h40Z"/><polygon class="cls-91" points="415.66 458.75 415.66 455.05 369.09 455.05 369.09 445.41 415.66 445.41 415.66 441.71 322.17 441.71 322.17 458.75 415.66 458.75"/><rect class="cls-93" x="311.36" y="441.71" width="50.86" height="17.04"/><path class="cls-99" d="M415.66,455.05h0c-1.28-.12-2.29-2.23-2.29-4.81s1-4.69,2.29-4.81H317.13v9.64Z"/><path class="cls-99" d="M362.09,455.05h53.57c-1.28-.12-2.29-2.23-2.29-4.81s1-4.69,2.29-4.81H362.09Z"/><polygon class="cls-91" points="399.95 383.93 399.95 380.23 363.73 380.23 363.73 370.59 399.95 370.59 399.95 366.89 327.23 366.89 327.23 383.93 399.95 383.93"/><rect class="cls-93" x="318.82" y="366.89" width="39.56" height="17.04"/><path class="cls-99" d="M400,380.23h0c-1-.12-1.78-2.23-1.78-4.81s.79-4.69,1.78-4.81H323.31v9.64Z"/><path class="cls-99" d="M358.28,380.23H400c-1-.12-1.78-2.23-1.78-4.81s.79-4.69,1.78-4.81H358.28Z"/><rect class="cls-99" x="385.05" y="423.71" width="26.63" height="0.01"/><path class="cls-99" d="M410.21,420.65c0-1.64.66-3,1.48-3.06H378.51v6.13h33.18C410.87,423.63,410.21,422.29,410.21,420.65Z"/><path class="cls-80" d="M402.44,338.34h1.83v-3.58H340.73v16.49h63.54v-3.58h-1.83c-.61-.12-1.09-2.16-1.09-4.66S401.83,338.46,402.44,338.34Z"/><rect class="cls-81" x="340.73" y="334.75" width="35.07" height="16.49"/><path class="cls-99" d="M401.35,343c0-2.51.48-4.54,1.09-4.66H378v9.33h24.43C401.83,347.54,401.35,345.5,401.35,343Z"/><path class="cls-77" d="M1068,170.89h-45.75l-24.53,20,11-20H997.53a3.52,3.52,0,0,1-3.52-3.52V122a3.52,3.52,0,0,1,3.52-3.52H1068a3.53,3.53,0,0,1,3.53,3.52v45.41A3.53,3.53,0,0,1,1068,170.89Z"/><path class="cls-79" d="M1043.35,137.88c0,6.06-7.62,7.84-7.62,10.2V149h-7.62v-2.23c0-3.25,5.79-5.12,5.79-8.73a2.92,2.92,0,0,0-2.94-3.12c-2.4,0-2.89,1.87-2.89,3.74,0,.4,0,.8,0,1.21h-8.19c0-.58-.14-1.12-.14-1.7,0-5.79,5.17-9.39,12.16-9.39C1038.76,128.8,1043.35,132.36,1043.35,137.88ZM1036.4,160h-8.82v-8.24h8.82Z"/><path class="cls-77" d="M233,182.54h-8.36L231.9,198l-15.71-15.48H188.71a2.22,2.22,0,0,1-2.22-2.22V151.77a2.22,2.22,0,0,1,2.22-2.21H233a2.21,2.21,0,0,1,2.21,2.21v28.55A2.21,2.21,0,0,1,233,182.54Z"/><path class="cls-79" d="M217.52,161.78c0,3.81-4.79,4.93-4.79,6.42v.59h-4.79v-1.41c0-2,3.64-3.22,3.64-5.48a1.83,1.83,0,0,0-1.85-2c-1.51,0-1.82,1.17-1.82,2.35a6.27,6.27,0,0,0,0,.75h-5.15c0-.36-.09-.7-.09-1.06,0-3.64,3.25-5.91,7.65-5.91S217.52,158.31,217.52,161.78Zm-4.37,13.89H207.6v-5.18h5.55Z"/><path class="cls-77" d="M667.16,175.28H632.24l-18.73,15.29,8.42-15.29h-8.58a2.69,2.69,0,0,1-2.69-2.69V137.92a2.69,2.69,0,0,1,2.69-2.69h53.81a2.69,2.69,0,0,1,2.69,2.69v34.67A2.69,2.69,0,0,1,667.16,175.28Z"/><path d="M633,164.52h-6.54v-6.13H633Z"/><path d="M643.22,164.52h-6.54v-6.13h6.54Z"/><path d="M653.49,164.52H647v-6.13h6.54Z"/><path class="cls-77" d="M1724.54,180.68h-28.43l-15.24,12.44,6.85-12.44h-7a2.2,2.2,0,0,1-2.19-2.19V150.27a2.19,2.19,0,0,1,2.19-2.19h43.8a2.19,2.19,0,0,1,2.19,2.19v28.22A2.2,2.2,0,0,1,1724.54,180.68Z"/><path d="M1700.25,174.63v-4.31h4.39v4.31Zm1.43-5.67-1.32-15.52H1705L1703.31,169Z"/><path class="cls-77" d="M587.45,24.71V51h14.31v7.51H578.64V24.71Z"/><path class="cls-77" d="M632.39,24.71v7H614.57v6.31h16.09v7l-16.09,0v6.36h18.3v7H605.76V24.71Z"/><path class="cls-77" d="M660.76,52.5H646.17l-2.36,6h-9.06l14.5-33.76h9l14.16,33.76h-9.39Zm-2.6-6.74-4.63-12-4.71,12Z"/><path class="cls-77" d="M695.77,58.47l-4.91-9.34h-6.55v9.34H675.5V24.71h15.17c9,0,14.06,4.33,14.06,11.85,0,5.1-2.12,8.86-6,10.88l7,11ZM684.31,42.1h6.41c3.56,0,5.63-1.83,5.63-5.25s-2.07-5.11-5.63-5.11h-6.41Z"/><path class="cls-77" d="M718.12,24.71,733.44,45V24.71h8.19V58.47h-7.71L718.6,38.24V58.47h-8.23V24.71Z"/><path class="cls-77" d="M757,24.71V58.47h-8.81V24.71Z"/><path class="cls-77" d="M771.34,24.71,786.66,45V24.71h8.19V58.47h-7.71L771.83,38.24V58.47h-8.24V24.71Z"/><path class="cls-77" d="M823.8,41.23h7.6V54.52a27,27,0,0,1-14.06,4.34c-10.31,0-18.06-7.42-18.06-17.24s8-17.15,18.64-17.15a21.73,21.73,0,0,1,13.87,5l-5,6.16a13.68,13.68,0,0,0-8.91-3.71,9.42,9.42,0,0,0-9.54,9.69A9.48,9.48,0,0,0,818,51.34a13.86,13.86,0,0,0,5.83-1.58Z"/><path class="cls-77" d="M1355,45.29h7.61V58.58a27,27,0,0,1-14.07,4.34c-10.31,0-18.06-7.42-18.06-17.24s8-17.15,18.64-17.15a21.73,21.73,0,0,1,13.87,5l-5,6.16a13.68,13.68,0,0,0-8.91-3.71,9.41,9.41,0,0,0-9.53,9.69,9.47,9.47,0,0,0,9.63,9.72,13.86,13.86,0,0,0,5.83-1.58Z"/><path class="cls-77" d="M1402.79,45.63c0,9.87-7.8,17.29-18.25,17.29s-18.25-7.42-18.25-17.29,7.8-17.1,18.25-17.1S1402.79,35.85,1402.79,45.63Zm-27.45,0a9.52,9.52,0,0,0,9.3,9.72c5,0,9.1-4.23,9.1-9.72s-4-9.64-9.1-9.64A9.41,9.41,0,0,0,1375.34,45.68Z"/><path class="cls-77" d="M1428.76,56.56h-14.6l-2.36,6h-9l14.49-33.76h9.06l14.16,33.76h-9.39Zm-2.61-6.74-4.62-12-4.72,12Z"/><path class="cls-77" d="M1452.31,28.77V55h14.3v7.51h-23.12V28.77Z"/><path class="cls-77" d="M741.87,522.77v9.42H728.76v34.32H717.35V532.19h-13v-9.42Z"/><path class="cls-77" d="M781,522.77v9.11H757.91v8.17h20.84v9.05l-20.84.06v8.24h23.71v9.11H746.49V522.77Z"/><path class="cls-77" d="M817.76,558.77H798.85l-3.05,7.74H784.06l18.79-43.74h11.73l18.34,43.74H820.75ZM814.39,550l-6-15.6L802.28,550Z"/><path class="cls-77" d="M856.45,532.13c-6.74,0-11.85,5.3-11.85,12.29s5.11,12.42,11.85,12.42c3.62,0,7.8-2,10.86-5.12L874,558.9A26.14,26.14,0,0,1,855.83,567c-13.17,0-23-9.61-23-22.46,0-12.61,10-22.09,23.4-22.09A25.05,25.05,0,0,1,873.92,530l-6.61,7.92C864.44,534.38,860.26,532.13,856.45,532.13Z"/><path class="cls-77" d="M890.28,522.77v17.85h17.66V522.77h11.42v43.74H907.94V549.73H890.28v16.78H878.86V522.77Z"/><path class="cls-77" d="M939.27,522.77v43.74H927.85V522.77Z"/><path class="cls-77" d="M957.81,522.77l19.84,26.33V522.77h10.6v43.74h-10L958.43,540.3v26.21H947.76V522.77Z"/><path class="cls-77" d="M1025.76,544.17h9.86v17.22A35,35,0,0,1,1017.4,567c-13.35,0-23.39-9.61-23.39-22.34s10.29-22.21,24.14-22.21a28.09,28.09,0,0,1,18,6.49l-6.49,8a17.7,17.7,0,0,0-11.54-4.8,12.58,12.58,0,0,0,.12,25.15,17.87,17.87,0,0,0,7.55-2.06Z"/><path class="cls-77" d="M337.35,517.38c-1.65,0-2.73.6-2.73,1.79,0,4.33,13.78,1.87,13.78,11.28,0,5.34-4.71,8.06-10.53,8.06a19.64,19.64,0,0,1-12.06-4.18l2.65-5.34c2.69,2.32,6.76,4,9.49,4,2,0,3.28-.75,3.28-2.13,0-4.44-13.78-1.75-13.78-11,0-4.89,4.15-8,10.46-8a20,20,0,0,1,10.45,2.95l-2.58,5.41C343,518.61,339.51,517.38,337.35,517.38Z"/><path class="cls-77" d="M364.3,517.72a7.4,7.4,0,0,0,0,14.78,9.69,9.69,0,0,0,6.49-3.06l4,4.29a15.65,15.65,0,0,1-10.87,4.86c-7.87,0-13.73-5.75-13.73-13.44,0-7.54,6-13.22,14-13.22a15,15,0,0,1,10.57,4.48l-4,4.74A8.91,8.91,0,0,0,364.3,517.72Z"/><path class="cls-77" d="M384.53,512.12V522.8h10.56V512.12h6.83v26.17h-6.83v-10H384.53v10h-6.84V512.12Z"/><path class="cls-77" d="M433.61,525.18c0,7.66-6.05,13.41-14.15,13.41s-14.15-5.75-14.15-13.41,6.05-13.25,14.15-13.25S433.61,517.61,433.61,525.18Zm-21.28,0a7.38,7.38,0,0,0,7.21,7.54,7.51,7.51,0,1,0-7.21-7.54Z"/><path class="cls-77" d="M463.17,525.18c0,7.66-6.05,13.41-14.15,13.41s-14.15-5.75-14.15-13.41,6.05-13.25,14.15-13.25S463.17,517.61,463.17,525.18Zm-21.28,0a7.38,7.38,0,0,0,7.21,7.54,7.51,7.51,0,1,0-7.21-7.54Z"/><path class="cls-77" d="M473.39,512.12v20.34h11.09v5.83H466.56V512.12Z"/><path class="cls-77" d="M1292.71,530.51l-8.77-13-4.33,4.81v8.24h-8.82V496.75h8.82v14.16l12.66-14.16h10.22l-12.53,14,13.3,19.8Z"/><path class="cls-77" d="M1314.62,496.75l15.32,20.32V496.75h8.19v33.76h-7.71l-15.32-20.23v20.23h-8.23V496.75Z"/><path class="cls-77" d="M1379.06,513.6c0,9.88-7.8,17.3-18.25,17.3s-18.25-7.42-18.25-17.3,7.8-17.09,18.25-17.09S1379.06,503.83,1379.06,513.6Zm-27.45,0a9.53,9.53,0,0,0,9.3,9.73c5,0,9.1-4.24,9.1-9.73s-4-9.63-9.1-9.63A9.41,9.41,0,0,0,1351.61,513.65Z"/><path class="cls-77" d="M1389.08,496.75l6.41,24.42,6.36-24.42h8.62l6.4,24.42,6.36-24.42h9.06l-11.13,33.76h-9.1L1406,507.73l-6.26,22.78h-9.06l-11.07-33.76Z"/><path class="cls-77" d="M1444,496.75V523h14.3v7.51h-23.12V496.75Z"/><path class="cls-77" d="M1489,496.75v7h-17.82v6.31h16.09v7l-16.09,0v6.36h18.31v7h-27.12V496.75Z"/><path class="cls-77" d="M1527.36,513.6c0,10.07-7.37,16.91-18.3,16.91h-14.21V496.75h14.55C1520.09,496.75,1527.36,503.59,1527.36,513.6Zm-9,.1c0-5.83-3.81-9.78-9.16-9.78h-5.54v19.46h6C1514.74,523.38,1518.36,519.48,1518.36,513.7Z"/><path class="cls-77" d="M1553.52,513.27h7.61v13.29a27.14,27.14,0,0,1-14.07,4.34c-10.31,0-18.06-7.42-18.06-17.25s8-17.14,18.64-17.14a21.72,21.72,0,0,1,13.87,5l-5,6.17a13.68,13.68,0,0,0-8.91-3.71,9.71,9.71,0,0,0,.1,19.41,13.89,13.89,0,0,0,5.83-1.59Z"/><path class="cls-77" d="M1593.59,496.75v7h-17.82v6.31h16.08v7l-16.08,0v6.36h18.3v7H1567V496.75Z"/><polygon class="cls-102" points="943.82 136.1 936.1 136.1 936.1 128.38 931.75 128.38 931.75 136.1 924.03 136.1 924.03 140.45 931.75 140.45 931.75 148.17 936.1 148.17 936.1 140.45 943.82 140.45 943.82 136.1"/><polygon class="cls-102" points="196.39 269.79 188.67 269.79 188.67 262.07 184.32 262.07 184.32 269.79 176.6 269.79 176.6 274.14 184.32 274.14 184.32 281.86 188.67 281.86 188.67 274.14 196.39 274.14 196.39 269.79"/><polygon class="cls-102" points="227.41 361.07 219.69 361.07 219.69 353.35 215.34 353.35 215.34 361.07 207.62 361.07 207.62 365.42 215.34 365.42 215.34 373.14 219.69 373.14 219.69 365.42 227.41 365.42 227.41 361.07"/><polygon class="cls-102" points="581.14 164.39 573.41 164.39 573.41 156.67 569.07 156.67 569.07 164.39 561.34 164.39 561.34 168.74 569.07 168.74 569.07 176.46 573.41 176.46 573.41 168.74 581.14 168.74 581.14 164.39"/><polygon class="cls-102" points="332.06 116.08 324.34 116.08 324.34 108.36 319.99 108.36 319.99 116.08 312.27 116.08 312.27 120.43 319.99 120.43 319.99 128.15 324.34 128.15 324.34 120.43 332.06 120.43 332.06 116.08"/><polygon class="cls-102" points="1277.69 106.19 1269.96 106.19 1269.96 98.46 1265.62 98.46 1265.62 106.19 1257.89 106.19 1257.89 110.53 1265.62 110.53 1265.62 118.26 1269.96 118.26 1269.96 110.53 1277.69 110.53 1277.69 106.19"/><polygon class="cls-102" points="1634.72 157.62 1627 157.62 1627 149.89 1622.65 149.89 1622.65 157.62 1614.92 157.62 1614.92 161.96 1622.65 161.96 1622.65 169.69 1627 169.69 1627 161.96 1634.72 161.96 1634.72 157.62"/><polygon class="cls-102" points="1720.05 283.92 1712.33 283.92 1712.33 276.19 1707.98 276.19 1707.98 283.92 1700.25 283.92 1700.25 288.26 1707.98 288.26 1707.98 295.99 1712.33 295.99 1712.33 288.26 1720.05 288.26 1720.05 283.92"/><polygon class="cls-102" points="1698.34 402.67 1690.62 402.67 1690.62 394.94 1686.27 394.94 1686.27 402.67 1678.55 402.67 1678.55 407.01 1686.27 407.01 1686.27 414.74 1690.62 414.74 1690.62 407.01 1698.34 407.01 1698.34 402.67"/><circle class="cls-77" cx="986.59" cy="44.68" r="27.64"/><path class="cls-77" d="M279.92,60.23c-9.58,0-19.06-.21-28.55.21a137.16,137.16,0,0,1-19.46-.64,22.79,22.79,0,0,1-6.48-1.46c-1.93-.76-4.45-1.62-1.52-2.65,6.42-2.26,14,2.31,20.08-.48-.66-1.1-2.93-2.74-1.87-4.24.7-1,4.48-1.45,5.63-1.56,4.3-.41,9.67-.33,13.58,1.25,4.75,1.92,9.5,1.57,14.69,1.57,2.33,0,12.07-1,13.16,1.93.64,1.73-1.84,1,.31,2.56,1.53,1.13,4.36.92,6.16.91,1.16,0,4.41-.26,5.26.81,1.22,1.51-.63,2.38-2,2.67C295.69,61.82,282.78,60.23,279.92,60.23Z"/><path class="cls-77" d="M1682.1,28.07c-9.58,0-19.06-.21-28.55.21a138.66,138.66,0,0,1-19.46-.64,22.54,22.54,0,0,1-6.48-1.47c-1.93-.76-4.44-1.61-1.52-2.64,6.42-2.26,14,2.3,20.09-.48-.67-1.1-2.93-2.74-1.87-4.24.69-1,4.47-1.45,5.62-1.56,4.3-.41,9.67-.33,13.59,1.25,4.74,1.92,9.49,1.57,14.68,1.57,2.33,0,12.07-1.05,13.17,1.93.63,1.73-1.85,1,.3,2.55,1.54,1.14,4.36.93,6.16.92,1.17,0,4.41-.26,5.26.8,1.22,1.52-.63,2.38-1.95,2.67C1697.87,29.66,1685,28.07,1682.1,28.07Z"/><path class="cls-77" d="M1223,22c-9.58,0-19.06-.21-28.55.21a137.16,137.16,0,0,1-19.46-.64,22.79,22.79,0,0,1-6.48-1.46c-1.93-.76-4.45-1.62-1.52-2.65,6.42-2.26,14,2.31,20.08-.48-.66-1.09-2.93-2.74-1.87-4.24.7-1,4.48-1.45,5.63-1.56,4.3-.41,9.67-.33,13.58,1.25,4.75,1.92,9.5,1.57,14.69,1.57,2.33,0,12.07-1,13.16,1.94.64,1.73-1.84,1,.31,2.55,1.53,1.13,4.36.92,6.16.92,1.16,0,4.41-.27,5.26.8,1.22,1.51-.63,2.38-2,2.67C1238.8,23.61,1225.89,22,1223,22Z"/><path class="cls-77" d="M318.94,27.56c4.75.16,9.48.76,14.3.28a24.94,24.94,0,0,1,6.1.24c4.46.65,8.58,0,12.85-.38,2.61-.23,5.78.12,8.21-1.1,4.83-2.43-2-3.57-4.17-3.35-3.78.37-7.09.15-10.4-1.55-1.73-.89-3.48-.9-5.36-1.08-1.54-.14-4.11-.88-5.57-.17-.63.31-.91,1-1.72,1.36a12.37,12.37,0,0,1-3.83.5c-2.27.13-4.29-.61-6.51-.8-1.5-.14-12.62-1.8-13.2,0-.42,1.3,4,1.19,3.66,2.48-.24.9-5,.84-5.84,1-1.26.18-6.11,0-6.15,1.79A34.08,34.08,0,0,0,311.82,28a3,3,0,0,0,.52,0h0A34.38,34.38,0,0,1,318.94,27.56Z"/><path class="cls-77" d="M1563.7,65.84c4.75.16,9.48.76,14.3.28a24.94,24.94,0,0,1,6.1.24c4.46.65,8.58,0,12.85-.38,2.61-.23,5.78.12,8.21-1.1,4.83-2.43-2-3.57-4.17-3.35-3.78.37-7.09.15-10.4-1.55-1.73-.89-3.48-.9-5.36-1.08-1.54-.14-4.11-.88-5.57-.17-.63.31-.91,1-1.72,1.36a12.37,12.37,0,0,1-3.83.5c-2.27.13-4.29-.61-6.51-.8-1.5-.13-12.62-1.8-13.2,0-.42,1.3,4,1.19,3.66,2.48-.24.9-5,.84-5.84,1-1.26.18-6.11,0-6.15,1.79a34.08,34.08,0,0,0,10.51,1.26,3,3,0,0,0,.52,0h0A34.38,34.38,0,0,1,1563.7,65.84Z"/><path class="cls-103" d="M1638.59,409.58c-3.72-1.57-6.42-2.89-5.78-8.83a9,9,0,0,1,3.32-6.48c1.65-1.38,2.48-1.9,3-4.19.77-3.48-.2-6.33,1.47-9.51,1.78-3.39,5.62-3.05,7.4-6.21,1.54-2.74,2.25-5.78,5.74-6.85,3.09-.94,5,1.7,3.92,4.4-.61,1.56-1.91,2.91-2.3,4.58s.41,2.76,1.19,4.1c1.86,3.19,2.81,7-.79,10.27-2.15,1.94-3.79,3.61-2.71,6.8,1.23,3.64,1.87,5.87-1.42,9.06-2.47,2.4-4.76,2.21-7.52,2.39-2.49.17-5.72,1.22-7.75-.43Z"/><path class="cls-80" d="M1630.65,409.51c-2.66,2.85-4.94,5.09-8.87,1.7a8,8,0,0,1-2.82-6.78c0-2.34.2-3.39-1.25-5.18-2.28-2.81-5.55-3.82-7-7.45-1.59-3.9,2-6.4.67-9.92-1.11-3-3.22-5.9-1.21-8.54,1.63-2.15,5-.86,6.28,1.6.73,1.42.87,3,1.8,4.37s2.14,1.65,3.45,2.12c2.9,1,5.51,2.81,5.75,6.53.15,2.3.37,4.2,2.57,5.18s3.6,1.7,4,5.2c.33,2.69-.54,4.23-1.44,6.38s-1.6,5.31-3.48,6.49Z"/><path class="cls-77" d="M1641.32,405.75l-.35,0a.28.28,0,0,1-.25-.31.27.27,0,0,1,.31-.25c1.84.2,3.75-1.49,4.8-3a4.94,4.94,0,0,0,.68-3.63l-.07-1.12c-.18-2.94-.34-5.48,1.94-7.78,2.53-2.55,3.15-4.13,3-7.67,0-.29,0-.59-.05-.9a15.35,15.35,0,0,1,.08-3.53,8.05,8.05,0,0,1,.68-1.74,5.27,5.27,0,0,0,.69-2.13.29.29,0,0,1,.28-.28h0a.27.27,0,0,1,.27.29,5.54,5.54,0,0,1-.75,2.36,7.62,7.62,0,0,0-.63,1.62,14.48,14.48,0,0,0-.07,3.37c0,.32,0,.63,0,.92.13,3.69-.55,5.43-3.18,8.09-2.1,2.12-2,4.42-1.78,7.34l.07,1.12a5.43,5.43,0,0,1-.78,4C1645.16,404.11,1643.29,405.75,1641.32,405.75Z"/><path class="cls-77" d="M1647.72,398a1.49,1.49,0,0,1-1.17-.61.27.27,0,0,1,0-.39.28.28,0,0,1,.4,0,.89.89,0,0,0,.94.38c1.18-.29,2.47-2.82,2.67-3.76.62-2.79,1.35-4.22,4.08-5.27a.28.28,0,0,1,.2.52c-2.62,1-3.17,2.32-3.73,4.87-.18.84-1.5,3.79-3.08,4.19A1.76,1.76,0,0,1,1647.72,398Z"/><path class="cls-77" d="M1630.81,408a3.11,3.11,0,0,1-1.48-.36c-2-1-2.86-4.07-3.66-6.75a19.41,19.41,0,0,0-1.22-3.38,15.17,15.17,0,0,0-4.87-5.36c-2.74-2-3.41-3.54-3.9-6.83-.41-2.68-1-5.39-2.17-7a.28.28,0,0,1,.45-.34c1.29,1.71,1.86,4.5,2.27,7.26.48,3.17,1.08,4.54,3.68,6.45a16,16,0,0,1,5,5.55,19.6,19.6,0,0,1,1.27,3.49c.76,2.57,1.63,5.49,3.38,6.41a2.91,2.91,0,0,0,2.33.11.28.28,0,0,1,.35.18.28.28,0,0,1-.18.36A4.28,4.28,0,0,1,1630.81,408Z"/><path class="cls-77" d="M1622.17,394.21a.27.27,0,0,1-.17-.06.27.27,0,0,1,0-.39c.82-1.07.32-2.76-.22-4.56-.46-1.56-.94-3.17-.53-4.49a.28.28,0,1,1,.53.17c-.35,1.15.1,2.68.54,4.16.55,1.85,1.12,3.77.12,5.06A.28.28,0,0,1,1622.17,394.21Z"/><path class="cls-77" d="M1625,398a.16.16,0,0,1-.1,0,5.94,5.94,0,0,1-1-.52,3.27,3.27,0,0,0-1.58-.59,7,7,0,0,0-1,0,3.93,3.93,0,0,1-2.27-.33,12.36,12.36,0,0,1-3.82-3.34c-.18-.23-.41-.58-.66-1-.35-.53-1-1.53-1.24-1.59a.29.29,0,0,1-.22-.33.27.27,0,0,1,.31-.22c.44.07.91.74,1.62,1.83.24.36.46.7.62.9a12.34,12.34,0,0,0,3.64,3.2,3.38,3.38,0,0,0,2,.27,8,8,0,0,1,1.11,0,3.71,3.71,0,0,1,1.83.67,6.09,6.09,0,0,0,.92.48.28.28,0,0,1,.16.37A.27.27,0,0,1,1625,398Z"/><path class="cls-104" d="M1629.52,410.11c-4-3.36-8.73-5.62-7.66-12,.89-5.31,7-6.67,5.09-12.38-1.22-3.65-4.39-7.86-3.31-11.93,1.15-4.35,6.83-2.61,8-6.67,1-3.42-2.59-7.39.63-10.19,2.83-2.48,7.86-.13,9.38,2.71,2,3.63-1.27,6.32-.74,9.86.34,2.28,2.53,2.62,4.14,3.94a13.15,13.15,0,0,1,3.9,5.17c2.07,5.88-3.84,8-5.64,12.54-1.68,4.27,4.08,5.59,4.51,9.9.48,4.75-4.6,8.5-8.69,9.27C1636.35,410.84,1632,412.24,1629.52,410.11Z"/><path class="cls-77" d="M1634.1,411.5l-.08,0a.28.28,0,0,1-.18-.35,49.51,49.51,0,0,0,.5-22.61c-1.71-7.34-.16-12.48,1.09-16.61.74-2.46,1.38-4.58,1-6.46a.27.27,0,0,1,.22-.32.28.28,0,0,1,.33.22c.37,2-.28,4.2-1,6.72-1.22,4.07-2.75,9.12-1.07,16.32a50,50,0,0,1-.52,22.9A.27.27,0,0,1,1634.1,411.5Z"/><path class="cls-77" d="M1634.81,388.45a.28.28,0,0,1-.27-.24.27.27,0,0,1,.23-.32c2.33-.36,5-2.49,5.25-5.09,0-.31,0-.65.07-1,.1-1.71.23-3.83,1.47-4.86a3.06,3.06,0,0,1,2.42-.56.28.28,0,0,1,.25.31.29.29,0,0,1-.32.24,2.53,2.53,0,0,0-2,.44c-1.05.88-1.17,2.87-1.27,4.47,0,.36-.05.71-.08,1-.28,3-3.18,5.21-5.71,5.59Z"/><path class="cls-77" d="M1633.12,388.52a4.2,4.2,0,0,1-2.78-1c-1.14-1-1.71-2.72-1.65-5,0-.23,0-.49,0-.77.08-1.62.21-4.07-.8-5.18a1.82,1.82,0,0,0-1.32-.57.27.27,0,0,1-.27-.29.28.28,0,0,1,.29-.27h0a2.37,2.37,0,0,1,1.71.75c1.17,1.28,1,3.87,1,5.58,0,.29,0,.54,0,.76,0,2.12.45,3.7,1.46,4.58a4.36,4.36,0,0,0,3.7.76.27.27,0,0,1,.32.23.28.28,0,0,1-.23.32A7.48,7.48,0,0,1,1633.12,388.52Z"/><path class="cls-77" d="M1636.43,406.89a2.58,2.58,0,0,1-1-.2.28.28,0,0,1,.21-.52c1.69.7,4.28-1.21,5.26-2.47a7.53,7.53,0,0,0,1-2.2c.51-1.54,1-3.14,2.46-3.49a.27.27,0,0,1,.34.21.28.28,0,0,1-.2.34c-1.13.28-1.6,1.72-2.06,3.11a8.06,8.06,0,0,1-1.06,2.38C1640.45,405.18,1638.32,406.89,1636.43,406.89Z"/><path class="cls-77" d="M1633.93,406.78a3.32,3.32,0,0,1-1.09-.2c-2.06-.71-3.78-3.27-4.44-4.81a10.13,10.13,0,0,1-.43-3.24c-.07-2-.14-4-1.43-4.63a.28.28,0,0,1-.13-.38.28.28,0,0,1,.38-.12c1.59.79,1.67,3.09,1.74,5.11a9.56,9.56,0,0,0,.39,3c.59,1.39,2.23,3.85,4.11,4.5a2.45,2.45,0,0,0,2.07-.14.28.28,0,1,1,.27.49A3,3,0,0,1,1633.93,406.78Z"/><path class="cls-89" d="M1616.1,408.46a53.05,53.05,0,0,0-3.17,18.46c0,19.56,9.71,35.42,21.69,35.42s21.69-15.86,21.69-35.42a52.82,52.82,0,0,0-3.18-18.46Z"/><path class="cls-80" d="M1655.41,416.86a48.66,48.66,0,0,0-2.28-8.4h-37a48.66,48.66,0,0,0-2.28,8.4Z"/></g></g></g></svg>